<svg xmlns="http://www.w3.org/2000/svg" width="76" height="82" viewBox="0 0 76 82"><title>lilly-resource-card</title><defs><linearGradient id="a" x1="100%" x2="0%" y1="50%" y2="50%"><stop offset="0%" stop-color="#78C8EB"/><stop offset="100%" stop-color="#F0AFAA"/></linearGradient></defs><g fill="none" fill-rule="evenodd"><path fill="#41B5E8" d="M51.28 81.783l24.276-5.423V17L51.28 22.386h-2.693L26.968 17h-2.693L0 22.386v59.397l24.275-5.423h2.693l21.62 5.423h2.692zM2.693 78.389V24.563l21.582-4.796v53.826L2.693 78.389zm45.894.59l-21.619-5.423V62.71c.48-.259.923-.48 1.292-.738.368-.222.774-.48 1.106-.738.59-.443.738-1.291.295-1.918-.442-.59-1.29-.701-1.918-.259-.221.185-.48.37-.775.517v-39.77l21.62 5.386v31.174c-.517-.443-.997-.885-1.513-1.328-.554-.48-1.402-.406-1.919.148-.48.553-.406 1.402.148 1.881.664.553 1.291 1.144 1.992 1.808a1.3 1.3 0 0 0 .849.332c.147 0 .295-.074.442-.11v19.884zm2.693.037V62.12c.074.111.148.222.259.295.848.628 1.66 1.144 2.435 1.55a1.405 1.405 0 0 0 1.844-.553 1.398 1.398 0 0 0-.59-1.845 13.942 13.942 0 0 1-2.103-1.328 1.344 1.344 0 0 0-1.845.295V25.19l21.582-4.833V74.22L51.28 79.016zM65.263 46.33c.184 0 .369-.036.516-.073.701-.295 1.033-1.107.738-1.771a33.775 33.775 0 0 0-1.18-2.583c-.37-.664-1.181-.885-1.845-.553-.664.369-.886 1.18-.554 1.845.406.7.775 1.512 1.107 2.324.221.516.701.811 1.218.811zm-3.786-7.196c.184 0 .369-.037.516-.074.701-.295 1.033-1.107.738-1.77a33.775 33.775 0 0 0-1.18-2.583c-.37-.664-1.181-.885-1.845-.553-.664.368-.885 1.18-.553 1.844.405.701.774 1.513 1.106 2.324.222.517.701.812 1.218.812zM13.945 45.26c.148 0 .332 0 .48-.074l.11-.037c.702-.258 1.329-.295 1.845-.221a1.37 1.37 0 0 0 1.55-1.144 1.37 1.37 0 0 0-1.144-1.55 7.092 7.092 0 0 0-3.099.332l-.221.111c-.701.258-1.033 1.033-.775 1.734.184.517.7.849 1.254.849zm5.977 5.976c.553 0 1.107-.369 1.291-.922l.037-.185a6.688 6.688 0 0 0 .258-1.918c0-.406-.037-.812-.11-1.218-.111-.737-.812-1.217-1.55-1.106a1.4 1.4 0 0 0-1.107 1.586c.074.258.074.48.074.738 0 .406-.037.812-.184 1.291-.222.701.184 1.439.885 1.697.11.037.258.037.406.037zm-11.658-.369c.516 0 1.033-.295 1.254-.811.258-.59.701-1.255 1.255-1.956.48-.553.405-1.439-.148-1.881a1.383 1.383 0 0 0-1.918.147c-.738.886-1.292 1.771-1.66 2.583-.296.664 0 1.475.7 1.77.148.111.332.148.517.148zm59.286 3.284a1.389 1.389 0 0 0 1.18-1.513 26.534 26.534 0 0 0-.516-2.804c-.148-.738-.885-1.18-1.586-1.033a1.378 1.378 0 0 0-1.033 1.623c.184.886.332 1.734.442 2.546.074.664.664 1.18 1.328 1.18h.185zm-25.751.147c.517 0 .996-.295 1.217-.775.333-.664.037-1.475-.664-1.807-1.07-.48-2.14-.738-3.135-.738h-.037c-.738 0-1.328.59-1.328 1.328 0 .738.59 1.365 1.328 1.365.664 0 1.328.184 2.066.517.184.073.369.11.553.11zm-9.297 3.505c.37 0 .701-.148.96-.406.627-.627 1.254-1.291 1.88-1.844.554-.48.591-1.329.075-1.882a1.305 1.305 0 0 0-1.882-.11c-.7.59-1.365 1.29-1.992 1.955-.517.553-.517 1.402.037 1.918.258.258.59.369.922.369zm-15.495.996c.628 0 1.18-.406 1.329-1.033.147-.664.405-1.439.774-2.398.295-.664-.074-1.476-.774-1.734-.665-.258-1.476.074-1.734.775-.406 1.033-.701 1.955-.886 2.73-.184.738.258 1.476.996 1.623.11.037.222.037.295.037zm49.51 3.283c.48 0 .96-.258 1.217-.737a11.25 11.25 0 0 0 .923-2.915c.147-.738-.37-1.439-1.07-1.586-.738-.148-1.439.369-1.587 1.107-.147.811-.368 1.549-.7 2.176a1.328 1.328 0 0 0 .627 1.808c.184.11.369.147.59.147zM21.102 64.26c.738 0 1.329-.59 1.329-1.328a1.308 1.308 0 0 0-1.329-1.365c-.737 0-1.365-.184-1.844-.48a1.367 1.367 0 0 0-1.882.406c-.406.627-.184 1.476.443 1.845.885.59 1.992.922 3.247.922h.036zm39.033 1.328c.627 0 1.254-.037 1.844-.147.258-.037.517-.074.775-.148.738-.147 1.18-.885.996-1.623-.184-.738-.885-1.144-1.623-.996-.148.037-.332.074-.517.11-.48.074-.996.074-1.439.074h-.368c-.738-.037-1.365.59-1.402 1.328 0 .738.59 1.365 1.328 1.365l.406.037z"/><path fill="url(#a)" fill-rule="nonzero" stroke="#FFF" stroke-width="4" d="M52.19 6.275L44.747 3.86a4.606 4.606 0 0 0-3.57.218A4.634 4.634 0 0 0 38.8 6.81a4.68 4.68 0 0 0 .287 3.556 4.562 4.562 0 0 0 2.71 2.298l6.572 2.132-3.286 7.188a4.788 4.788 0 0 0-.1 3.592c.426 1.139 1.282 2.094 2.526 2.635.613.241 1.227.356 1.839.356.908 0 1.815-.261 2.586-.751a4.594 4.594 0 0 0 1.753-2.03l3.617-8.005 6.129 1.987c.386.126.909.242 1.43.242a4.774 4.774 0 0 0 2.745-.86 4.675 4.675 0 0 0 1.752-2.368 4.742 4.742 0 0 0-.276-3.529 4.742 4.742 0 0 0-2.697-2.36L61.19 9.243l1.88-4.128a4.64 4.64 0 0 0 .07-3.609A4.58 4.58 0 0 0 60.663-1a4.562 4.562 0 0 0-3.542-.145 4.69 4.69 0 0 0-2.65 2.448l-2.283 4.972z" transform="translate(0 4)"/></g></svg>