<svg xmlns="http://www.w3.org/2000/svg" width="86" height="103" viewBox="0 0 86 103"><title>lilly-resource-card</title><defs><linearGradient id="a" x1="100%" x2="0%" y1="50%" y2="50%"><stop offset="0%" stop-color="#78C8EB"/><stop offset="100%" stop-color="#F0AFAA"/></linearGradient></defs><g fill="none" fill-rule="evenodd"><path fill="#41B5E8" d="M68.056 14.894v79.805c0 2.928-2.382 5.301-5.32 5.301H5.32C2.382 100 0 97.627 0 94.699V14.894c0-1.406.56-2.754 1.558-3.748A5.329 5.329 0 0 1 5.32 9.593h13.264c.948 0 1.716.766 1.716 1.71s-.768 1.71-1.716 1.71H5.32c-.501 0-.981.198-1.335.55a1.878 1.878 0 0 0-.553 1.331v79.805c0 .499.199.977.553 1.33.354.353.834.551 1.335.551h57.416a1.884 1.884 0 0 0 1.888-1.881V14.894a1.884 1.884 0 0 0-1.888-1.881H50.724a1.713 1.713 0 0 1-1.716-1.71c0-.944.769-1.71 1.716-1.71h12.012c1.41 0 2.764.559 3.762 1.553a5.292 5.292 0 0 1 1.558 3.748zm-46.177 1.402h2.248V10.26C24.127 4.594 28.737 0 34.422 0c5.687 0 10.296 4.594 10.296 10.26v6.105h1.493c5.104.009 9.24 4.13 9.25 9.216v1.71H12.628v-1.71a9.218 9.218 0 0 1 2.69-6.556 9.283 9.283 0 0 1 6.56-2.729zm-5.56 7.507h35.418a5.832 5.832 0 0 0-5.56-4.087h-4.925v-6.515-2.975c0-3.778-3.073-6.84-6.864-6.84-3.79 0-6.864 3.062-6.864 6.84v9.456H21.88a5.832 5.832 0 0 0-5.56 4.121z"/><path fill="url(#a)" fill-rule="nonzero" stroke="#FFF" stroke-width="4" d="M65.627 74.865a8.338 8.338 0 0 0-3.744-2.468 8.28 8.28 0 0 0-4.522-.154 8.328 8.328 0 0 0-3.934 2.242 8.43 8.43 0 0 0-2.196 3.969 8.477 8.477 0 0 0 .169 4.537 8.418 8.418 0 0 0 2.429 3.742l13.009 13.105 10.382-10.45 2.673-2.591a8.438 8.438 0 0 0 2.102-5.873 8.43 8.43 0 0 0-2.422-5.65 8.297 8.297 0 0 0-5.609-2.479 8.288 8.288 0 0 0-5.843 2.103l-1.255 1.285-1.239-1.318z"/><path fill="#41B5E8" d="M53.418 41.792H26.666c-.947 0-1.716.766-1.716 1.71s.769 1.71 1.716 1.71h26.752c.948 0 1.716-.766 1.716-1.71s-.768-1.71-1.716-1.71zM53.418 59.525H26.666c-.947 0-1.716.765-1.716 1.71 0 .944.769 1.71 1.716 1.71h26.752c.948 0 1.716-.766 1.716-1.71 0-.945-.768-1.71-1.716-1.71zM12.938 78.95a3.198 3.198 0 001.97 2.966c1.198.5 2.58.231 3.502-.682a3.19 3.19 0 00.704-3.487 3.209 3.209 0 00-2.967-1.978 3.203 3.203 0 00-3.209 3.181zM42.418 77.24H26.666c-.947 0-1.716.766-1.716 1.71s.769 1.71 1.716 1.71h15.752c.948 0 1.716-.766 1.716-1.71s-.768-1.71-1.716-1.71zM20.197 37.9c-.458 0-.896.183-1.218.506l-4.187 4.19-.6-.599a1.72 1.72 0 00-2.42 0 1.707 1.707 0 000 2.428l3.02 2.993 6.623-6.6a1.706 1.706 0 000-2.412 1.719 1.719 0 00-1.218-.506zM21.415 55.934a1.719 1.719 0 00-2.436 0l-4.187 4.19-.6-.6a1.733 1.733 0 00-2.902.743 1.719 1.719 0 00.43 1.669l3.02 3.01 6.624-6.601c.68-.653.703-1.73.051-2.411zM34.028 7.78c-.948 0-1.716.766-1.716 1.71 0 .945.768 1.71 1.716 1.71.947 0 1.716-.765 1.716-1.71 0-.944-.769-1.71-1.716-1.71z"/></g></svg>