<svg xmlns="http://www.w3.org/2000/svg" width="107" height="100" viewBox="0 0 107 100"><title>lilly-resource-card</title><defs><linearGradient id="a" x1="100%" x2="0%" y1="50%" y2="50%"><stop offset="0%" stop-color="#78C8EB"/><stop offset="100%" stop-color="#F0AFAA"/></linearGradient></defs><g fill="none" fill-rule="evenodd"><path fill="#41B5E8" d="M82.144 39.857v59.54H.254v-59.54h4.75V15.274h23.007L41.191 0l13.162 15.274H77.41v24.583h4.735zM78.89 94.3V44.954L43.452 69.537 78.89 94.3zM5.525 43.135l35.08 24.452 35.177-24.452H5.525zm26.798-27.86h17.702L41.19 4.998l-8.867 10.275zM8.259 39.856h65.896V18.552H8.259v21.305zM3.508 96.12h72.29L3.508 45.724V96.12z"/><path fill="url(#a)" fill-rule="nonzero" stroke="#FFF" stroke-width="4" d="M89.178 58c-.572 0-1.115.112-1.633.35-.693.3-1.255.783-1.65 1.367a3.759 3.759 0 0 0-.645 2.101v3.21H67.5a5.5 5.5 0 0 0-3.885 1.597A5.437 5.437 0 0 0 62 70.5c0 1.378.51 2.641 1.353 3.608A5.49 5.49 0 0 0 67.5 76h17.75v3.209c0 .76.231 1.485.65 2.096.392.57.948 1.042 1.639 1.342.52.24 1.065.353 1.639.353.86 0 1.723-.288 2.427-.821l11.886-8.69A3.756 3.756 0 0 0 105 70.5a3.756 3.756 0 0 0-1.509-2.99l-11.886-8.689A4.044 4.044 0 0 0 89.178 58z"/></g></svg>