<?xml version="1.0" encoding="UTF-8"?>
<svg width="866px" height="607px" viewBox="0 0 866 607" version="1.1" xmlns="http://www.w3.org/2000/svg" xmlns:xlink="http://www.w3.org/1999/xlink">
    <title>Group 10 Copy</title>
    <defs>
        <rect id="path-1" x="0" y="0" width="844" height="585" rx="27"></rect>
        <filter x="-2.3%" y="-2.4%" width="104.5%" height="106.5%" filterUnits="objectBoundingBox" id="filter-2">
            <feOffset dx="0" dy="5" in="SourceAlpha" result="shadowOffsetOuter1"></feOffset>
            <feGaussianBlur stdDeviation="5.5" in="shadowOffsetOuter1" result="shadowBlurOuter1"></feGaussianBlur>
            <feColorMatrix values="0 0 0 0 0   0 0 0 0 0   0 0 0 0 0  0 0 0 0.077305507 0" type="matrix" in="shadowBlurOuter1"></feColorMatrix>
        </filter>
    </defs>
    <g id="Page-1" stroke="none" stroke-width="1" fill="none" fill-rule="evenodd">
        <g id="Group-10-Copy" transform="translate(11.000000, 6.000000)">
            <g id="Rectangle">
                <use fill="black" fill-opacity="1" filter="url(#filter-2)" xlink:href="#path-1"></use>
                <use fill="#FFFFFF" fill-rule="evenodd" xlink:href="#path-1"></use>
            </g>
            <path d="M281.5275,238.315 C286.3575,238.315 289.6475,236.6 291.9925,232.645 L287.0925,229.495 C286.0775,231.385 284.5725,232.785 281.4925,232.785 C277.8525,232.785 275.6475,229.845 275.6475,226.1 C275.6475,222.355 277.7825,219.45 281.2825,219.45 C284.2925,219.45 285.7625,220.885 286.6725,222.285 L291.4675,219.03 C289.4725,216.09 286.3225,213.92 281.1775,213.92 C274.8075,213.92 269.1375,218.925 269.1375,226.1 C269.1375,233.275 274.8425,238.315 281.5275,238.315 Z M306.0625,238.315 C312.9225,238.315 318.8375,233.275 318.8375,226.1 C318.8375,218.925 312.9225,213.92 306.0625,213.92 C299.2025,213.92 293.2875,218.925 293.2875,226.1 C293.2875,233.275 299.2025,238.315 306.0625,238.315 Z M306.0625,232.785 C302.0725,232.785 299.7975,229.845 299.7975,226.1 C299.7975,222.355 302.0725,219.45 306.0625,219.45 C310.0525,219.45 312.3275,222.355 312.3275,226.1 C312.3275,229.845 310.0525,232.785 306.0625,232.785 Z M343.2325,238.35 L343.2325,214.2 L337.2475,214.2 L337.2475,226.135 L322.3025,213.815 C321.9175,213.5 321.8125,213.675 321.8125,213.885 L321.8125,238 L327.7975,238 L327.7975,226.135 L342.7425,238.42 C343.1275,238.735 343.2325,238.63 343.2325,238.35 Z M358.7725,238 L358.7725,219.555 L365.0725,219.555 L365.0725,214.2 L346.1025,214.2 L346.1025,219.555 L352.4025,219.555 L352.4025,238 L358.7725,238 Z M372.2475,238 L373.1225,235.97 L382.0825,235.97 L382.9925,238 L389.5725,238 L378.0225,213.78 C377.9175,213.535 377.7075,213.535 377.6025,213.78 L366.0175,238 L372.2475,238 Z M379.9825,231.21 L375.1525,231.21 L377.5325,225.68 L379.9825,231.21 Z M403.0125,238.315 C407.8425,238.315 411.1325,236.6 413.4775,232.645 L408.5775,229.495 C407.5625,231.385 406.0575,232.785 402.9775,232.785 C399.3375,232.785 397.1325,229.845 397.1325,226.1 C397.1325,222.355 399.2675,219.45 402.7675,219.45 C405.7775,219.45 407.2475,220.885 408.1575,222.285 L412.9525,219.03 C410.9575,216.09 407.8075,213.92 402.6625,213.92 C396.2925,213.92 390.6225,218.925 390.6225,226.1 C390.6225,233.275 396.3275,238.315 403.0125,238.315 Z M427.3375,238 L427.3375,219.555 L433.6375,219.555 L433.6375,214.2 L414.6675,214.2 L414.6675,219.555 L420.9675,219.555 L420.9675,238 L427.3375,238 Z M456.3875,238 L456.3875,219.555 L462.6875,219.555 L462.6875,214.2 L443.7175,214.2 L443.7175,219.555 L450.0175,219.555 L450.0175,238 L456.3875,238 Z M471.9275,238 L471.9275,232.54 L474.3075,232.54 L477.6325,238 L484.5275,238 L480.2925,231.245 C483.0925,229.705 484.5975,226.975 484.5975,223.545 C484.5975,218.26 480.9925,214.2 474.5875,214.2 L465.5575,214.2 L465.5575,238 L471.9275,238 Z M474.2725,227.465 L471.9275,227.465 L471.9275,219.59 L474.2725,219.59 C477.1425,219.59 478.1925,221.235 478.1925,223.545 C478.1925,225.855 477.1425,227.465 474.2725,227.465 Z M491.8775,238 L492.7525,235.97 L501.7125,235.97 L502.6225,238 L509.2025,238 L497.6525,213.78 C497.5475,213.535 497.3375,213.535 497.2325,213.78 L485.6475,238 L491.8775,238 Z M499.6125,231.21 L494.7825,231.21 L497.1625,225.68 L499.6125,231.21 Z M522.6425,238.315 C527.4725,238.315 530.7625,236.6 533.1075,232.645 L528.2075,229.495 C527.1925,231.385 525.6875,232.785 522.6075,232.785 C518.9675,232.785 516.7625,229.845 516.7625,226.1 C516.7625,222.355 518.8975,219.45 522.3975,219.45 C525.4075,219.45 526.8775,220.885 527.7875,222.285 L532.5825,219.03 C530.5875,216.09 527.4375,213.92 522.2925,213.92 C515.9225,213.92 510.2525,218.925 510.2525,226.1 C510.2525,233.275 515.9575,238.315 522.6425,238.315 Z M552.7425,238 L552.7425,232.645 L541.9275,232.645 L541.9275,230.16 L550.5375,230.16 L550.5375,225.085 L541.9275,225.085 L541.9275,219.555 L552.2525,219.555 L552.2525,214.2 L535.5575,214.2 L535.5575,238 L552.7425,238 Z M562.1925,238 L562.1925,232.54 L564.5725,232.54 L567.8975,238 L574.7925,238 L570.5575,231.245 C573.3575,229.705 574.8625,226.975 574.8625,223.545 C574.8625,218.26 571.2575,214.2 564.8525,214.2 L555.8225,214.2 L555.8225,238 L562.1925,238 Z M564.5375,227.465 L562.1925,227.465 L562.1925,219.59 L564.5375,219.59 C567.4075,219.59 568.4575,221.235 568.4575,223.545 C568.4575,225.855 567.4075,227.465 564.5375,227.465 Z M124.115,302.35 C130.415,302.35 133.145,299.2 133.145,294.825 C133.145,291.465 131.535,289.19 126.775,287.615 L123.625,286.565 C122.47,286.18 121.945,285.725 121.945,284.815 C121.945,283.87 122.715,283.17 124.255,283.17 C126.145,283.17 127.195,283.87 128.175,284.885 L131.815,281.07 C130.415,279.425 128.105,277.92 123.905,277.92 C119.67,277.92 115.785,280.335 115.785,285.025 C115.785,288.945 118.235,291.045 121.7,292.2 L124.5,293.145 C126.075,293.67 126.845,294.16 126.845,295.175 C126.845,296.505 125.725,297.065 123.835,297.065 C121.455,297.065 120.02,295.91 118.865,294.475 L114.245,297.94 C115.715,299.9 118.76,302.35 124.115,302.35 Z M140.355,302 L141.23,299.97 L150.19,299.97 L151.1,302 L157.68,302 L146.13,277.78 C146.025,277.535 145.815,277.535 145.71,277.78 L134.125,302 L140.355,302 Z M148.09,295.21 L143.26,295.21 L145.64,289.68 L148.09,295.21 Z M176.37,302 L176.37,296.645 L166.255,296.645 L166.255,278.2 L159.885,278.2 L159.885,302 L176.37,302 Z M196.495,302 L196.495,296.645 L185.68,296.645 L185.68,294.16 L194.29,294.16 L194.29,289.085 L185.68,289.085 L185.68,283.555 L196.005,283.555 L196.005,278.2 L179.31,278.2 L179.31,302 L196.495,302 Z M207.52,302.35 C213.82,302.35 216.55,299.2 216.55,294.825 C216.55,291.465 214.94,289.19 210.18,287.615 L207.03,286.565 C205.875,286.18 205.35,285.725 205.35,284.815 C205.35,283.87 206.12,283.17 207.66,283.17 C209.55,283.17 210.6,283.87 211.58,284.885 L215.22,281.07 C213.82,279.425 211.51,277.92 207.31,277.92 C203.075,277.92 199.19,280.335 199.19,285.025 C199.19,288.945 201.64,291.045 205.105,292.2 L207.905,293.145 C209.48,293.67 210.25,294.16 210.25,295.175 C210.25,296.505 209.13,297.065 207.24,297.065 C204.86,297.065 203.425,295.91 202.27,294.475 L197.65,297.94 C199.12,299.9 202.165,302.35 207.52,302.35 Z M225.825,302 L225.825,294.44 L234.47,294.44 L234.47,289.085 L225.825,289.085 L225.825,283.555 L235.625,283.555 L235.625,278.2 L219.455,278.2 L219.455,302 L225.825,302 Z M250.395,302.315 C257.255,302.315 263.17,297.275 263.17,290.1 C263.17,282.925 257.255,277.92 250.395,277.92 C243.535,277.92 237.62,282.925 237.62,290.1 C237.62,297.275 243.535,302.315 250.395,302.315 Z M250.395,296.785 C246.405,296.785 244.13,293.845 244.13,290.1 C244.13,286.355 246.405,283.45 250.395,283.45 C254.385,283.45 256.66,286.355 256.66,290.1 C256.66,293.845 254.385,296.785 250.395,296.785 Z M272.515,302 L272.515,296.54 L274.895,296.54 L278.22,302 L285.115,302 L280.88,295.245 C283.68,293.705 285.185,290.975 285.185,287.545 C285.185,282.26 281.58,278.2 275.175,278.2 L266.145,278.2 L266.145,302 L272.515,302 Z M274.86,291.465 L272.515,291.465 L272.515,283.59 L274.86,283.59 C277.73,283.59 278.78,285.235 278.78,287.545 C278.78,289.855 277.73,291.465 274.86,291.465 Z M299.395,302.315 C304.225,302.315 307.515,300.6 309.86,296.645 L304.96,293.495 C303.945,295.385 302.44,296.785 299.36,296.785 C295.72,296.785 293.515,293.845 293.515,290.1 C293.515,286.355 295.65,283.45 299.15,283.45 C302.16,283.45 303.63,284.885 304.54,286.285 L309.335,283.03 C307.34,280.09 304.19,277.92 299.045,277.92 C292.675,277.92 287.005,282.925 287.005,290.1 C287.005,297.275 292.71,302.315 299.395,302.315 Z M329.495,302 L329.495,296.645 L318.68,296.645 L318.68,294.16 L327.29,294.16 L327.29,289.085 L318.68,289.085 L318.68,283.555 L329.005,283.555 L329.005,278.2 L312.31,278.2 L312.31,302 L329.495,302 Z M347.415,302 L347.415,294.44 L355.675,294.44 L355.675,302 L362.045,302 L362.045,278.2 L355.675,278.2 L355.675,289.085 L347.415,289.085 L347.415,278.2 L341.045,278.2 L341.045,302 L347.415,302 Z M383.36,302 L383.36,296.645 L372.545,296.645 L372.545,294.16 L381.155,294.16 L381.155,289.085 L372.545,289.085 L372.545,283.555 L382.87,283.555 L382.87,278.2 L366.175,278.2 L366.175,302 L383.36,302 Z M390.745,302 L391.62,299.97 L400.58,299.97 L401.49,302 L408.07,302 L396.52,277.78 C396.415,277.535 396.205,277.535 396.1,277.78 L384.515,302 L390.745,302 Z M398.48,295.21 L393.65,295.21 L396.03,289.68 L398.48,295.21 Z M426.76,302 L426.76,296.645 L416.645,296.645 L416.645,278.2 L410.275,278.2 L410.275,302 L426.76,302 Z M441.11,302 L441.11,283.555 L447.41,283.555 L447.41,278.2 L428.44,278.2 L428.44,283.555 L434.74,283.555 L434.74,302 L441.11,302 Z M456.65,302 L456.65,294.44 L464.91,294.44 L464.91,302 L471.28,302 L471.28,278.2 L464.91,278.2 L464.91,289.085 L456.65,289.085 L456.65,278.2 L450.28,278.2 L450.28,302 L456.65,302 Z M495.115,302.315 C499.945,302.315 503.235,300.6 505.58,296.645 L500.68,293.495 C499.665,295.385 498.16,296.785 495.08,296.785 C491.44,296.785 489.235,293.845 489.235,290.1 C489.235,286.355 491.37,283.45 494.87,283.45 C497.88,283.45 499.35,284.885 500.26,286.285 L505.055,283.03 C503.06,280.09 499.91,277.92 494.765,277.92 C488.395,277.92 482.725,282.925 482.725,290.1 C482.725,297.275 488.43,302.315 495.115,302.315 Z M524.515,302 L524.515,296.645 L514.4,296.645 L514.4,278.2 L508.03,278.2 L508.03,302 L524.515,302 Z M539.075,302.315 C545.935,302.315 551.85,297.275 551.85,290.1 C551.85,282.925 545.935,277.92 539.075,277.92 C532.215,277.92 526.3,282.925 526.3,290.1 C526.3,297.275 532.215,302.315 539.075,302.315 Z M539.075,296.785 C535.085,296.785 532.81,293.845 532.81,290.1 C532.81,286.355 535.085,283.45 539.075,283.45 C543.065,283.45 545.34,286.355 545.34,290.1 C545.34,293.845 543.065,296.785 539.075,296.785 Z M564.905,302.35 C570.855,302.35 575.23,299.2 575.23,292.795 L575.23,278.2 L568.86,278.2 L568.86,292.725 C568.86,295.42 567.6,296.96 564.905,296.96 C562.21,296.96 560.95,295.42 560.95,292.725 L560.95,278.2 L554.58,278.2 L554.58,292.795 C554.58,299.2 558.955,302.35 564.905,302.35 Z M588.32,302 C595.18,302 600.36,297.485 600.36,290.1 C600.36,282.715 595.18,278.2 588.32,278.2 L579.115,278.2 L579.115,302 L588.32,302 Z M587.62,296.61 L585.485,296.61 L585.485,283.59 L587.62,283.59 C591.47,283.59 593.85,286.145 593.85,290.1 C593.85,294.055 591.47,296.61 587.62,296.61 Z M628.85,302 L628.85,296.645 L618.035,296.645 L618.035,294.16 L626.645,294.16 L626.645,289.085 L618.035,289.085 L618.035,283.555 L628.36,283.555 L628.36,278.2 L611.665,278.2 L611.665,302 L628.85,302 Z M636.795,302 L641.695,293.95 L646.49,302 L653.595,302 L645.405,288.945 L652.3,278.2 L645.685,278.2 L642.115,284.22 L638.58,278.2 L631.475,278.2 L638.405,289.225 L630.18,302 L636.795,302 Z M661.96,302 L661.96,296.855 L664.62,296.855 C671.025,296.855 674.63,292.83 674.63,287.545 C674.63,282.26 671.025,278.2 664.62,278.2 L655.59,278.2 L655.59,302 L661.96,302 Z M664.305,291.465 L661.96,291.465 L661.96,283.59 L664.305,283.59 C667.175,283.59 668.225,285.235 668.225,287.545 C668.225,289.855 667.175,291.465 664.305,291.465 Z M694.755,302 L694.755,296.645 L683.94,296.645 L683.94,294.16 L692.55,294.16 L692.55,289.085 L683.94,289.085 L683.94,283.555 L694.265,283.555 L694.265,278.2 L677.57,278.2 L677.57,302 L694.755,302 Z M704.205,302 L704.205,296.54 L706.585,296.54 L709.91,302 L716.805,302 L712.57,295.245 C715.37,293.705 716.875,290.975 716.875,287.545 C716.875,282.26 713.27,278.2 706.865,278.2 L697.835,278.2 L697.835,302 L704.205,302 Z M706.55,291.465 L704.205,291.465 L704.205,283.59 L706.55,283.59 C709.42,283.59 710.47,285.235 710.47,287.545 C710.47,289.855 709.42,291.465 706.55,291.465 Z M731.26,302 L731.26,283.555 L737.56,283.555 L737.56,278.2 L718.59,278.2 L718.59,283.555 L724.89,283.555 L724.89,302 L731.26,302 Z" id="ContactTracerSalesforceHealthCloudExpert" fill="#4B2048" fill-rule="nonzero"></path>
            <rect id="Rectangle" stroke="#4B2048" stroke-width="2" x="23" y="25" width="798" height="535" rx="20"></rect>
            <rect id="Rectangle" stroke="#4B2048" stroke-width="11" x="40.5" y="43.5" width="763" height="498" rx="15"></rect>
            <polygon id="Rectangle" fill="#4B2048" points="95 46 188 46 188 178 142.05072 158 95 178"></polygon>
            <path d="M296.776,192.008 C302.032,192.008 306.208,187.832 306.208,186.152 C306.208,185.576 305.272,185.432 305.272,185.432 C304.816,185.432 303.808,186.464 302.992,186.968 C302.368,187.352 300.328,188.6 297.016,188.6 C295.336,188.6 293.728,187.4 293.512,185.528 C293.056,181.592 296.872,177.968 298.912,177.176 C298.912,177.176 298.768,178.328 299.536,178.4 C300.064,178.472 300.952,178.088 302.44,177.104 C303.88,176.12 304.336,175.04 304.336,174.512 C304.336,173.96 303.616,172.904 302.224,172.76 C300.376,172.52 297.28,173.936 294.736,175.832 C292.384,177.536 289.264,181.16 289.264,184.688 C289.264,189.536 292.384,192.008 296.776,192.008 Z M311.872,191.528 C314.32,191.48 316.72,190.28 317.392,187.568 C317.56,186.896 317.248,186.56 316.744,186.56 C316.456,186.584 316.216,186.824 315.976,187.112 C315.04,188.144 314.2,188.912 312.592,188.912 C311.536,188.936 310.696,188.456 310.288,187.496 C310.864,187.064 311.968,185.864 312.784,184.856 C313.744,183.632 314.344,182.768 314.344,181.256 C314.344,179.408 312.976,178.208 311.464,178.232 C307.432,178.328 305.728,182.12 305.872,185.744 C306.016,189.248 308.752,191.576 311.872,191.528 Z M309.112,185.432 C308.896,184.256 309.52,180.44 311.32,180.656 C311.44,180.656 311.584,180.776 311.656,181.04 C311.608,181.784 311.296,182.528 310.912,183.2 C310.312,184.208 309.52,185.048 309.112,185.432 Z M324.688,191.456 C326.152,190.664 327.568,189.128 327.784,187.568 C327.88,186.872 327.64,186.56 327.136,186.56 C326.848,186.584 326.608,186.824 326.368,187.112 C325.984,187.544 325.696,187.928 325.264,188.288 C324.664,188.792 323.68,189.176 323.536,188.096 C323.32,186.464 323.92,184.04 324.472,182.336 C324.736,181.52 325.048,181.088 325.12,180.368 C325.216,179.456 324.616,178.16 323.872,178.184 C322.552,178.232 322.072,179.432 320.344,179.144 C319.36,178.976 319.216,177.992 317.632,177.92 C316.576,178.016 316.864,181.808 316.576,183.008 C315.688,186.608 315.136,187.808 314.44,188.6 C314.536,189.464 316.264,189.008 316.6,188.768 C317.248,188.336 317.344,187.784 317.896,186.272 C318.232,185.336 319.048,181.928 319.264,181.712 C319.36,182 320.392,182.264 320.752,181.928 C320.296,184.568 319.264,188.504 320.728,190.784 C321.16,191.432 323.68,191.888 324.688,191.456 Z M331.264,191.312 C333.04,191.24 334.936,189.32 335.152,187.568 C335.248,186.872 335.008,186.56 334.504,186.56 C334.216,186.584 333.976,186.824 333.736,187.112 C333.28,187.616 332.656,188.576 331.936,188.552 C330.616,188.528 329.968,187.088 329.992,186.248 C330.016,185.336 330.952,180.44 331.408,178.952 C331.576,178.568 331.648,178.496 332.008,178.376 C332.584,178.184 332.944,178.184 333.424,178.064 C334,177.896 334.168,177.632 334.288,177.272 C334.312,177.128 334.48,176.504 334.408,176.336 C334.48,175.784 333.904,175.64 333.52,175.64 C333.232,175.64 333.064,175.616 332.8,175.664 C332.536,175.712 332.296,175.64 332.32,175.376 C332.368,174.896 331.912,174.416 331.312,174.392 C330.568,174.392 329.632,174.968 329.272,175.592 C329.176,175.76 328.84,175.952 328.552,176 C327.664,176.144 326.632,176.288 325.816,176.528 C325.36,176.696 324.568,176.888 324.4,177.128 C324.304,178.328 324.832,178.568 325.48,178.712 C326.176,178.88 327.448,178.688 327.88,178.76 C328.168,178.808 328.24,179 328.12,179.528 C327.928,180.224 327.472,181.832 327.136,183.56 C326.872,184.928 326.704,185.552 326.656,186.848 C326.632,189.44 327.664,191.312 331.264,191.312 Z M336.52,177.896 C337.312,177.896 337.96,177.248 337.96,176.576 C337.96,176 337.384,175.232 336.664,175.232 C335.824,175.232 335.176,175.736 335.176,176.696 C335.176,177.2 335.536,177.896 336.52,177.896 Z M337.768,190.952 C338.896,190.304 340.12,188.864 340.288,187.568 C340.384,186.872 340.12,186.56 339.616,186.56 C339.328,186.584 339.088,186.824 338.848,187.112 C338.464,187.544 338.104,188.12 337.744,188.288 C336.808,188.72 336.4,188.552 336.256,187.736 C336.256,185.984 337.72,180.488 337.24,179.792 C337.096,179.408 334.96,179.312 334.648,179.384 C333.688,180.248 332.872,186.44 333.088,188.336 C333.208,189.392 333.736,190.568 334.336,191.048 C335.416,191.912 336.736,191.528 337.768,190.952 Z M344.224,200.456 C346.576,199.928 347.248,198.248 347.176,195.968 C347.128,193.976 346.408,192.128 345.832,191.072 C346.192,191 346.456,190.88 346.576,190.832 C347.704,190.184 348.928,188.744 349.096,187.448 C349.192,186.752 348.952,186.44 348.448,186.44 C348.16,186.464 347.92,186.704 347.68,186.992 C347.296,187.424 346.96,187.856 346.576,188.168 C345.424,189.152 344.008,187.088 342.472,187.976 L342.304,188.096 C342.424,184.208 342.736,181.52 344.224,176.672 C344.848,174.584 346.408,172.928 345.76,172.352 C345.496,172.112 344.728,171.872 344.152,171.848 C343.264,171.824 342.448,171.848 342.04,172.4 C340.84,174.056 340.456,175.208 339.88,177.896 C339.352,180.368 339.064,183.512 338.824,185.912 C338.8,185.936 338.8,185.96 338.8,186.008 C338.848,188.216 338.512,192.176 338.848,194.648 C339.304,198.08 340.336,201.032 344.224,200.456 Z M343.528,197.912 C342.184,196.592 342.088,193.592 342.376,191.576 C342.688,191.672 343.096,191.888 343.744,191.84 C344.704,193.184 344.92,195.344 344.416,197.6 C344.224,197.96 343.864,197.984 343.528,197.912 Z M350.44,177.896 C351.232,177.896 351.88,177.248 351.88,176.576 C351.88,176 351.304,175.232 350.584,175.232 C349.744,175.232 349.096,175.736 349.096,176.696 C349.096,177.2 349.456,177.896 350.44,177.896 Z M351.688,190.952 C352.816,190.304 354.04,188.864 354.208,187.568 C354.304,186.872 354.04,186.56 353.536,186.56 C353.248,186.584 353.008,186.824 352.768,187.112 C352.384,187.544 352.024,188.12 351.664,188.288 C350.728,188.72 350.32,188.552 350.176,187.736 C350.176,185.984 351.64,180.488 351.16,179.792 C351.016,179.408 348.88,179.312 348.568,179.384 C347.608,180.248 346.792,186.44 347.008,188.336 C347.128,189.392 347.656,190.568 348.256,191.048 C349.336,191.912 350.656,191.528 351.688,190.952 Z M357.88,191.6 C358.984,191.6 360.4,191.408 361.144,190.952 C362.272,190.304 363.496,188.864 363.664,187.568 C363.76,186.872 363.52,186.56 363.016,186.56 C362.728,186.584 362.488,186.824 362.248,187.112 C361.864,187.544 361.528,187.976 361.144,188.288 C360.52,188.912 359.488,189.08 358.672,189.08 C356.848,189.08 355.792,186.896 355.792,184.88 C355.792,183.368 356.08,180.896 357.328,180.896 C357.448,180.896 357.784,180.848 357.88,181.304 C357.88,181.448 357.856,181.568 357.856,181.688 C357.856,182.768 358.168,183.536 359.296,183.608 C360.472,183.608 360.64,182.456 360.64,181.904 C360.64,179.792 358.984,178.4 356.944,178.4 C354.208,178.4 352.336,181.4 352.336,185.048 C352.336,188.192 353.704,191.6 357.88,191.6 Z M371.104,191.408 C371.92,191.408 372.688,191.288 373.36,190.952 C374.488,190.304 375.712,188.864 375.88,187.568 C375.976,186.872 375.736,186.56 375.232,186.56 C374.944,186.584 374.704,186.824 374.464,187.112 C374.08,187.544 373.744,187.976 373.36,188.288 C373.144,188.432 372.88,188.576 372.64,188.576 C372.28,188.576 371.656,188.168 371.656,186.608 C371.656,184.472 372.664,180.248 372.664,179.384 C372.664,179 371.872,178.856 371.344,178.856 C371.08,178.856 370.36,179.072 370.288,179.312 C370.12,178.904 368.968,178.28 368.2,178.28 C364.36,178.28 361.792,182.624 361.792,186.776 C361.792,188.216 362.344,191.192 364.36,191.192 C365.776,191.192 367.552,189.968 368.44,188.984 C368.536,190.04 369.496,191.408 371.104,191.408 Z M365.584,187.712 C365.32,187.712 365.248,187.472 365.248,186.824 C365.248,184.088 366.952,181.568 368.416,181.496 C368.68,181.496 368.92,182.12 368.92,182.504 L368.92,182.6 C368.704,184.784 367.216,187.712 365.584,187.712 Z M379.36,191.312 C381.136,191.24 383.032,189.32 383.248,187.568 C383.344,186.872 383.104,186.56 382.6,186.56 C382.312,186.584 382.072,186.824 381.832,187.112 C381.376,187.616 380.752,188.576 380.032,188.552 C378.712,188.528 378.064,187.088 378.088,186.248 C378.112,185.336 379.048,180.44 379.504,178.952 C379.672,178.568 379.744,178.496 380.104,178.376 C380.68,178.184 381.04,178.184 381.52,178.064 C382.096,177.896 382.264,177.632 382.384,177.272 C382.408,177.128 382.576,176.504 382.504,176.336 C382.576,175.784 382,175.64 381.616,175.64 C381.328,175.64 381.16,175.616 380.896,175.664 C380.632,175.712 380.392,175.64 380.416,175.376 C380.464,174.896 380.008,174.416 379.408,174.392 C378.664,174.392 377.728,174.968 377.368,175.592 C377.272,175.76 376.936,175.952 376.648,176 C375.76,176.144 374.728,176.288 373.912,176.528 C373.456,176.696 372.664,176.888 372.496,177.128 C372.4,178.328 372.928,178.568 373.576,178.712 C374.272,178.88 375.544,178.688 375.976,178.76 C376.264,178.808 376.336,179 376.216,179.528 C376.024,180.224 375.568,181.832 375.232,183.56 C374.968,184.928 374.8,185.552 374.752,186.848 C374.728,189.44 375.76,191.312 379.36,191.312 Z M384.616,177.896 C385.408,177.896 386.056,177.248 386.056,176.576 C386.056,176 385.48,175.232 384.76,175.232 C383.92,175.232 383.272,175.736 383.272,176.696 C383.272,177.2 383.632,177.896 384.616,177.896 Z M385.864,190.952 C386.992,190.304 388.216,188.864 388.384,187.568 C388.48,186.872 388.216,186.56 387.712,186.56 C387.424,186.584 387.184,186.824 386.944,187.112 C386.56,187.544 386.2,188.12 385.84,188.288 C384.904,188.72 384.496,188.552 384.352,187.736 C384.352,185.984 385.816,180.488 385.336,179.792 C385.192,179.408 383.056,179.312 382.744,179.384 C381.784,180.248 380.968,186.44 381.184,188.336 C381.304,189.392 381.832,190.568 382.432,191.048 C383.512,191.912 384.832,191.528 385.864,190.952 Z M390.52,191.144 C393.784,191.144 395.464,188.6 395.8,185.648 C396.496,185.576 397.336,185.36 397.768,184.952 C398.584,184.184 400.024,182.648 400.168,181.544 C400.264,180.848 400.024,180.536 399.52,180.536 C399.232,180.56 398.992,180.8 398.752,181.088 C398.368,181.52 397.936,182.12 397.312,182.6 C396.88,183.032 396.232,183.128 395.752,183.104 C395.368,180.704 393.976,178.52 391.792,178.52 C391.12,178.52 390.736,178.76 390.472,179.144 C387.856,179.72 386.368,183.2 386.368,185.744 C386.368,188.072 387.4,191.144 390.52,191.144 Z M391.144,188.072 C390.088,188.096 389.464,187.04 389.464,185.888 C389.464,184.616 389.752,182.912 390.832,182.024 C391.288,183.392 392.248,184.448 393.28,185.072 C393.136,186.584 392.464,188.072 391.144,188.072 Z M406.336,191.312 C407.296,191.312 408.112,191.24 408.784,190.952 C409.984,190.448 411.136,188.864 411.304,187.568 C411.4,186.872 411.16,186.56 410.656,186.56 C410.368,186.584 410.128,186.824 409.888,187.112 C409.504,187.544 409.168,187.976 408.784,188.288 C408.568,188.504 408.064,188.816 407.728,188.816 C406.384,188.816 406.912,186.104 407.008,184.688 C407.104,183.296 407.488,180.224 407.176,179.816 C406.72,179.216 405.376,178.52 404.8,178.472 C404.128,178.424 402.64,179.624 401.488,181.232 C401.56,180.32 401.704,178.928 401.44,178.88 C400.528,178.76 398.776,179.144 398.536,179.432 C398.296,179.744 398.176,182 398.176,183.416 C398.056,186.176 397.648,190.592 398.104,190.928 C399.16,191 400.288,191.24 401.056,190.832 C401.176,189.632 401.104,188.384 401.152,186.392 C401.512,184.808 402.28,182.96 403.504,182.144 C403.792,182.12 403.864,183.032 403.816,183.416 C403.792,185.264 403.144,188.936 403.96,190.088 C404.368,190.76 405.304,191.312 406.336,191.312 Z M421.864,191.144 C425.128,191.144 426.808,188.6 427.144,185.648 C427.84,185.576 428.68,185.36 429.112,184.952 C429.928,184.184 431.368,182.648 431.512,181.544 C431.608,180.848 431.368,180.536 430.864,180.536 C430.576,180.56 430.336,180.8 430.096,181.088 C429.712,181.52 429.28,182.12 428.656,182.6 C428.224,183.032 427.576,183.128 427.096,183.104 C426.712,180.704 425.32,178.52 423.136,178.52 C422.464,178.52 422.08,178.76 421.816,179.144 C419.2,179.72 417.712,183.2 417.712,185.744 C417.712,188.072 418.744,191.144 421.864,191.144 Z M422.488,188.072 C421.432,188.096 420.808,187.04 420.808,185.888 C420.808,184.616 421.096,182.912 422.176,182.024 C422.632,183.392 423.592,184.448 424.624,185.072 C424.48,186.584 423.808,188.072 422.488,188.072 Z M434.464,200.456 C436.816,199.928 437.488,198.248 437.416,195.968 C437.368,193.976 436.648,192.128 436.072,191.072 C436.432,191 436.696,190.88 436.816,190.832 C437.944,190.184 439.168,188.744 439.336,187.448 C439.432,186.752 439.192,186.44 438.688,186.44 C438.4,186.464 438.16,186.704 437.92,186.992 C437.536,187.424 437.2,187.856 436.816,188.168 C435.664,189.152 434.248,187.088 432.712,187.976 L432.544,188.096 C432.664,184.208 432.976,181.52 434.464,176.672 C435.088,174.584 436.648,172.928 436,172.352 C435.736,172.112 434.968,171.872 434.392,171.848 C433.504,171.824 432.688,171.848 432.28,172.4 C431.08,174.056 430.696,175.208 430.12,177.896 C429.592,180.368 429.304,183.512 429.064,185.912 C429.04,185.936 429.04,185.96 429.04,186.008 C429.088,188.216 428.752,192.176 429.088,194.648 C429.544,198.08 430.576,201.032 434.464,200.456 Z M433.768,197.912 C432.424,196.592 432.328,193.592 432.616,191.576 C432.928,191.672 433.336,191.888 433.984,191.84 C434.944,193.184 435.16,195.344 434.656,197.6 C434.464,197.96 434.104,197.984 433.768,197.912 Z M453.016,192.008 C458.272,192.008 462.448,187.832 462.448,186.152 C462.448,185.576 461.512,185.432 461.512,185.432 C461.056,185.432 460.048,186.464 459.232,186.968 C458.608,187.352 456.568,188.6 453.256,188.6 C451.576,188.6 449.968,187.4 449.752,185.528 C449.296,181.592 453.112,177.968 455.152,177.176 C455.152,177.176 455.008,178.328 455.776,178.4 C456.304,178.472 457.192,178.088 458.68,177.104 C460.12,176.12 460.576,175.04 460.576,174.512 C460.576,173.96 459.856,172.904 458.464,172.76 C456.616,172.52 453.52,173.936 450.976,175.832 C448.624,177.536 445.504,181.16 445.504,184.688 C445.504,189.536 448.624,192.008 453.016,192.008 Z M466.24,191.144 C469.504,191.144 471.184,188.6 471.52,185.648 C472.216,185.576 473.056,185.36 473.488,184.952 C474.304,184.184 475.744,182.648 475.888,181.544 C475.984,180.848 475.744,180.536 475.24,180.536 C474.952,180.56 474.712,180.8 474.472,181.088 C474.088,181.52 473.656,182.12 473.032,182.6 C472.6,183.032 471.952,183.128 471.472,183.104 C471.088,180.704 469.696,178.52 467.512,178.52 C466.84,178.52 466.456,178.76 466.192,179.144 C463.576,179.72 462.088,183.2 462.088,185.744 C462.088,188.072 463.12,191.144 466.24,191.144 Z M466.864,188.072 C465.808,188.096 465.184,187.04 465.184,185.888 C465.184,184.616 465.472,182.912 466.552,182.024 C467.008,183.392 467.968,184.448 469,185.072 C468.856,186.584 468.184,188.072 466.864,188.072 Z M488.008,191.312 C489.016,191.312 489.808,191.192 490.528,191 C491.632,190.688 493.096,188.576 493.216,187.568 C493.312,186.872 493.072,186.56 492.568,186.56 C492.28,186.584 492.04,186.824 491.8,187.112 C490.792,188.312 490.192,188.816 489.76,188.816 C488.416,188.816 488.824,186.104 488.92,184.688 C489.016,183.296 489.4,180.224 489.088,179.816 C488.632,179.216 487.288,178.52 486.712,178.472 C486.088,178.424 484.744,179.48 483.616,180.92 C483.616,180.512 483.568,180.176 483.496,179.96 C483.304,179.432 481.36,178.376 480.952,178.448 C480.208,178.592 478.312,180.032 477.088,181.928 C477.088,181.232 477.424,179.096 477.088,179.024 C476.176,178.856 474.184,179.192 473.92,179.432 C473.68,179.744 473.776,182.024 473.752,183.44 C473.608,186.2 473.176,189.344 474.088,191.024 C475.144,191.216 475.744,191.072 476.536,190.64 C476.8,188.72 476.92,186.608 477.52,185.144 C477.928,184.208 478.768,182.72 479.752,182.192 C480.04,182.168 480.064,183.08 480.016,183.464 C479.896,185.312 479.536,190.232 479.992,190.784 C480.328,191.192 482.416,190.808 482.776,190.664 C483.016,189.968 483.016,187.808 483.16,186.032 C483.544,184.544 484.288,182.912 485.416,182.144 C485.704,182.12 485.776,183.032 485.728,183.416 C485.704,185.264 485.56,189.152 485.968,189.992 C486.232,190.544 487.072,191.312 488.008,191.312 Z M494.056,197.432 C494.584,197 494.536,193.664 494.584,191.888 C494.632,190.496 494.68,188.096 494.704,186.992 C494.704,186.848 494.68,186.68 494.656,186.536 L494.656,185.36 C495.016,183.872 495.76,182.6 496.552,182.36 C497.584,182.048 498.592,182.648 498.832,183.896 C499.12,185.36 497.92,187.952 496.432,188.24 C496.216,188.168 495.88,188.168 495.52,188.408 C495.088,188.72 495.184,190.232 495.52,190.544 C496.312,191.288 499.624,192.248 501.856,191.096 C503.008,190.496 504.688,188.864 504.856,187.568 C504.952,186.872 504.712,186.56 504.208,186.56 C503.92,186.584 503.68,186.824 503.44,187.112 C503.056,187.544 502.696,187.952 502.336,188.288 C501.472,189.056 500.2,189.368 499.048,189.344 C500.752,188.312 502.048,186.272 502.048,183.368 C502.048,181.328 500.776,179.744 499.576,179.264 C498.688,178.904 497.032,178.76 495.784,179.768 C495.352,180.104 494.944,180.656 494.536,181.28 C494.464,180.272 494.344,179.552 494.152,179.432 C493.048,179.36 491.944,179.912 491.56,180.392 C491.632,182.144 491.728,183.104 491.8,184.64 C491.848,185.552 491.896,186.272 491.896,186.92 C491.8,187.424 491.752,187.976 491.752,188.576 C491.776,191.72 491.248,196.352 491.44,196.952 C491.752,197.624 493.408,197.528 494.056,197.432 Z M507.76,191.960075 C509.176,191.936 510.304,191.552 511.168,190.976 C512.296,190.208 513.544,188.888 513.712,187.568 C513.808,186.872 513.568,186.56 513.064,186.56 C512.776,186.584 512.536,186.824 512.296,187.112 C511.912,187.544 511.576,187.976 511.192,188.288 C510.592,188.84 509.56,189.08 509.2,189.08 C507.928,189.104 507.64,188.12 507.424,187.016 C509.896,184.424 512.008,180.464 512.224,175.904 C512.368,172.712 511.552,170.672 510.112,170.695791 C509.032,170.72 507.76,171.392 507.04,172.376 C505.432,174.536 503.968,178.64 503.824,182.6 C503.68,186.248 503.68,191.984 507.76,191.960075 Z M506.992,183.8 C506.776,181.904 507.28,178.688 508.048,176.696 C508.552,175.472 509.176,174.272 509.704,173.72 C509.992,173.888 510.136,175.472 509.944,176.552 C509.44,179.36 508.168,182.384 506.992,183.8 Z M517.72,191.528 C520.168,191.48 522.568,190.28 523.24,187.568 C523.408,186.896 523.096,186.56 522.592,186.56 C522.304,186.584 522.064,186.824 521.824,187.112 C520.888,188.144 520.048,188.912 518.44,188.912 C517.384,188.936 516.544,188.456 516.136,187.496 C516.712,187.064 517.816,185.864 518.632,184.856 C519.592,183.632 520.192,182.768 520.192,181.256 C520.192,179.408 518.824,178.208 517.312,178.232 C513.28,178.328 511.576,182.12 511.72,185.744 C511.864,189.248 514.6,191.576 517.72,191.528 Z M514.96,185.432 C514.744,184.256 515.368,180.44 517.168,180.656 C517.288,180.656 517.432,180.776 517.504,181.04 C517.456,181.784 517.144,182.528 516.76,183.2 C516.16,184.208 515.368,185.048 514.96,185.432 Z M526.576,191.312 C528.352,191.24 530.248,189.32 530.464,187.568 C530.56,186.872 530.32,186.56 529.816,186.56 C529.528,186.584 529.288,186.824 529.048,187.112 C528.592,187.616 527.968,188.576 527.248,188.552 C525.928,188.528 525.28,187.088 525.304,186.248 C525.328,185.336 526.264,180.44 526.72,178.952 C526.888,178.568 526.96,178.496 527.32,178.376 C527.896,178.184 528.256,178.184 528.736,178.064 C529.312,177.896 529.48,177.632 529.6,177.272 C529.624,177.128 529.792,176.504 529.72,176.336 C529.792,175.784 529.216,175.64 528.832,175.64 C528.544,175.64 528.376,175.616 528.112,175.664 C527.848,175.712 527.608,175.64 527.632,175.376 C527.68,174.896 527.224,174.416 526.624,174.392 C525.88,174.392 524.944,174.968 524.584,175.592 C524.488,175.76 524.152,175.952 523.864,176 C522.976,176.144 521.944,176.288 521.128,176.528 C520.672,176.696 519.88,176.888 519.712,177.128 C519.616,178.328 520.144,178.568 520.792,178.712 C521.488,178.88 522.76,178.688 523.192,178.76 C523.48,178.808 523.552,179 523.432,179.528 C523.24,180.224 522.784,181.832 522.448,183.56 C522.184,184.928 522.016,185.552 521.968,186.848 C521.944,189.44 522.976,191.312 526.576,191.312 Z M531.832,177.896 C532.624,177.896 533.272,177.248 533.272,176.576 C533.272,176 532.696,175.232 531.976,175.232 C531.136,175.232 530.488,175.736 530.488,176.696 C530.488,177.2 530.848,177.896 531.832,177.896 Z M533.08,190.952 C534.208,190.304 535.432,188.864 535.6,187.568 C535.696,186.872 535.432,186.56 534.928,186.56 C534.64,186.584 534.4,186.824 534.16,187.112 C533.776,187.544 533.416,188.12 533.056,188.288 C532.12,188.72 531.712,188.552 531.568,187.736 C531.568,185.984 533.032,180.488 532.552,179.792 C532.408,179.408 530.272,179.312 529.96,179.384 C529,180.248 528.184,186.44 528.4,188.336 C528.52,189.392 529.048,190.568 529.648,191.048 C530.728,191.912 532.048,191.528 533.08,190.952 Z M537.736,191.144 C541,191.144 542.68,188.6 543.016,185.648 C543.712,185.576 544.552,185.36 544.984,184.952 C545.8,184.184 547.24,182.648 547.384,181.544 C547.48,180.848 547.24,180.536 546.736,180.536 C546.448,180.56 546.208,180.8 545.968,181.088 C545.584,181.52 545.152,182.12 544.528,182.6 C544.096,183.032 543.448,183.128 542.968,183.104 C542.584,180.704 541.192,178.52 539.008,178.52 C538.336,178.52 537.952,178.76 537.688,179.144 C535.072,179.72 533.584,183.2 533.584,185.744 C533.584,188.072 534.616,191.144 537.736,191.144 Z M538.36,188.072 C537.304,188.096 536.68,187.04 536.68,185.888 C536.68,184.616 536.968,182.912 538.048,182.024 C538.504,183.392 539.464,184.448 540.496,185.072 C540.352,186.584 539.68,188.072 538.36,188.072 Z M553.552,191.312 C554.512,191.312 555.328,191.24 556,190.952 C557.2,190.448 558.352,188.864 558.52,187.568 C558.616,186.872 558.376,186.56 557.872,186.56 C557.584,186.584 557.344,186.824 557.104,187.112 C556.72,187.544 556.384,187.976 556,188.288 C555.784,188.504 555.28,188.816 554.944,188.816 C553.6,188.816 554.128,186.104 554.224,184.688 C554.32,183.296 554.704,180.224 554.392,179.816 C553.936,179.216 552.592,178.52 552.016,178.472 C551.344,178.424 549.856,179.624 548.704,181.232 C548.776,180.32 548.92,178.928 548.656,178.88 C547.744,178.76 545.992,179.144 545.752,179.432 C545.512,179.744 545.392,182 545.392,183.416 C545.272,186.176 544.864,190.592 545.32,190.928 C546.376,191 547.504,191.24 548.272,190.832 C548.392,189.632 548.32,188.384 548.368,186.392 C548.728,184.808 549.496,182.96 550.72,182.144 C551.008,182.12 551.08,183.032 551.032,183.416 C551.008,185.264 550.36,188.936 551.176,190.088 C551.584,190.76 552.52,191.312 553.552,191.312 Z" id="CertificationofCompletion" fill="#4B2048" fill-rule="nonzero"></path>
            <path d="M414.376,264.408 C415.192,264.408 415.96,264.288 416.632,263.952 C417.76,263.304 418.984,261.864 419.152,260.568 C419.248,259.872 419.008,259.56 418.504,259.56 C418.216,259.584 417.976,259.824 417.736,260.112 C417.352,260.544 417.016,260.976 416.632,261.288 C416.416,261.432 416.152,261.576 415.912,261.576 C415.552,261.576 414.928,261.168 414.928,259.608 C414.928,257.472 415.936,253.248 415.936,252.384 C415.936,252 415.144,251.856 414.616,251.856 C414.352,251.856 413.632,252.072 413.56,252.312 C413.392,251.904 412.24,251.28 411.472,251.28 C407.632,251.28 405.064,255.624 405.064,259.776 C405.064,261.216 405.616,264.192 407.632,264.192 C409.048,264.192 410.824,262.968 411.712,261.984 C411.808,263.04 412.768,264.408 414.376,264.408 Z M408.856,260.712 C408.592,260.712 408.52,260.472 408.52,259.824 C408.52,257.088 410.224,254.568 411.688,254.496 C411.952,254.496 412.192,255.12 412.192,255.504 L412.192,255.6 C411.976,257.784 410.488,260.712 408.856,260.712 Z M426.304,264.312 C427.264,264.312 428.08,264.24 428.752,263.952 C429.952,263.448 431.104,261.864 431.272,260.568 C431.368,259.872 431.128,259.56 430.624,259.56 C430.336,259.584 430.096,259.824 429.856,260.112 C429.472,260.544 429.136,260.976 428.752,261.288 C428.536,261.504 428.032,261.816 427.696,261.816 C426.352,261.816 426.88,259.104 426.976,257.688 C427.072,256.296 427.456,253.224 427.144,252.816 C426.688,252.216 425.344,251.52 424.768,251.472 C424.096,251.424 422.608,252.624 421.456,254.232 C421.528,253.32 421.672,251.928 421.408,251.88 C420.496,251.76 418.744,252.144 418.504,252.432 C418.264,252.744 418.144,255 418.144,256.416 C418.024,259.176 417.616,263.592 418.072,263.928 C419.128,264 420.256,264.24 421.024,263.832 C421.144,262.632 421.072,261.384 421.12,259.392 C421.48,257.808 422.248,255.96 423.472,255.144 C423.76,255.12 423.832,256.032 423.784,256.416 C423.76,258.264 423.112,261.936 423.928,263.088 C424.336,263.76 425.272,264.312 426.304,264.312 Z M439.36,264.312 C441.064,264.312 442.888,262.032 443.08,260.568 C443.08,260.472 443.104,260.376 443.104,260.304 C443.104,259.8 442.864,259.56 442.432,259.56 C441.856,259.56 441.16,260.856 440.56,261.288 C440.272,261.504 439.936,261.72 439.648,261.72 C439.192,261.72 438.736,261.312 438.736,259.584 C438.736,257.664 439.096,254.688 439.096,253.848 L439.144,253.176 C439.144,251.736 439.84,247.464 439.84,245.592 C439.84,244.2 439,243.816 437.824,243.672 C436.648,243.864 436.36,247.872 436.096,249.6 C436.024,250.104 435.976,250.824 435.928,251.544 C435.616,251.424 435.304,251.352 435.088,251.352 C431.368,251.544 429.064,256.296 429.064,259.992 C429.064,261.648 429.328,262.944 430.888,263.832 C431.248,264.048 431.632,264.12 432.04,264.12 C433.48,264.12 435.04,263.04 435.64,262.224 C436.528,263.232 436.624,264.312 439.36,264.312 Z M432.832,260.472 C432.184,260.472 432.328,259.848 432.328,259.44 C432.328,258.36 432.592,257.424 432.976,256.632 C433.168,256.224 434.128,254.472 434.896,254.472 C435.4,254.472 435.472,255.216 435.688,255.624 C435.592,258.576 433.792,260.472 432.832,260.472 Z" id="and" fill="#4B2048" fill-rule="nonzero"></path>
            <text id="Certifing-Partners" font-family="SalesforceSans-Bold, Salesforce Sans" font-size="18" font-weight="bold" line-spacing="43" fill="#FFFFFF">
                <tspan x="346.716" y="484">Certifing Partners</tspan>
            </text>
            <g id="salesforce-2" transform="translate(107.000000, 439.000000)" fill-rule="nonzero">
                <path d="M38.2902973,7.08925106 C41.2578313,3.96865315 45.3892052,2.03317597 49.9583546,2.03317597 C56.032317,2.03317597 61.3314914,5.45142519 64.1535914,10.5259059 C66.6059816,9.42007834 69.3205028,8.80488272 72.1764975,8.80488272 C83.1314772,8.80488272 92.012987,17.8467152 92.012987,28.9997154 C92.012987,40.154017 83.1314772,49.1958495 72.1764975,49.1958495 C70.8643499,49.196622 69.5554129,49.0649896 68.2692153,48.8029163 C65.7841278,53.2767958 61.0484524,56.299602 55.6128704,56.299602 C53.3374141,56.299602 51.1851944,55.769184 49.268948,54.8259398 C46.7496895,60.8065746 40.8802925,65 34.0395552,65 C26.915779,65 20.8444876,60.4507316 18.5140446,54.0705637 C17.4956386,54.2888289 16.4404826,54.4026094 15.3577873,54.4026094 C6.87610565,54.4027024 0,47.391536 0,38.7413352 C0,32.9445713 3.089389,27.8831976 7.67953837,25.175333 C6.73454012,22.980782 6.20889636,20.5585771 6.20889636,18.0119944 C6.20889636,8.06410093 14.2108947,0 24.0806921,0 C29.8753919,0 35.0252639,2.78065073 38.2902973,7.08925106" id="Path" fill="#00A1E0"></path>
                <path d="M13.5272545,33.4733645 C13.4696621,33.6200051 13.5482306,33.6506411 13.5665387,33.6760815 C13.7393157,33.7984463 13.9148528,33.8865024 14.0915858,33.9845913 C15.0289794,34.4689445 15.9141167,34.6103896 16.8397343,34.6103896 C18.7250095,34.6103896 19.8954405,33.6339795 19.8954405,32.0621383 L19.8954405,32.0315919 C19.8954405,30.5782636 18.5744966,30.0505542 17.3346052,29.6693959 L17.1736042,29.6184255 C16.2387867,29.322636 15.4323098,29.0677839 15.4323098,28.4685906 L15.4323098,28.4367901 C15.4323098,27.9243091 15.9036287,27.5469132 16.634205,27.5469132 C17.4459259,27.5469132 18.4095396,27.8095585 19.0300833,28.1435087 C19.0300833,28.1435087 19.2120604,28.2582593 19.2788528,28.0861782 C19.315469,27.9943598 19.6297429,27.1708609 19.6624951,27.0816403 C19.6978233,26.9847159 19.634987,26.9133215 19.5708626,26.8750713 C18.8625503,26.4556628 17.8832045,26.1688312 16.8699104,26.1688312 L16.6814013,26.1700853 C14.955839,26.1700853 13.7513678,27.1848352 13.7513678,28.639328 L13.7513678,28.669964 C13.7513678,30.2034654 15.0802237,30.7006284 16.3253592,31.0473883 L16.5256444,31.1073166 C17.4329538,31.3788303 18.2145905,31.6120938 18.2145905,32.2342194 L18.2145905,32.2648554 C18.2145905,32.8334127 17.7066554,33.2565835 16.8870225,33.2565835 C16.5688846,33.2565835 15.5542106,33.2502234 14.458392,32.5757838 C14.3260952,32.5005375 14.2489068,32.4458048 14.1467862,32.3858765 C14.0931498,32.3527323 13.958277,32.2953122 13.8993967,32.468737 L13.5272545,33.4733645 L13.5272545,33.4733645 Z M41.1272354,33.4733645 C41.069643,33.6200051 41.1482115,33.6506411 41.1665196,33.6760815 C41.3392966,33.7984463 41.5148337,33.8865024 41.6914747,33.9845913 C42.6288683,34.4689445 43.5140976,34.6103896 44.4396232,34.6103896 C46.3248984,34.6103896 47.4954214,33.6339795 47.4954214,32.0621383 L47.4954214,32.0315919 C47.4954214,30.5782636 46.1743855,30.0505542 44.9344941,29.6693959 L44.7734931,29.6184255 C43.8386756,29.322636 43.0321067,29.0677839 43.0321067,28.4685906 L43.0321067,28.4367901 C43.0321067,27.9243091 43.5034256,27.5469132 44.2340019,27.5469132 C45.0457228,27.5469132 46.0093365,27.8095585 46.6299722,28.1435087 C46.6299722,28.1435087 46.8119493,28.2582593 46.8786497,28.0861782 C46.9152659,27.9943598 47.2295398,27.1708609 47.262292,27.0816403 C47.2977122,26.9847159 47.2347839,26.9133215 47.1706595,26.8750713 C46.4623472,26.4556628 45.4830014,26.1688312 44.4697073,26.1688312 L44.2811062,26.1700853 C42.5555439,26.1700853 41.3510727,27.1848352 41.3510727,28.639328 L41.3510727,28.669964 C41.3510727,30.2034654 42.6799286,30.7006284 43.9250641,31.0473883 L44.1253493,31.1073166 C45.0326587,31.3788303 45.8156754,31.6120938 45.8156754,32.2342194 L45.8156754,32.2648554 C45.8156754,32.8334127 45.3063603,33.2565835 44.4867274,33.2565835 C44.1686815,33.2565835 43.1540075,33.2502234 42.0581889,32.5757838 C41.9258921,32.5005375 41.8474157,32.448313 41.7479631,32.3858765 C41.7138309,32.3641984 41.5541179,32.3042701 41.4991016,32.468737 L41.1272354,33.4733645 L41.1272354,33.4733645 Z M59.9690399,30.3945372 C59.9690399,31.2830705 59.7988389,31.9828609 59.4636809,32.4775157 C59.1323869,32.9670645 58.6309839,33.2054339 57.9319638,33.2054339 C57.2315636,33.2054339 56.7327366,32.9683186 56.4066867,32.4775157 C56.0766807,31.9842046 55.9092397,31.2830705 55.9092397,30.3945372 C55.9092397,29.5073477 56.0766807,28.8087217 56.4066867,28.319173 C56.7327366,27.8348198 57.2315636,27.5989585 57.9319638,27.5989585 C58.6310759,27.5989585 59.1324789,27.8348198 59.4650609,28.319173 C59.7989309,28.8086322 59.9690399,29.5072581 59.9690399,30.3945372 M61.5428013,28.7475393 C61.3882404,28.2388207 61.147383,27.7901199 60.8266691,27.4166654 C60.5058631,27.0418673 60.1000487,26.7410613 59.6181498,26.5217721 C59.137631,26.3038266 58.5695276,26.1929279 57.9319638,26.1929279 C57.2930199,26.1929279 56.7248246,26.3038266 56.2443057,26.5217721 C55.7624988,26.7410613 55.3566844,27.0419568 55.0345905,27.4166654 C54.7151645,27.7914636 54.4742151,28.2401644 54.3184582,28.7475393 C54.1652773,29.2535706 54.0879968,29.80681 54.0879968,30.3945372 C54.0879968,30.9822645 54.1652773,31.5367579 54.3184582,32.0415351 C54.4742151,32.5489101 54.7138765,32.9977004 55.0359705,33.372409 C55.3566844,33.7472072 55.7638788,34.0467591 56.2443977,34.2595986 C56.7261126,34.4725277 57.2930199,34.5808286 57.9320558,34.5808286 C58.5696196,34.5808286 59.136527,34.4725277 59.6182418,34.2595986 C60.0987607,34.0467591 60.5058631,33.7471176 60.8267611,33.372409 C61.147475,32.998865 61.3883324,32.5501642 61.5428933,32.0415351 C61.6974543,31.5355038 61.7746427,30.9809208 61.7746427,30.3945372 C61.7746427,29.8081537 61.6972703,29.2535706 61.5428013,28.7475393 M74.4658425,32.9681394 C74.4134942,32.8189905 74.2655574,32.8750669 74.2655574,32.8750669 C74.036476,32.9605252 73.7928585,33.0395338 73.533693,33.0790381 C73.2704794,33.1184528 72.9811377,33.1389664 72.6708198,33.1389664 C71.9089633,33.1389664 71.3040597,32.9184231 70.8707371,32.4824425 C70.4360345,32.046462 70.192509,31.3415655 70.195085,30.387998 C70.197753,29.5198887 70.4123903,28.8671272 70.7987006,28.3700538 C71.1823429,27.8754886 71.7662704,27.6217116 72.5452391,27.6217116 C73.194671,27.6217116 73.6895419,27.6943601 74.207873,27.8537209 C74.207873,27.8537209 74.3322578,27.9059454 74.3911381,27.7479282 C74.5285869,27.3756383 74.6307075,27.1092306 74.7773564,26.7000341 C74.8193087,26.5840294 74.7171881,26.5343131 74.6804798,26.5202492 C74.4762386,26.4424947 73.9944317,26.3163676 73.6304776,26.2627994 C73.2900755,26.211829 72.8920811,26.185045 72.4495585,26.185045 C71.7882586,26.185045 71.199179,26.2946895 70.6952,26.5139787 C70.192417,26.7319242 69.7656265,27.0327302 69.4278924,27.407618 C69.0900664,27.7824161 68.8334769,28.2310273 68.6619879,28.7384023 C68.4917869,29.2444336 68.4053983,29.8002707 68.4053983,30.387998 C68.4053983,31.6589436 68.7575764,32.6863241 69.4528246,33.4385183 C70.1492688,34.1932206 71.195407,34.5768871 72.5596832,34.5768871 C73.36616,34.5768871 74.1936129,34.4176158 74.7880285,34.1893687 C74.7880285,34.1893687 74.9019252,34.1358005 74.8521529,34.0071652 L74.4658425,32.9681394 L74.4658425,32.9681394 Z M77.219327,29.5433584 C77.2939394,29.0500473 77.4340563,28.6395072 77.6500736,28.3196209 C77.9761235,27.833924 78.4735705,27.5675163 79.1727747,27.5675163 C79.8719788,27.5675163 80.3340976,27.8351781 80.6652996,28.3196209 C80.8852729,28.6395072 80.9808615,29.0679631 81.0188577,29.5433584 L77.219327,29.5433584 Z M82.5178227,28.4584682 C82.3843299,27.9676653 82.0530359,27.4717565 81.8357306,27.2448531 C81.4926605,26.8853729 81.1575945,26.6342832 80.8250125,26.4940026 C80.3903099,26.3129636 79.8692188,26.1931966 79.2984474,26.1931966 C78.6333754,26.1931966 78.0297598,26.3015871 77.5401329,26.5258927 C77.049218,26.7502879 76.6368715,27.0562895 76.3133976,27.4374477 C75.9899237,27.8172623 75.7464902,28.269815 75.5919293,28.7835501 C75.4361723,29.2947769 75.3576039,29.8518682 75.3576039,30.4394163 C75.3576039,31.0373555 75.4388404,31.5944468 75.5998413,32.0953721 C75.7622223,32.6002388 76.0213878,33.0450877 76.3722779,33.4134362 C76.721788,33.784472 77.1722227,34.0751556 77.7116219,34.2776935 C78.2471571,34.4791565 78.897877,34.5836951 79.6453815,34.5823642 C81.1838147,34.5772454 81.9941555,34.2432952 82.3280255,34.0635103 C82.3869979,34.0317098 82.4433022,33.9756334 82.3724618,33.8150184 L82.0242397,32.8652132 C81.9719834,32.7237681 81.8239545,32.7759926 81.8239545,32.7759926 C81.4428882,32.9136754 80.901005,33.1610028 79.6374694,33.1584946 C78.8113965,33.1572405 78.1985809,32.9201251 77.8149386,32.5490892 C77.4209002,32.1692747 77.2284351,31.6108397 77.1943949,30.8230827 L82.5216867,30.8281887 C82.5216867,30.8281887 82.6617115,30.8256805 82.6762476,30.6930142 C82.6814916,30.6371169 82.8596047,29.627473 82.5178227,28.4584682 M34.5554521,29.5433584 C34.6313526,29.0500473 34.7701814,28.6395072 34.9861987,28.3196209 C35.3121566,27.833924 35.8096956,27.5675163 36.5088078,27.5675163 C37.2079199,27.5675163 37.6701307,27.8351781 38.0026207,28.3196209 C38.221214,28.6395072 38.3168026,29.0679631 38.3547988,29.5433584 L34.5554521,29.5433584 L34.5554521,29.5433584 Z M39.8525677,28.4584682 C39.7190749,27.9676653 39.389161,27.4717565 39.1718557,27.2448531 C38.8287856,26.8853729 38.4936276,26.6342832 38.1611376,26.4940026 C37.726435,26.3129636 37.2054359,26.1931966 36.6345725,26.1931966 C35.9707886,26.1931966 35.3658849,26.3015871 34.876258,26.5258927 C34.3853431,26.7502879 33.9729046,27.0562895 33.6495227,27.4374477 C33.3261408,27.8172623 33.0826153,28.269815 32.9281464,28.7835501 C32.7736775,29.2947769 32.693821,29.8518682 32.693821,30.4394163 C32.693821,31.0373555 32.7749655,31.5944468 32.9360584,32.0953721 C33.0984394,32.6002388 33.3576969,33.0450877 33.708495,33.4134362 C34.0580971,33.784472 34.5084398,34.0751556 35.047839,34.2776935 C35.5833742,34.4791565 36.2340021,34.5836951 36.9815986,34.5823642 C38.5199398,34.5772454 39.3303726,34.2432952 39.6642426,34.0635103 C39.723215,34.0317098 39.7794273,33.9756334 39.7087709,33.8150184 L39.3618368,32.8652132 C39.3081085,32.7237681 39.1602636,32.7759926 39.1602636,32.7759926 C38.7792893,32.9136754 38.2385101,33.1610028 36.9724905,33.1584946 C36.1477056,33.1572405 35.5349819,32.9201251 35.1513397,32.5490892 C34.7572093,32.1692747 34.5648362,31.6108397 34.5307039,30.8230827 L39.8579958,30.8281887 C39.8579958,30.8281887 39.9980206,30.8256805 40.0124647,30.6930142 C40.0175247,30.6371169 40.1955458,29.627473 39.8525677,28.4584682 M23.0405713,32.9397429 C22.8323741,32.7777842 22.8035779,32.7370258 22.7329215,32.6324872 C22.6281328,32.4731263 22.5744965,32.2462229 22.5744965,31.9581372 C22.5744965,31.5017326 22.7289654,31.1741425 23.0497714,30.9535992 C23.0459073,30.9549429 23.5080261,30.5648267 24.5946446,30.5788011 C25.3578811,30.589013 26.0399732,30.6986576 26.0399732,30.6986576 L26.0399732,33.0570017 L26.0412612,33.0570017 C26.0412612,33.0570017 25.3644132,33.1984468 24.6024646,33.2430571 C23.5184222,33.3068373 23.0366153,32.9384888 23.0405713,32.9397429 M25.160172,29.2951352 C24.9441547,29.2798172 24.663921,29.2708593 24.328763,29.2708593 C23.8718883,29.2708593 23.4306536,29.3269357 23.0169272,29.4353262 C22.6006247,29.5436271 22.2261824,29.7132896 21.9040885,29.9375056 C21.5824834,30.1610106 21.3181539,30.4537265 21.1316519,30.7928947 C20.9431428,31.1345486 20.8475542,31.537385 20.8475542,31.9886836 C20.8475542,32.4475963 20.9286987,32.8465808 21.0910797,33.1730064 C21.2534606,33.5005965 21.487786,33.7733642 21.7862358,33.9837851 C22.0821096,34.1941164 22.4474438,34.3482817 22.8715663,34.4413542 C23.2892488,34.5344267 23.7631436,34.5815452 24.2816587,34.5815452 C24.82759,34.5815452 25.3722332,34.5382786 25.8998564,34.4502225 C26.4222355,34.3635101 27.0637553,34.2372934 27.2417764,34.1978787 C27.3666109,34.1685899 27.4910084,34.1375625 27.6149306,34.1048062 C27.7472274,34.0730057 27.7367394,33.9352333 27.7367394,33.9352333 L27.7340713,29.1918507 C27.7340713,28.1515708 27.4486856,27.3802964 26.8870223,26.9023033 C26.3279349,26.4255643 25.504438,26.1845075 24.4400837,26.1845075 C24.0407093,26.1845075 23.3979014,26.2381652 23.0129711,26.313322 C23.0129711,26.313322 21.8490722,26.5326111 21.3698413,26.8971973 C21.3698413,26.8971973 21.2651447,26.9609775 21.322737,27.1037663 L21.6998473,28.090478 C21.7469516,28.2179488 21.8740043,28.1745926 21.8740043,28.1745926 C21.8740043,28.1745926 21.9145766,28.1592746 21.9617729,28.1324905 C22.986935,27.5894631 24.2830387,27.6060352 24.2830387,27.6060352 C24.8591462,27.6060352 25.3016688,27.718188 25.6001186,27.9412395 C25.8907483,28.1579309 26.0386852,28.485521 26.0386852,29.1764432 L26.0386852,29.3957324 C25.5804305,29.3320417 25.160172,29.2951352 25.160172,29.2951352 M68.1270967,26.6224588 C68.1675769,26.5051104 68.0825684,26.449034 68.0471482,26.4363138 C67.9568957,26.4019155 67.503885,26.308843 67.1542829,26.2871649 C66.4853469,26.2476606 66.1135726,26.3573052 65.7808987,26.5026022 C65.4509847,26.6478992 65.0844545,26.8824168 64.8801213,27.1489141 L64.8801213,26.5179202 C64.8801213,26.4299537 64.8159969,26.3598134 64.7269404,26.3598134 L63.3613762,26.3598134 C63.2724117,26.3598134 63.2082873,26.4298641 63.2082873,26.5179202 L63.2082873,34.2544926 C63.2082873,34.341205 63.2816117,34.4125994 63.3705763,34.4125994 L64.7701806,34.4125994 C64.8594273,34.412106 64.9314366,34.3413912 64.9311816,34.2544926 L64.9311816,30.3894312 C64.9311816,29.8705902 64.9901539,29.3530928 65.1080066,29.0280109 C65.2231913,28.7066914 65.3803283,28.4492416 65.5740814,28.2643507 C65.7691226,28.0808035 65.9903839,27.9520786 66.2326214,27.8794301 C66.4800108,27.8054379 66.7536205,27.7812516 66.9474656,27.7812516 C67.2263193,27.7812516 67.5326811,27.8513023 67.5326811,27.8513023 C67.6347097,27.8627684 67.6923941,27.801586 67.7263423,27.7111113 C67.8180668,27.4739959 68.0773244,26.7639039 68.1270967,26.6224588" id="Shape" fill="#FFFFFF"></path>
                <path d="M54.7598621,22.9770103 C54.586045,22.9234703 54.4282942,22.8872437 54.2223445,22.8484766 C54.01367,22.8110268 53.7650646,22.7922078 53.4830112,22.7922078 C52.4988306,22.7922078 51.7233246,23.070729 51.1792301,23.6196791 C50.6376725,24.1660887 50.2699319,24.9976061 50.0854039,26.0916485 L50.0185078,26.4598422 L48.7831851,26.4598422 C48.7831851,26.4598422 48.6334205,26.4544788 48.6012879,26.6179218 L48.3994721,27.7520487 C48.3847212,27.8592229 48.4316048,27.9274417 48.57592,27.9274417 L49.7779826,27.9274417 L48.5585383,34.7458468 C48.4635496,35.294891 48.3539039,35.7461706 48.2322319,36.0888645 C48.1131907,36.4263832 47.9969681,36.6794047 47.852559,36.8642072 C47.7135054,37.0410117 47.5824379,37.1721801 47.3550663,37.2484911 C47.1679076,37.3114407 46.9513409,37.3408924 46.7146678,37.3408924 C46.5836004,37.3408924 46.4085619,37.3193447 46.2788098,37.2926217 C46.150467,37.267122 46.0822555,37.2390816 45.9846361,37.1974917 C45.9846361,37.1974917 45.844267,37.1440457 45.7880818,37.2846236 C45.7439229,37.4011132 45.423066,38.2834419 45.3842625,38.3920275 C45.3468683,38.500425 45.4003288,38.5848282 45.4684463,38.6102338 C45.6289218,38.6665026 45.747869,38.7039524 45.965845,38.7561751 C46.2680989,38.8272168 46.5233751,38.8311688 46.7626789,38.8311688 C47.2627084,38.8311688 47.7199883,38.7602212 48.0984397,38.6236894 C48.4782066,38.4857461 48.8096805,38.2459921 49.1038541,37.9220231 C49.420765,37.5711429 49.6199499,37.2042665 49.8099273,36.7021757 C49.9984014,36.2066714 50.1602862,35.5907257 50.288535,34.8730632 L51.5146501,27.9274417 L53.3062815,27.9274417 C53.3062815,27.9274417 53.4572674,27.9328051 53.4881787,27.7681389 L53.6913098,26.6353294 C53.7047454,26.5269319 53.6592711,26.4599363 53.5134526,26.4599363 L51.7739664,26.4599363 C51.7833619,26.4211692 51.8621903,25.8077639 52.0614693,25.2307735 C52.1470624,24.9857501 52.3074439,24.7861747 52.4425515,24.6495487 C52.5763437,24.5156516 52.7300543,24.4206156 52.8986099,24.3656642 C53.0710177,24.3093954 53.2676659,24.2826724 53.4829172,24.2826724 C53.6460234,24.2826724 53.8077203,24.3013973 53.9293922,24.3268029 C54.0978539,24.3630295 54.1633406,24.3817544 54.2075935,24.39521 C54.3854507,24.44875 54.4094092,24.3965273 54.4442666,24.3109009 L54.8601122,23.1673645 C54.9028618,23.0439119 54.7972562,22.9916892 54.7598621,22.9770103 M30.4555359,34.7606197 C30.4555359,34.8517036 30.3900491,34.92538 30.2991005,34.92538 L28.8564187,34.92538 C28.7654701,34.92538 28.7012987,34.8517036 28.7012987,34.7606197 L28.7012987,23.1323612 C28.7012987,23.0413713 28.7654701,22.9676949 28.8564187,22.9676949 L30.2991005,22.9676949 C30.3900491,22.9676949 30.4555359,23.0413713 30.4555359,23.1323612 L30.4555359,34.7606197 Z" id="Shape" fill="#FFFFFF"></path>
            </g>
            <g id="university.logo.large.horizontal.blue" transform="translate(310.000000, 450.000000)" fill="#212F57">
                <path d="M75.986,31.271 C75.986,30.504 75.961,29.078 75.75,28.707 C75.662,28.557 75.439,28.471 75.131,28.445 L74.82,28.422 C74.746,28.334 74.771,28.174 74.845,28.123 C75.316,28.148 75.775,28.16 76.257,28.16 C76.779,28.16 77.113,28.148 77.56,28.123 C77.658,28.186 77.646,28.346 77.584,28.422 L77.287,28.445 C76.976,28.471 76.742,28.582 76.666,28.744 C76.494,29.152 76.494,30.576 76.494,31.271 L76.494,32.674 C76.494,33.751 76.32,34.891 75.625,35.633 C75.093,36.217 74.175,36.539 73.259,36.539 C72.404,36.539 71.549,36.377 70.941,35.857 C70.285,35.313 69.974,34.408 69.974,32.934 L69.974,30.008 C69.974,28.719 69.951,28.508 69.23,28.445 L68.922,28.422 C68.847,28.371 68.873,28.16 68.947,28.123 C69.566,28.148 69.988,28.16 70.482,28.16 C70.992,28.16 71.4,28.148 72.007,28.123 C72.082,28.16 72.107,28.371 72.033,28.422 L71.734,28.445 C71.015,28.508 70.992,28.719 70.992,30.008 L70.992,32.686 C70.992,34.68 71.611,35.992 73.507,35.992 C75.304,35.992 75.986,34.582 75.986,32.697 L75.986,31.271" id="Fill-1"></path>
                <path d="M92.179,34.234 C92.179,34.605 92.179,36.08 92.216,36.402 C92.191,36.477 92.117,36.539 91.98,36.539 C91.833,36.328 91.472,35.895 90.396,34.668 L87.519,31.397 C87.185,31.012 86.343,29.996 86.081,29.723 L86.058,29.723 C86.007,29.871 85.995,30.158 85.995,30.527 L85.995,33.229 C85.995,33.813 86.007,35.424 86.218,35.795 C86.292,35.932 86.54,36.006 86.851,36.029 L87.234,36.068 C87.308,36.166 87.296,36.315 87.21,36.377 C86.652,36.354 86.218,36.34 85.759,36.34 C85.24,36.34 84.906,36.354 84.47,36.377 C84.384,36.315 84.372,36.143 84.447,36.068 L84.781,36.029 C85.066,35.992 85.265,35.918 85.325,35.781 C85.499,35.339 85.488,33.824 85.488,33.229 L85.488,29.648 C85.488,29.301 85.476,29.041 85.214,28.756 C85.04,28.582 84.743,28.496 84.447,28.459 L84.236,28.434 C84.161,28.359 84.161,28.174 84.259,28.123 C84.781,28.16 85.439,28.16 85.659,28.16 C85.859,28.16 86.07,28.148 86.23,28.123 C86.478,28.756 87.941,30.393 88.349,30.85 L89.552,32.201 C90.408,33.154 91.015,33.85 91.597,34.445 L91.622,34.445 C91.671,34.383 91.671,34.184 91.671,33.924 L91.671,31.271 C91.671,30.69 91.659,29.078 91.423,28.707 C91.349,28.594 91.15,28.52 90.654,28.459 L90.445,28.434 C90.359,28.359 90.37,28.16 90.47,28.123 C91.038,28.148 91.46,28.16 91.931,28.16 C92.464,28.16 92.786,28.148 93.206,28.123 C93.306,28.186 93.306,28.359 93.232,28.434 L93.06,28.459 C92.663,28.52 92.415,28.619 92.365,28.719 C92.154,29.166 92.179,30.701 92.179,31.271 L92.179,34.234" id="Fill-2"></path>
                <path d="M101.41,30.045 C101.41,28.731 101.385,28.52 100.654,28.459 L100.344,28.434 C100.269,28.383 100.295,28.16 100.369,28.123 C100.988,28.148 101.41,28.16 101.93,28.16 C102.426,28.16 102.847,28.148 103.467,28.123 C103.541,28.16 103.563,28.383 103.49,28.434 L103.181,28.459 C102.451,28.52 102.426,28.731 102.426,30.045 L102.426,34.457 C102.426,35.77 102.451,35.943 103.181,36.029 L103.49,36.068 C103.563,36.117 103.541,36.34 103.467,36.377 C102.847,36.354 102.426,36.34 101.93,36.34 C101.41,36.34 100.988,36.354 100.369,36.377 C100.295,36.34 100.269,36.143 100.344,36.068 L100.654,36.029 C101.385,35.943 101.41,35.77 101.41,34.457 L101.41,30.045" id="Fill-3"></path>
                <path d="M111.444,29.475 C111.16,28.781 110.974,28.52 110.441,28.459 L110.218,28.434 C110.133,28.359 110.144,28.186 110.244,28.123 C110.603,28.148 110.998,28.16 111.531,28.16 C112.078,28.16 112.511,28.148 113.031,28.123 C113.119,28.174 113.144,28.359 113.056,28.434 L112.871,28.459 C112.399,28.52 112.3,28.594 112.287,28.693 C112.312,28.818 112.522,29.488 112.908,30.43 C113.478,31.867 114.049,33.291 114.668,34.705 C115.05,33.887 115.572,32.611 115.856,31.953 C116.216,31.111 116.799,29.711 117.009,29.178 C117.108,28.918 117.121,28.781 117.121,28.693 C117.121,28.607 116.998,28.508 116.563,28.459 L116.34,28.434 C116.254,28.359 116.278,28.174 116.365,28.123 C116.713,28.148 117.183,28.16 117.653,28.16 C118.063,28.16 118.447,28.148 118.854,28.123 C118.942,28.174 118.942,28.371 118.881,28.434 L118.509,28.459 C118.213,28.482 118.024,28.633 117.865,28.893 C117.517,29.475 117.035,30.48 116.476,31.742 L115.808,33.266 C115.312,34.408 114.729,35.844 114.519,36.502 C114.481,36.525 114.431,36.539 114.383,36.539 C114.319,36.539 114.258,36.525 114.197,36.502 C114.06,35.981 113.838,35.375 113.627,34.854 L111.444,29.475" id="Fill-4"></path>
                <path d="M126.363,30.022 C126.363,28.731 126.338,28.545 125.608,28.46 L125.41,28.434 C125.336,28.383 125.36,28.16 125.435,28.123 C125.968,28.148 126.388,28.16 126.896,28.16 L129.226,28.16 C130.019,28.16 130.752,28.16 130.899,28.123 C130.974,28.335 131.049,29.227 131.099,29.773 C131.049,29.848 130.851,29.871 130.789,29.797 C130.603,29.215 130.492,28.781 129.845,28.619 C129.586,28.557 129.188,28.545 128.644,28.545 L127.752,28.545 C127.381,28.545 127.381,28.57 127.381,29.041 L127.381,31.52 C127.381,31.867 127.418,31.867 127.789,31.867 L128.509,31.867 C129.026,31.867 129.412,31.842 129.56,31.793 C129.711,31.742 129.797,31.668 129.858,31.357 L129.959,30.85 C130.019,30.775 130.229,30.775 130.281,30.861 C130.281,31.16 130.229,31.645 130.229,32.115 C130.229,32.561 130.281,33.033 130.281,33.303 C130.229,33.391 130.019,33.391 129.959,33.316 L129.845,32.835 C129.797,32.611 129.711,32.426 129.463,32.363 C129.289,32.313 128.99,32.301 128.509,32.301 L127.789,32.301 C127.418,32.301 127.381,32.313 127.381,32.637 L127.381,34.383 C127.381,35.039 127.418,35.461 127.615,35.67 C127.765,35.818 128.024,35.955 129.115,35.955 C130.069,35.955 130.429,35.906 130.703,35.77 C130.925,35.647 131.259,35.213 131.58,34.568 C131.668,34.506 131.842,34.543 131.89,34.656 C131.804,35.09 131.494,36.043 131.332,36.377 C130.218,36.354 129.115,36.34 128.013,36.34 L126.896,36.34 C126.363,36.34 125.942,36.354 125.211,36.377 C125.136,36.34 125.113,36.143 125.187,36.068 L125.595,36.029 C126.301,35.969 126.363,35.781 126.363,34.482 L126.363,30.022" id="Fill-5"></path>
                <path d="M140.811,31.805 C140.811,32.027 140.811,32.164 140.847,32.215 C140.884,32.252 141.07,32.275 141.703,32.275 C142.15,32.275 142.621,32.227 142.979,31.953 C143.313,31.693 143.598,31.26 143.598,30.418 C143.598,29.438 142.992,28.508 141.615,28.508 C140.847,28.508 140.811,28.557 140.811,28.904 L140.811,31.805 Z M139.794,30.034 C139.794,28.856 139.757,28.645 139.249,28.582 L138.852,28.534 C138.765,28.471 138.765,28.271 138.865,28.223 C139.558,28.16 140.414,28.123 141.628,28.123 C142.398,28.123 143.127,28.186 143.697,28.496 C144.293,28.805 144.728,29.363 144.728,30.232 C144.728,31.409 143.797,32.053 143.178,32.301 C143.115,32.375 143.178,32.5 143.238,32.6 C144.23,34.197 144.889,35.19 145.73,35.895 C145.941,36.08 146.252,36.217 146.586,36.24 C146.648,36.266 146.66,36.365 146.598,36.414 C146.486,36.451 146.287,36.477 146.053,36.477 C145,36.477 144.367,36.166 143.488,34.916 C143.164,34.457 142.658,33.602 142.273,33.045 C142.087,32.771 141.888,32.648 141.393,32.648 C140.833,32.648 140.811,32.66 140.811,32.922 L140.811,34.482 C140.811,35.781 140.833,35.932 141.554,36.029 L141.814,36.068 C141.888,36.129 141.865,36.34 141.79,36.377 C141.232,36.354 140.811,36.34 140.314,36.34 C139.794,36.34 139.347,36.354 138.765,36.377 C138.691,36.34 138.665,36.154 138.74,36.068 L139.05,36.029 C139.77,35.943 139.794,35.781 139.794,34.482 L139.794,30.034 L139.794,30.034 Z" id="Fill-6"></path>
                <path d="M154.771,36.539 C153.73,36.539 153.072,36.217 152.838,36.08 C152.689,35.807 152.529,34.928 152.504,34.346 C152.566,34.258 152.752,34.234 152.803,34.31 C152.986,34.941 153.494,36.154 154.934,36.154 C155.973,36.154 156.482,35.476 156.482,34.731 C156.482,34.185 156.369,33.576 155.467,32.996 L154.289,32.228 C153.668,31.816 152.949,31.111 152.949,30.096 C152.949,28.918 153.867,27.963 155.479,27.963 C155.861,27.963 156.307,28.037 156.631,28.123 C156.791,28.174 156.965,28.197 157.064,28.197 C157.176,28.496 157.287,29.19 157.287,29.711 C157.238,29.785 157.039,29.822 156.979,29.748 C156.816,29.152 156.482,28.346 155.293,28.346 C154.078,28.346 153.816,29.152 153.816,29.723 C153.816,30.443 154.412,30.961 154.871,31.246 L155.861,31.867 C156.643,32.351 157.412,33.068 157.412,34.246 C157.412,35.609 156.383,36.539 154.771,36.539" id="Fill-7"></path>
                <path d="M165.834,30.045 C165.834,28.731 165.811,28.52 165.08,28.459 L164.77,28.434 C164.695,28.383 164.721,28.16 164.795,28.123 C165.416,28.148 165.834,28.16 166.355,28.16 C166.852,28.16 167.273,28.148 167.895,28.123 C167.969,28.16 167.994,28.383 167.918,28.434 L167.607,28.459 C166.877,28.52 166.852,28.731 166.852,30.045 L166.852,34.457 C166.852,35.77 166.877,35.943 167.607,36.029 L167.918,36.068 C167.994,36.117 167.969,36.34 167.895,36.377 C167.273,36.354 166.852,36.34 166.355,36.34 C165.834,36.34 165.416,36.354 164.795,36.377 C164.721,36.34 164.695,36.143 164.77,36.068 L165.08,36.029 C165.811,35.943 165.834,35.77 165.834,34.457 L165.834,30.045" id="Fill-8"></path>
                <path d="M179.594,34.482 C179.594,35.781 179.617,35.969 180.336,36.029 L180.734,36.068 C180.809,36.117 180.782,36.34 180.709,36.377 C180.002,36.354 179.58,36.34 179.084,36.34 C178.588,36.34 178.156,36.354 177.361,36.377 C177.287,36.34 177.264,36.128 177.361,36.068 L177.809,36.029 C178.514,35.969 178.576,35.781 178.576,34.482 L178.576,28.941 C178.576,28.557 178.576,28.545 178.205,28.545 L177.523,28.545 C176.989,28.545 176.309,28.57 175.998,28.856 C175.703,29.128 175.578,29.4 175.441,29.711 C175.344,29.785 175.168,29.723 175.119,29.625 C175.318,29.066 175.504,28.271 175.59,27.777 C175.629,27.753 175.789,27.74 175.826,27.777 C175.898,28.174 176.309,28.16 176.879,28.16 L181.898,28.16 C182.568,28.16 182.68,28.137 182.864,27.815 C182.928,27.791 183.064,27.803 183.088,27.852 C182.951,28.359 182.864,29.363 182.902,29.736 C182.854,29.834 182.643,29.834 182.58,29.76 C182.543,29.451 182.455,28.992 182.27,28.856 C181.984,28.645 181.514,28.545 180.832,28.545 L179.953,28.545 C179.58,28.545 179.594,28.557 179.594,28.967 L179.594,34.482" id="Fill-9"></path>
                <path d="M193.717,34.457 C193.717,35.781 193.791,35.981 194.461,36.029 L194.934,36.068 C195.008,36.143 194.982,36.34 194.908,36.377 C194.139,36.353 193.717,36.34 193.223,36.34 C192.701,36.34 192.256,36.353 191.598,36.377 C191.523,36.34 191.498,36.143 191.572,36.068 L191.959,36.029 C192.678,35.955 192.701,35.781 192.701,34.457 L192.701,33.824 C192.701,33.143 192.664,32.982 192.305,32.289 L190.844,29.437 C190.422,28.619 190.236,28.557 189.863,28.496 L189.516,28.434 C189.441,28.346 189.455,28.174 189.541,28.123 C189.938,28.148 190.385,28.16 190.98,28.16 C191.549,28.16 191.994,28.148 192.305,28.123 C192.416,28.16 192.416,28.359 192.342,28.434 L192.182,28.459 C191.748,28.52 191.66,28.582 191.66,28.682 C191.66,28.805 191.982,29.512 192.045,29.637 C192.504,30.553 192.963,31.531 193.447,32.389 C193.828,31.731 194.238,31.012 194.609,30.293 C194.957,29.648 195.416,28.805 195.416,28.656 C195.416,28.582 195.193,28.496 194.895,28.459 L194.672,28.434 C194.586,28.346 194.598,28.174 194.697,28.123 C195.143,28.148 195.504,28.16 195.887,28.16 C196.27,28.16 196.617,28.148 197.039,28.123 C197.139,28.186 197.15,28.359 197.064,28.434 L196.717,28.496 C196.074,28.607 195.701,29.389 195.082,30.455 L194.301,31.805 C193.754,32.748 193.717,32.859 193.717,33.812 L193.717,34.457" id="Fill-10"></path>
                <path d="M14.489,22.731 C13.861,22.488 13.218,22.297 12.565,22.156 C12.425,22.607 12.24,23.045 12.015,23.465 C12.537,23.574 13.054,23.721 13.559,23.908 C13.921,23.563 14.234,23.166 14.489,22.731 L14.489,22.731 Z M6.103,23.908 C6.604,23.723 7.117,23.574 7.64,23.467 C7.413,23.045 7.227,22.607 7.088,22.158 C6.437,22.299 5.798,22.49 5.172,22.731 C5.427,23.166 5.741,23.563 6.103,23.908 L6.103,23.908 Z M5.172,17.282 C5.798,17.523 6.437,17.715 7.088,17.856 C7.227,17.407 7.413,16.97 7.638,16.549 C7.117,16.44 6.604,16.294 6.103,16.106 C5.741,16.452 5.427,16.849 5.172,17.282 L5.172,17.282 Z M13.559,16.106 C13.054,16.294 12.54,16.441 12.015,16.551 C12.242,16.972 12.425,17.407 12.565,17.857 C13.218,17.717 13.861,17.525 14.489,17.282 C14.234,16.849 13.921,16.452 13.559,16.106 L13.559,16.106 Z M15.219,19.753 C15.186,19.035 15.015,18.355 14.726,17.736 C14.066,17.995 13.389,18.2 12.702,18.349 C12.81,18.808 12.873,19.277 12.889,19.753 L15.219,19.753 Z M12.702,21.666 C13.389,21.815 14.066,22.02 14.726,22.277 C15.015,21.66 15.186,20.979 15.219,20.262 L12.889,20.262 C12.873,20.736 12.81,21.207 12.702,21.666 L12.702,21.666 Z M12.203,21.566 C12.303,21.141 12.365,20.703 12.381,20.262 L10.085,20.262 L10.085,21.359 C10.8,21.373 11.508,21.441 12.203,21.566 L12.203,21.566 Z M11.489,23.369 C11.726,22.949 11.917,22.51 12.063,22.059 C11.412,21.945 10.753,21.883 10.085,21.869 L10.085,23.244 C10.554,23.256 11.024,23.297 11.489,23.369 L11.489,23.369 Z M10.605,25.348 C11.541,25.211 12.396,24.838 13.113,24.289 C12.667,24.137 12.209,24.016 11.748,23.928 C11.427,24.436 11.046,24.912 10.605,25.348 L10.605,25.348 Z M11.194,23.838 C10.827,23.789 10.456,23.764 10.085,23.752 L10.085,25.141 C10.51,24.742 10.882,24.307 11.194,23.838 L11.194,23.838 Z M7.906,23.93 C7.446,24.018 6.993,24.137 6.548,24.289 C7.261,24.836 8.115,25.21 9.047,25.346 C8.607,24.91 8.226,24.436 7.906,23.93 L7.906,23.93 Z M8.458,23.842 C8.773,24.311 9.147,24.748 9.575,25.148 L9.575,23.752 C9.203,23.764 8.828,23.791 8.458,23.842 L8.458,23.842 Z M7.593,22.059 C7.737,22.512 7.928,22.951 8.166,23.369 C8.633,23.297 9.104,23.256 9.575,23.244 L9.575,21.869 C8.906,21.883 8.244,21.947 7.593,22.059 L7.593,22.059 Z M7.452,21.566 C8.149,21.441 8.858,21.373 9.575,21.359 L9.575,20.262 L7.272,20.262 C7.29,20.703 7.348,21.141 7.452,21.566 L7.452,21.566 Z M4.442,20.262 C4.475,20.981 4.646,21.66 4.934,22.277 C5.593,22.02 6.265,21.816 6.952,21.666 C6.843,21.207 6.78,20.736 6.764,20.262 L4.442,20.262 Z M6.952,18.349 C6.265,18.197 5.593,17.995 4.934,17.736 C4.646,18.355 4.475,19.035 4.442,19.753 L6.764,19.753 C6.78,19.277 6.843,18.808 6.952,18.349 L6.952,18.349 Z M7.45,18.445 C7.348,18.874 7.288,19.312 7.272,19.753 L9.575,19.753 L9.575,18.652 C8.858,18.642 8.148,18.57 7.45,18.445 L7.45,18.445 Z M8.164,16.648 C7.926,17.064 7.737,17.502 7.591,17.954 C8.244,18.066 8.906,18.133 9.575,18.146 L9.575,16.773 C9.101,16.761 8.628,16.72 8.164,16.648 L8.164,16.648 Z M9.047,14.669 C8.115,14.804 7.261,15.179 6.548,15.726 C6.993,15.877 7.446,15.997 7.906,16.083 C8.226,15.579 8.607,15.103 9.047,14.669 L9.047,14.669 Z M8.458,16.174 C8.828,16.224 9.203,16.252 9.575,16.261 L9.575,14.866 C9.147,15.265 8.773,15.704 8.458,16.174 L8.458,16.174 Z M11.748,16.085 C12.209,15.997 12.667,15.877 13.113,15.726 C12.396,15.176 11.541,14.801 10.605,14.667 C11.046,15.101 11.427,15.579 11.748,16.085 L11.748,16.085 Z M11.195,16.174 C10.882,15.708 10.51,15.271 10.085,14.874 L10.085,16.261 C10.456,16.252 10.827,16.226 11.195,16.174 L11.195,16.174 Z M12.063,17.956 C11.919,17.504 11.728,17.065 11.491,16.648 C11.028,16.72 10.557,16.761 10.085,16.773 L10.085,18.146 C10.753,18.133 11.412,18.066 12.063,17.956 L12.063,17.956 Z M10.085,19.753 L12.381,19.753 C12.365,19.312 12.304,18.876 12.203,18.447 C11.508,18.57 10.8,18.642 10.085,18.652 L10.085,19.753 Z M9.83,14.096 C6.571,14.096 3.919,16.747 3.919,20.007 C3.919,23.268 6.571,25.919 9.83,25.919 C13.09,25.919 15.742,23.268 15.742,20.007 C15.742,16.747 13.09,14.096 9.83,14.096 L9.83,14.096 Z M16.761,11.114 C11.314,11.166 5.875,11.75 0.572,12.877 C2.91,27.684 12.163,34.895 16.761,37.434 L16.761,11.114 L16.761,11.114 Z" id="Fill-11"></path>
                <path d="M17.52,2.589 C14.878,1.617 11.096,1.406 8.796,1.888 L7.794,2.667 L7.526,2.708 C7.435,2.719 7.364,2.783 7.334,2.84 L4.539,9.021 C4.449,9.192 4.588,9.337 4.75,9.307 C9.005,8.498 13.519,8.249 17.522,8.249 L17.526,8.249 C21.529,8.249 26.044,8.498 30.299,9.307 C30.46,9.337 30.603,9.192 30.512,9.021 L27.714,2.84 C27.685,2.783 27.613,2.719 27.523,2.708 L27.254,2.667 L26.252,1.888 C23.954,1.406 20.169,1.617 17.528,2.589 L17.52,2.589 Z M0.026,5.695 L0.024,2.657 C0.024,2.246 0.311,1.901 0.691,1.805 L0.712,1.799 C6.134,0.64 11.758,0.024 17.524,0.024 C23.284,0.024 28.9,0.637 34.314,1.794 L34.328,1.799 C34.725,1.881 35.024,2.235 35.024,2.657 L35.023,5.695 C35.023,7.692 34.902,9.574 34.687,11.357 C23.449,8.984 11.621,8.983 0.364,11.361 C0.147,9.576 0.026,7.693 0.026,5.695 L0.026,5.695 Z" id="Fill-12"></path>
                <path d="M17.311,7.403 C13.866,6.274 9.916,6.104 7.105,6.635 L8.496,2.684 L7.572,3.383 L5.657,8.372 C8.212,7.957 13.986,7.49 16.846,7.529 C16.962,7.477 17.105,7.403 17.311,7.403" id="Fill-13"></path>
                <path d="M17.695,7.403 C21.14,6.274 25.095,6.104 27.906,6.635 L26.511,2.684 L27.434,3.383 L29.351,8.372 C26.795,7.957 21.021,7.49 18.16,7.529 C18.045,7.477 17.902,7.403 17.695,7.403" id="Fill-14"></path>
                <path d="M18.288,22.258 L18.288,37.432 C19.212,36.924 20.323,36.221 21.528,35.313 L21.528,24.414 L18.288,22.258" id="Fill-15"></path>
                <path d="M21.528,11.212 C20.449,11.161 19.368,11.124 18.289,11.114 L18.289,14.715 L21.528,16.87 L21.528,11.212" id="Fill-16"></path>
                <path d="M28.007,21.184 L28.007,11.787 C26.931,11.649 25.852,11.524 24.769,11.429 L24.769,19.025 L28.007,21.184" id="Fill-17"></path>
                <path d="M24.769,26.57 L24.769,32.498 C25.858,31.416 26.956,30.162 28.007,28.736 L28.007,28.727 L24.769,26.57" id="Fill-18"></path>
                <polyline id="Fill-19" points="28.007 28.736 28.013 28.731 28.007 28.727 28.007 28.736"></polyline>
                <path d="M31.254,23.344 C32.686,20.377 33.84,16.911 34.479,12.873 C33.405,12.645 32.329,12.443 31.245,12.262 L31.245,23.338 L31.254,23.344" id="Fill-20"></path>
                <polyline id="Fill-21" points="21.528 16.872 21.528 24.413 24.769 26.57 24.769 19.025 21.528 16.872"></polyline>
                <path d="M31.246,23.338 L28.007,21.184 L28.007,28.727 L28.014,28.731 C29.17,27.162 30.271,25.375 31.246,23.361 L31.246,23.338" id="Fill-22"></path>
                <path d="M31.246,23.361 C31.248,23.356 31.251,23.35 31.254,23.344 L31.246,23.339 L31.246,23.361" id="Fill-23"></path>
                <path d="M48.148,5.91 C48.148,2.752 47.863,2.41 46.185,2.267 L45.474,2.211 C45.302,2.097 45.361,1.586 45.531,1.5 C47.182,1.556 48.148,1.586 49.342,1.586 C50.48,1.586 51.448,1.556 52.585,1.5 C52.757,1.586 52.814,2.097 52.642,2.211 L52.217,2.267 C50.539,2.496 50.48,2.894 50.48,5.91 L50.48,16.465 C50.48,18.711 50.367,20.674 49.827,21.982 C48.887,24.26 46.868,26.08 44.223,26.08 C43.881,26.08 43,26.052 43,25.482 C43,24.999 43.425,24.174 44.022,24.174 C44.364,24.174 44.706,24.231 45.076,24.344 C45.474,24.459 45.873,24.543 46.27,24.543 C46.868,24.543 47.21,24.203 47.408,23.806 C48.062,22.467 48.148,18.199 48.148,16.664 L48.148,5.91" id="Fill-24"></path>
                <path d="M67.055,13.113 C67.055,9.154 65.302,4.882 60.718,4.882 C58.222,4.882 54.983,6.586 54.983,11.842 C54.983,15.392 56.711,20.002 61.439,20.002 C64.319,20.002 67.055,17.842 67.055,13.113 M52.581,12.61 C52.581,7.811 56.183,4.137 61.126,4.137 C66.67,4.137 69.455,8.146 69.455,12.37 C69.455,17.217 65.759,20.746 61.126,20.746 C55.798,20.746 52.581,16.929 52.581,12.61" id="Fill-25"></path>
                <path d="M74.907,12.61 C73.756,12.61 73.707,12.658 73.707,13.378 L73.707,16.761 C73.707,19.281 73.828,19.617 75.171,19.762 L75.867,19.834 C76.011,19.93 75.963,20.361 75.818,20.434 C74.521,20.385 73.707,20.361 72.77,20.361 C71.739,20.361 70.924,20.41 69.987,20.434 C69.843,20.361 69.796,19.978 69.939,19.834 L70.347,19.762 C71.689,19.523 71.739,19.281 71.739,16.761 L71.739,8.122 C71.739,5.602 71.572,5.193 70.322,5.097 L69.698,5.049 C69.555,4.954 69.604,4.521 69.747,4.449 C70.924,4.474 71.739,4.521 72.77,4.521 C73.707,4.521 74.521,4.498 75.554,4.449 C75.699,4.521 75.748,4.954 75.601,5.049 L75.146,5.097 C73.756,5.242 73.707,5.602 73.707,8.122 L73.707,10.881 C73.707,11.626 73.756,11.65 74.907,11.65 L81.771,11.65 C82.923,11.65 82.971,11.626 82.971,10.881 L82.971,8.122 C82.971,5.602 82.923,5.242 81.508,5.097 L81.051,5.049 C80.906,4.954 80.955,4.521 81.099,4.449 C82.202,4.498 83.017,4.521 84.004,4.521 C84.938,4.521 85.756,4.498 86.836,4.449 C86.977,4.521 87.026,4.954 86.885,5.049 L86.379,5.097 C84.987,5.242 84.938,5.602 84.938,8.122 L84.938,16.761 C84.938,19.281 84.987,19.594 86.379,19.762 L86.954,19.834 C87.098,19.93 87.05,20.361 86.907,20.434 C85.756,20.385 84.938,20.361 84.004,20.361 C83.017,20.361 82.155,20.385 81.099,20.434 C80.955,20.361 80.906,19.978 81.051,19.834 L81.508,19.762 C82.971,19.523 82.971,19.281 82.971,16.761 L82.971,13.378 C82.971,12.658 82.923,12.61 81.771,12.61 L74.907,12.61" id="Fill-26"></path>
                <path d="M103.348,16.281 C103.348,17.002 103.348,19.858 103.419,20.482 C103.372,20.625 103.229,20.746 102.965,20.746 C102.676,20.338 101.98,19.498 99.891,17.124 L94.324,10.785 C93.677,10.043 92.043,8.074 91.54,7.546 L91.492,7.546 C91.396,7.835 91.372,8.385 91.372,9.105 L91.372,14.338 C91.372,15.465 91.396,18.585 91.804,19.305 C91.949,19.57 92.428,19.714 93.028,19.762 L93.771,19.834 C93.917,20.026 93.892,20.315 93.724,20.434 C92.645,20.386 91.804,20.361 90.915,20.361 C89.909,20.361 89.261,20.386 88.419,20.434 C88.251,20.315 88.228,19.978 88.372,19.834 L89.021,19.762 C89.573,19.69 89.955,19.547 90.077,19.281 C90.412,18.418 90.389,15.49 90.389,14.338 L90.389,7.402 C90.389,6.73 90.364,6.225 89.86,5.674 C89.524,5.338 88.949,5.17 88.372,5.097 L87.965,5.05 C87.821,4.906 87.821,4.546 88.012,4.449 C89.021,4.521 90.293,4.521 90.724,4.521 C91.109,4.521 91.517,4.497 91.829,4.449 C92.309,5.674 95.141,8.842 95.931,9.73 L98.26,12.344 C99.916,14.193 101.091,15.537 102.219,16.69 L102.268,16.69 C102.364,16.57 102.364,16.186 102.364,15.681 L102.364,10.545 C102.364,9.419 102.34,6.298 101.884,5.578 C101.74,5.361 101.357,5.217 100.397,5.097 L99.989,5.05 C99.821,4.906 99.844,4.521 100.035,4.449 C101.14,4.497 101.956,4.521 102.868,4.521 C103.9,4.521 104.525,4.497 105.34,4.449 C105.532,4.569 105.532,4.906 105.389,5.05 L105.051,5.097 C104.285,5.217 103.804,5.41 103.706,5.601 C103.301,6.466 103.348,9.441 103.348,10.545 L103.348,16.281" id="Fill-27"></path>
                <path d="M109.693,20.746 C107.676,20.746 106.404,20.122 105.947,19.858 C105.661,19.33 105.348,17.626 105.299,16.498 C105.421,16.33 105.78,16.281 105.876,16.426 C106.236,17.649 107.22,20.002 110.003,20.002 C112.019,20.002 113.005,18.682 113.005,17.241 C113.005,16.185 112.788,15.009 111.035,13.882 L108.756,12.393 C107.555,11.601 106.164,10.232 106.164,8.266 C106.164,5.985 107.94,4.138 111.058,4.138 C111.804,4.138 112.669,4.282 113.292,4.449 C113.603,4.546 113.938,4.594 114.13,4.594 C114.347,5.17 114.563,6.514 114.563,7.522 C114.468,7.666 114.084,7.736 113.963,7.594 C113.652,6.441 113.005,4.882 110.7,4.882 C108.348,4.882 107.844,6.441 107.844,7.546 C107.844,8.937 108.996,9.946 109.883,10.498 L111.804,11.697 C113.316,12.634 114.804,14.025 114.804,16.306 C114.804,18.945 112.811,20.746 109.693,20.746" id="Fill-28"></path>
                <path d="M129.048,11.173 C127.683,11.173 127.625,11.23 127.625,12.083 L127.625,16.095 C127.625,19.082 127.769,19.481 129.36,19.651 L130.187,19.736 C130.356,19.85 130.299,20.361 130.13,20.447 C128.595,20.389 127.625,20.361 126.518,20.361 C125.293,20.361 124.325,20.418 123.217,20.447 C123.045,20.361 122.988,19.907 123.16,19.736 L123.644,19.651 C125.236,19.367 125.293,19.082 125.293,16.095 L125.293,5.853 C125.293,2.865 125.092,2.382 123.615,2.268 L122.875,2.211 C122.705,2.098 122.761,1.586 122.933,1.5 C124.325,1.528 125.293,1.586 126.518,1.586 C127.625,1.586 128.595,1.557 129.816,1.5 C129.987,1.586 130.044,2.098 129.872,2.211 L129.331,2.268 C127.683,2.44 127.625,2.865 127.625,5.853 L127.625,9.125 C127.625,10.007 127.683,10.034 129.048,10.034 L137.185,10.034 C138.551,10.034 138.606,10.007 138.606,9.125 L138.606,5.853 C138.606,2.865 138.551,2.44 136.87,2.268 L136.33,2.211 C136.159,2.098 136.216,1.586 136.389,1.5 C137.695,1.557 138.663,1.586 139.83,1.586 C140.939,1.586 141.906,1.557 143.188,1.5 C143.357,1.586 143.414,2.098 143.242,2.211 L142.646,2.268 C140.996,2.44 140.939,2.865 140.939,5.853 L140.939,16.095 C140.939,19.082 140.996,19.451 142.646,19.651 L143.328,19.736 C143.499,19.85 143.442,20.361 143.271,20.447 C141.906,20.389 140.939,20.361 139.83,20.361 C138.663,20.361 137.64,20.389 136.389,20.447 C136.216,20.361 136.159,19.907 136.33,19.736 L136.87,19.651 C138.606,19.367 138.606,19.082 138.606,16.095 L138.606,12.083 C138.606,11.23 138.551,11.173 137.185,11.173 L129.048,11.173" id="Fill-29"></path>
                <path d="M157.622,13.113 C157.622,9.154 155.869,4.882 151.284,4.882 C148.79,4.882 145.55,6.586 145.55,11.842 C145.55,15.392 147.277,20.002 152.006,20.002 C154.887,20.002 157.622,17.842 157.622,13.113 M143.148,12.61 C143.148,7.811 146.75,4.137 151.693,4.137 C157.236,4.137 160.021,8.146 160.021,12.37 C160.021,17.217 156.325,20.746 151.693,20.746 C146.365,20.746 143.148,16.929 143.148,12.61" id="Fill-30"></path>
                <path d="M164.365,16.762 C164.365,19.281 164.414,19.594 165.947,19.762 L166.597,19.834 C166.74,19.953 166.693,20.361 166.55,20.434 C165.181,20.385 164.39,20.361 163.429,20.361 C162.421,20.361 161.557,20.385 160.502,20.434 C160.357,20.361 160.309,19.978 160.454,19.834 L160.957,19.762 C162.349,19.57 162.396,19.281 162.396,16.762 L162.396,7.907 C162.396,5.866 162.349,5.457 161.269,5.338 L160.405,5.242 C160.237,5.098 160.262,4.738 160.454,4.642 C161.725,4.474 163.213,4.449 165.206,4.449 C167.196,4.449 168.685,4.713 169.813,5.41 C170.917,6.107 171.732,7.354 171.732,9.01 C171.732,11.218 170.365,12.322 169.333,12.826 C168.276,13.33 167.006,13.546 166.021,13.546 C165.853,13.474 165.853,13.114 165.997,13.067 C168.589,12.586 169.524,11.122 169.524,9.033 C169.524,6.705 168.157,5.194 165.662,5.194 C164.39,5.194 164.365,5.289 164.365,6.059 L164.365,16.762" id="Fill-31"></path>
                <path d="M174.352,8.121 C174.352,5.601 174.302,5.217 172.911,5.098 L172.311,5.05 C172.165,4.953 172.214,4.52 172.358,4.449 C173.534,4.497 174.302,4.52 175.382,4.52 C176.318,4.52 177.135,4.497 178.167,4.449 C178.311,4.52 178.359,4.953 178.214,5.05 L177.759,5.098 C176.366,5.242 176.318,5.601 176.318,8.121 L176.318,10.882 C176.318,11.338 176.366,11.795 176.631,11.795 C176.846,11.795 177.135,11.65 177.302,11.529 C177.638,11.242 178.263,10.617 178.527,10.377 L181.118,7.81 C181.574,7.378 182.75,6.154 182.99,5.817 C183.111,5.65 183.159,5.529 183.159,5.433 C183.159,5.338 183.063,5.266 182.75,5.193 L182.104,5.05 C181.935,4.882 181.958,4.569 182.151,4.449 C182.99,4.497 183.95,4.52 184.79,4.52 C185.63,4.52 186.446,4.497 187.166,4.449 C187.333,4.569 187.357,4.906 187.214,5.05 C186.59,5.098 185.655,5.338 184.982,5.722 C184.312,6.106 182.966,7.233 181.622,8.506 L179.462,10.545 C179.126,10.882 178.911,11.098 178.911,11.29 C178.911,11.457 179.054,11.65 179.367,12.033 C181.647,14.649 183.495,16.81 185.367,18.777 C185.943,19.354 186.471,19.666 187.288,19.762 L187.935,19.834 C188.104,19.953 188.054,20.361 187.886,20.435 C187.262,20.385 186.327,20.361 185.199,20.361 C184.215,20.361 183.374,20.385 182.271,20.435 C182.104,20.385 182.031,19.978 182.174,19.834 L182.727,19.737 C183.063,19.69 183.302,19.617 183.302,19.498 C183.302,19.354 183.134,19.162 182.966,18.945 C182.509,18.369 181.886,17.722 180.974,16.689 L179.054,14.529 C177.687,12.994 177.302,12.514 176.727,12.514 C176.366,12.514 176.318,12.826 176.318,13.666 L176.318,16.762 C176.318,19.281 176.366,19.617 177.71,19.762 L178.359,19.834 C178.501,19.93 178.455,20.361 178.311,20.435 C177.135,20.385 176.318,20.361 175.382,20.361 C174.399,20.361 173.582,20.385 172.599,20.435 C172.455,20.361 172.406,20.002 172.55,19.834 L173.031,19.762 C174.302,19.57 174.352,19.281 174.352,16.762 L174.352,8.121" id="Fill-32"></path>
                <path d="M190.823,8.17 C190.823,5.625 190.775,5.217 189.359,5.098 L188.76,5.05 C188.614,4.953 188.664,4.521 188.807,4.449 C190.008,4.497 190.823,4.521 191.832,4.521 C192.791,4.521 193.607,4.497 194.808,4.449 C194.953,4.521 195,4.953 194.855,5.05 L194.256,5.098 C192.84,5.217 192.791,5.625 192.791,8.17 L192.791,16.713 C192.791,19.258 192.84,19.594 194.256,19.762 L194.855,19.834 C195,19.93 194.953,20.361 194.808,20.434 C193.607,20.385 192.791,20.361 191.832,20.361 C190.823,20.361 190.008,20.385 188.807,20.434 C188.664,20.361 188.614,19.978 188.76,19.834 L189.359,19.762 C190.775,19.594 190.823,19.258 190.823,16.713 L190.823,8.17" id="Fill-33"></path>
                <path d="M211.584,16.281 C211.584,17.002 211.584,19.858 211.656,20.482 C211.607,20.625 211.466,20.746 211.2,20.746 C210.912,20.338 210.217,19.498 208.129,17.124 L202.562,10.785 C201.912,10.043 200.279,8.074 199.776,7.546 L199.729,7.546 C199.633,7.835 199.607,8.385 199.607,9.105 L199.607,14.338 C199.607,15.465 199.633,18.585 200.04,19.305 C200.186,19.57 200.664,19.714 201.266,19.762 L202.009,19.834 C202.152,20.026 202.129,20.315 201.961,20.434 C200.881,20.386 200.04,20.361 199.151,20.361 C198.146,20.361 197.495,20.386 196.656,20.434 C196.488,20.315 196.465,19.978 196.608,19.834 L197.258,19.762 C197.809,19.69 198.192,19.547 198.313,19.281 C198.648,18.418 198.624,15.49 198.624,14.338 L198.624,7.402 C198.624,6.73 198.602,6.225 198.098,5.674 C197.761,5.338 197.185,5.17 196.608,5.097 L196.2,5.05 C196.057,4.906 196.057,4.546 196.249,4.449 C197.258,4.521 198.528,4.521 198.961,4.521 C199.345,4.521 199.753,4.497 200.063,4.449 C200.545,5.674 203.377,8.842 204.168,9.73 L206.496,12.344 C208.151,14.193 209.327,15.537 210.455,16.69 L210.505,16.69 C210.601,16.57 210.601,16.186 210.601,15.681 L210.601,10.545 C210.601,9.419 210.575,6.298 210.12,5.578 C209.978,5.361 209.593,5.217 208.634,5.097 L208.226,5.05 C208.057,4.906 208.08,4.521 208.271,4.449 C209.377,4.497 210.192,4.521 211.104,4.521 C212.138,4.521 212.762,4.497 213.576,4.449 C213.77,4.569 213.77,4.906 213.624,5.05 L213.288,5.097 C212.521,5.217 212.04,5.41 211.943,5.601 C211.536,6.466 211.584,9.441 211.584,10.545 L211.584,16.281" id="Fill-34"></path>
                <path d="M217.886,20.746 C215.87,20.746 214.6,20.122 214.143,19.858 C213.855,19.33 213.542,17.626 213.494,16.498 C213.615,16.33 213.977,16.281 214.07,16.426 C214.431,17.649 215.414,20.002 218.198,20.002 C220.214,20.002 221.199,18.682 221.199,17.241 C221.199,16.185 220.982,15.009 219.23,13.882 L216.95,12.393 C215.75,11.601 214.358,10.232 214.358,8.266 C214.358,5.985 216.134,4.138 219.254,4.138 C219.998,4.138 220.862,4.282 221.487,4.449 C221.798,4.546 222.134,4.594 222.326,4.594 C222.543,5.17 222.758,6.514 222.758,7.522 C222.662,7.666 222.279,7.736 222.158,7.594 C221.846,6.441 221.199,4.882 218.896,4.882 C216.543,4.882 216.038,6.441 216.038,7.546 C216.038,8.937 217.191,9.946 218.077,10.498 L219.998,11.697 C221.511,12.634 222.999,14.025 222.999,16.306 C222.999,18.945 221.006,20.746 217.886,20.746" id="Fill-35"></path>
            </g>
            <g id="health-day" transform="translate(110.000000, 80.000000)">
                <g id="invisi-border">
                    <rect id="Rectangle" x="0" y="0" width="64" height="64"></rect>
                </g>
                <g id="icon" transform="translate(4.000000, 8.000000)" fill-rule="nonzero">
                    <path d="M50.41,5.92 L50.41,5.92 C45.6231183,1.13767508 37.8668817,1.13767508 33.08,5.92 L28,11 L22.92,5.92 C18.1331183,1.13767508 10.3768817,1.13767508 5.59,5.92 L5.59,5.92 C0.807675079,10.7068817 0.807675079,18.4631183 5.59,23.25 L28,45.67 L50.41,23.26 C52.7097288,20.9607332 54.0017418,17.841981 54.0017418,14.59 C54.0017418,11.338019 52.7097288,8.21926677 50.41,5.92 Z" id="Path" fill="#9F63C6"></path>
                    <path d="M30,34.33 L29.72,34.33 C28.9798934,34.2208066 28.3626079,33.707688 28.12,33 L24.58,23.1 L22.74,26.32 C22.3813181,26.9412684 21.7173695,27.322848 21,27.32 L8,27.32 C6.8954305,27.32 6,26.4245695 6,25.32 C6,24.2154305 6.8954305,23.32 8,23.32 L19.84,23.32 L23.26,17.32 C23.6475745,16.6418531 24.3944735,16.251388 25.1725267,16.3201662 C25.95058,16.3889444 26.6173994,16.904379 26.88,17.64 L30.59,28.04 L33.37,24.15 C33.7497324,23.630305 34.3563729,23.3251239 35,23.33 L48,23.33 C48.7145312,23.33 49.3747853,23.7111978 49.7320509,24.33 C50.0893165,24.9488021 50.0893165,25.7111979 49.7320509,26.33 C49.3747853,26.9488022 48.7145312,27.33 48,27.33 L36,27.33 L31.6,33.49 C31.2307794,34.0087199 30.636637,34.3206447 30,34.33 Z" id="Path" fill="#FFFFFF"></path>
                    <path d="M28,47.67 C27.4704232,47.6677672 26.9633503,47.4555878 26.59,47.08 L4.18,24.67 C-1.14515716,19.0632874 -1.03147505,10.2340199 4.4362724,4.7662724 C9.90401985,-0.701475054 18.7332874,-0.815157156 24.34,4.51 L28,8.17 L31.66,4.51 C37.230391,-1.04891094 46.249609,-1.04891094 51.82,4.51 L51.82,4.51 C57.3789109,10.080391 57.3789109,19.099609 51.82,24.67 L29.41,47.08 C29.0366497,47.4555878 28.5295768,47.6677672 28,47.67 Z M14.26,4.33998992 C10.1111018,4.33420302 6.36788991,6.83007124 4.77806884,10.6622846 C3.18824777,14.4944979 4.06540655,18.9071599 7,21.84 L28,42.84 L49,21.84 C52.8296679,17.8046267 52.745517,11.4523407 48.8102958,7.5198316 C44.8750746,3.58732247 38.5227321,3.50755094 34.49,7.34 L29.41,12.42 C28.6159394,13.1705037 27.3740606,13.1705037 26.58,12.42 L21.5,7.34 C19.5805667,5.41860124 16.9758786,4.33931059 14.26,4.33998992 Z" id="Shape" fill="#4B2048"></path>
                </g>
            </g>
            <g id="trailhead-logo-horizontal-ae0a94974d694a85ef6e18c41aae8c00ac78265fba465b02c5f407a9293a1249" transform="translate(586.000000, 447.000000)" fill-rule="nonzero">
                <g id="Group" transform="translate(50.518519, 14.666667)" fill="#1D3767">
                    <polygon id="Path" points="0.297505185 2.6452381 5.08415111 2.6452381 5.08415111 14.467619 7.62888296 14.467619 7.62888296 2.6452381 12.3305274 2.6452381 12.3305274 0.356190476 0.297505185 0.356190476"></polygon>
                    <path d="M26.7595289,5.37428571 C26.7595289,2.4252381 24.8469956,0.356190476 21.0378667,0.356190476 L16.469037,0.356190476 L16.469037,14.467619 L18.9978311,14.467619 L18.9978311,10.3714286 L20.5650459,10.3714286 C21.0113037,10.3714286 21.4363111,10.3714286 21.8453807,10.3138095 L24.8788711,14.467619 L27.82736,14.467619 L24.1669837,9.69047619 C25.9467022,8.86809524 26.7595289,7.33333333 26.7595289,5.37428571 L26.7595289,5.37428571 Z M20.8572385,8.16619048 L18.9872059,8.16619048 L18.9872059,2.6452381 L20.8572385,2.6452381 C23.23728,2.6452381 24.0447941,3.82904762 24.0447941,5.37428571 C24.0447941,6.91952381 23.2160296,8.16619048 20.8572385,8.16619048 Z" id="Shape"></path>
                    <path d="M37.2625244,0.235714286 L30.5474074,14.467619 L33.2037037,14.467619 L34.4415378,11.6547619 L40.5882074,11.6547619 L41.8526044,14.467619 L44.5567141,14.467619 L37.8309719,0.235714286 L37.2625244,0.235714286 Z M35.3287407,9.66428571 L37.5069037,4.80857143 L39.6850667,9.66428571 L35.3287407,9.66428571 Z" id="Shape"></path>
                    <polygon id="Path" points="48.7217867 0.356190476 51.2452681 0.356190476 51.2452681 14.462381 48.7217867 14.462381"></polygon>
                    <polygon id="Path" points="59.7135407 0.356190476 57.1900593 0.356190476 57.1900593 14.467619 66.4870963 14.467619 66.4870963 12.1785714 59.7135407 12.1785714"></polygon>
                    <polygon id="Path" points="80.1032711 6.69952381 73.1225244 6.69952381 73.1225244 0.356190476 70.599043 0.356190476 70.599043 14.467619 73.1225244 14.467619 73.1225244 8.9047619 80.1032711 8.9047619 80.1032711 14.467619 82.6320652 14.467619 82.6320652 0.377142857 80.1032711 0.377142857"></polygon>
                    <polygon id="Path" points="88.5715437 14.467619 97.8738933 14.467619 97.8738933 12.1785714 91.0950252 12.1785714 91.0950252 8.8052381 97.2416948 8.8052381 97.2416948 6.6 91.0950252 6.6 91.0950252 2.6452381 97.8738933 2.6452381 97.8738933 0.356190476 88.5715437 0.356190476"></polygon>
                    <path d="M108.190948,0.235714286 L101.470519,14.467619 L104.126815,14.467619 L105.369961,11.6547619 L111.511319,11.6547619 L112.770403,14.467619 L115.479825,14.467619 L108.764708,0.235714286 L108.190948,0.235714286 Z M106.257164,9.66428571 L108.435327,4.80857143 L110.61349,9.66428571 L106.257164,9.66428571 Z" id="Shape"></path>
                    <path d="M125.047804,0.356190476 L119.65021,0.356190476 L119.65021,14.467619 L125.047804,14.467619 C129.420068,14.467619 132.697938,11.4347619 132.697938,7.40142857 C132.697938,3.36809524 129.483819,0.356190476 125.047804,0.356190476 Z M125.047804,12.1785714 L122.18963,12.1785714 L122.18963,2.6452381 L125.05843,2.6452381 C127.728428,2.6452381 129.892889,4.77934745 129.892889,7.41190476 C129.892889,10.0444621 127.728428,12.1785714 125.05843,12.1785714 L125.047804,12.1785714 Z" id="Shape"></path>
                </g>
                <path d="M22.7885503,44 L22.8947475,44 C30.1807517,43.7496022 37.2534561,41.4764735 43.3217827,37.4348618 C43.7414601,37.1385534 43.9925409,36.6579817 43.996135,36.1441429 L43.996135,32.9996754 C44.2071579,18.7168968 35.7608779,5.72530621 22.6239446,0.126179954 C22.2268495,-0.0420599847 21.7785323,-0.0420599847 21.3814371,0.126179954 C8.24047394,5.72133851 -0.209103073,18.7147722 0.00393688794,32.9996754 L0.00393688794,36.1441429 C0.00518844583,36.6466388 0.243312148,37.119105 0.646430065,37.418927 C6.97841317,41.6340076 14.3972382,43.9201676 22.0026909,44 L22.7885503,44 Z" id="Path" fill="#1D315F"></path>
                <path d="M6.96451129,27.6715752 C6.97032981,27.6487456 6.97032981,27.624793 6.96451129,27.6019634 L17.1341331,12.5497546 C17.2449758,12.3892802 17.3827255,12.2497301 17.5411294,12.1374386 C18.2561076,11.6567641 19.2188032,11.8394805 19.7135382,12.5497546 L24.7084928,19.9500223 L26.5479047,17.2726461 C26.8458759,16.8531877 27.3248453,16.6045673 27.8349644,16.6045673 C28.3450835,16.6045673 28.8240529,16.8531877 29.1220241,17.2726461 L36.1625316,27.5912539 C36.1999909,27.616511 36.2234982,27.6581864 36.2259596,27.7037037 L39.9259259,27.7037037 C37.0399522,9.40651495 22.7845103,3.805444 21.5899498,3.25925926 C21.5899498,3.25925926 15.6647179,5.4011602 10.3790517,11.826863 C6.60357092,16.336744 4.13870353,21.820319 3.25925926,27.6662204 L6.96451129,27.6715752 Z" id="Path" fill="#8ED1F4"></path>
                <path d="M18.3333333,15.8848148 L18.3333333,15.892963 L18.3333333,15.8848148 Z" id="Path" fill="#8ED1F4"></path>
                <polygon id="Path" fill="#AA76B3" points="32.5925926 27.7037037 28.2031877 21.1851852 26.0740741 24.3535488 28.536177 27.6985097"></polygon>
                <polygon id="Path" fill="#722A87" points="25.9586711 24.4444444 23.6296296 27.6986427 28.5185185 27.7037037"></polygon>
                <polygon id="Path" fill="#8ED1F4" points="19.5555556 17.1111111 18.7407407 16.2962963 18.7407407 16.300034"></polygon>
                <polygon id="Path" fill="#AA76B3" points="14.6666667 22.1309047 18.5856364 27.6983607 19.500752 27.7037037 22.8148148 22.7667274 19.3042865 17.4557377 18.533935 16.2962963"></polygon>
                <polygon id="Path" fill="#722A87" points="14.5363185 22 10.5925926 27.6927561 18.7407407 27.7037037"></polygon>
                <path d="M22.7337278,38.2984072 C22.9479679,37.7906209 22.7232424,37.2009258 22.2296626,36.9757052 L20.7710907,36.3170984 C20.5861455,36.2346986 20.4069738,36.1393402 20.2348511,36.0317022 C18.2914696,34.7720619 17.7109581,32.1401197 18.9371511,30.1481481 L2.528218,30.1481481 C2.46125003,30.9585204 2.4344037,31.7718428 2.44778205,32.5849933 L2.44778205,34.9614661 C5.77560614,37.0889537 9.40904414,38.6687065 13.2154741,39.6430628 C15.8850329,40.3128946 18.6183271,40.6809887 21.3663167,40.7407407 L22.6747415,38.408175 L22.7337278,38.2984072 Z" id="Path" fill="#069A49"></path>
                <path d="M40.6692999,30.962963 L23.5128238,30.962963 L22.2097335,32.5174586 C22.1521135,32.587819 22.1058506,32.6664626 22.0725661,32.750633 C21.975037,32.9835442 21.975847,33.2449941 22.0748174,33.477318 C22.1737878,33.7096419 22.3627882,33.8937543 22.600133,33.9890479 L24.035115,34.6108461 C24.1617311,34.6678443 24.2883472,34.7300241 24.4096875,34.7973856 C25.3538591,35.328155 26.0444954,36.2057819 26.3294805,37.2369649 C26.6144656,38.2681479 26.4704235,39.3683041 25.9290803,40.2951186 L25.6758481,40.7407407 C26.4883012,40.6422893 27.3324083,40.5023847 28.2081693,40.3262086 C29.705506,40.0423525 31.1837094,39.6685719 32.6344558,39.2069717 C32.8560339,39.1396102 33.3044657,38.9841606 33.3044657,38.9841606 C35.9025366,38.1020894 38.3936414,36.9412917 40.7326079,35.5228169 L40.7326079,33.2791615 C40.7589862,32.496732 40.7167809,31.7298475 40.6692999,30.962963 Z" id="Path" fill="#069A49"></path>
                <path d="M24.0864705,34.2029717 C23.9695962,34.1317383 23.8476404,34.0659844 23.7256846,34.00571 L22.343519,33.3481711 C22.1149099,33.2474001 21.932866,33.052705 21.8375383,32.8070272 C21.7422107,32.5613494 21.7414305,32.2848715 21.8353699,32.0385726 C21.8674292,31.9495642 21.9119894,31.8664002 21.9674886,31.7919955 L23.222617,30.1481481 L19.3454392,30.1481481 C18.1862873,32.1411657 18.7434513,34.7699855 20.5904045,36.0221628 C20.7535107,36.1296263 20.9232966,36.2248301 21.0985536,36.3070964 L22.4807192,36.9646353 C22.9484432,37.1894907 23.1613966,37.7782297 22.9583794,38.2851927 L22.912646,38.3838236 L21.6575177,40.7400048 C22.8756736,40.7493991 24.0929966,40.6688448 25.3009469,40.4989072 L25.5448584,40.0276709 C26.0699271,39.0472596 26.2112466,37.881712 25.9375761,36.7886911 C25.6639055,35.6956703 24.9977848,34.7651985 24.0864705,34.2029717 L24.0864705,34.2029717 Z" id="Path" fill="#FFFFFF"></path>
                <g id="Group" transform="translate(7.333333, 31.777778)" fill="#157139">
                    <polygon id="Path" points="22.8449003 3.80592593 27.538547 3.80592593 25.1890598 1.19259259"></polygon>
                    <polygon id="Path" points="4.84282051 5.65703704 9.54179487 5.65703704 7.19230769 3.0437037"></polygon>
                    <polygon id="Path" points="2.58390313 0.295555556 0.234415954 2.90888889 4.93339031 2.90888889"></polygon>
                </g>
            </g>
            <line x1="72.7142857" y1="409.5" x2="357.785714" y2="409.5" id="Line-2" stroke="#4B2048" stroke-linecap="square"></line>
            <line x1="484.714286" y1="409.5" x2="769.785714" y2="409.5" id="Line-2-Copy" stroke="#4B2048" stroke-linecap="square"></line>
            <text id="Sponsors" font-family="SalesforceSans-Bold, Salesforce Sans" font-size="18" font-weight="bold" fill="#4B2048">
                <tspan x="382.238" y="413">Sponsors</tspan>
            </text>
        </g>
    </g>
</svg>