<svg xmlns="http://www.w3.org/2000/svg" width="120" height="99" viewBox="0 0 120 99"><title>Group</title><defs><linearGradient id="a" x1="100%" x2="0%" y1="50%" y2="50%"><stop offset="0%" stop-color="#78C8EB"/><stop offset="100%" stop-color="#F0AFAA"/></linearGradient></defs><g fill="none" fill-rule="evenodd"><path fill="#FFF" d="M26.892 23.707c-4.26 13.723.875 28.63 12.673 36.789a15.777 15.777 0 016.744 12.855v4.21c.01 2.79 2.266 5.046 5.047 5.046h17.046c.885 0 1.602-.72 1.602-1.607 0-.888-.717-1.607-1.602-1.607h-5.72V48.46h2.996c3.34.016 6.081-2.642 6.179-5.99.097-3.347-2.485-6.162-5.82-6.341-3.333-.18-6.202 2.34-6.463 5.679-.058.154-.09.317-.096.482v2.957h-2.66V42.29a1.514 1.514 0 00-.095-.482c-.27-3.325-3.13-5.83-6.451-5.647-3.321.182-5.893 2.985-5.799 6.32.095 3.334 2.82 5.986 6.146 5.98h2.996v30.996h-2.26a1.845 1.845 0 01-1.842-1.832v-4.274a19.01 19.01 0 00-8.154-15.603C30.757 50.371 26.164 36.941 30.017 24.59c3.854-12.352 15.26-20.76 28.164-20.76 12.903 0 24.31 8.408 28.163 20.76 3.853 12.35-.74 25.78-11.342 33.158a19.01 19.01 0 00-8.186 15.603c0 .887.717 1.607 1.602 1.607.885 0 1.602-.72 1.602-1.607a15.777 15.777 0 016.809-12.855C88.64 52.328 93.773 37.395 89.487 23.66 85.2 9.927 72.497.595 58.149.64 43.819.637 31.153 9.984 26.892 23.707zm35.403 18.56a1.247 1.247 0 000-.234 2.869 2.869 0 112.869 2.869h-2.869v-2.635zM50.41 44.902a2.869 2.869 0 112.869-2.87 1.247 1.247 0 000 .235v2.635h-2.87zm6.147 3.278h2.46v31.148h-2.46V48.18zm11.476 40.164c0 .906-.72 1.64-1.609 1.64H49.15c-.888 0-1.608-.734-1.608-1.64 0-.905.72-1.64 1.608-1.64h17.275c.889 0 1.609.735 1.609 1.64zm-2.46 8.197c0 .905-.73 1.64-1.63 1.64H51.631c-.9 0-1.631-.735-1.631-1.64 0-.905.73-1.64 1.63-1.64h12.313c.9 0 1.63.735 1.63 1.64zM111.144 60.66a.565.565 0 01-.763.199c-2.703-1.524-6.145-.616-7.716 2.035-.17.244-.5.32-.762.177a.549.549 0 01-.202-.752 5.466 5.466 0 00.68-4.199 5.536 5.536 0 00-2.542-3.434.547.547 0 01-.18-.774.565.565 0 01.763-.2 5.72 5.72 0 004.288.587 5.644 5.644 0 003.45-2.577c.17-.244.5-.32.763-.177a.525.525 0 01.202.73 5.488 5.488 0 00-.682 4.209 5.558 5.558 0 002.544 3.445.525.525 0 01.157.752v-.022zM31.48 88.985a.518.518 0 010 .687.51.51 0 01-.683 0 4.76 4.76 0 00-6.715 0 .453.453 0 01-.626 0 .518.518 0 010-.687 4.594 4.594 0 001.448-3.35c0-1.27-.525-2.483-1.448-3.35a.518.518 0 010-.686.51.51 0 01.683 0 4.709 4.709 0 003.358 1.41c1.261 0 2.47-.508 3.357-1.41a.51.51 0 01.683 0 .46.46 0 010 .63 4.767 4.767 0 00-1.43 3.366 4.768 4.768 0 001.373 3.39z"/><path fill="url(#a)" fill-rule="nonzero" stroke="#005050" stroke-width="4" d="M93.811 3.166a3.812 3.812 0 0 0-2.47.922c-.673.578-1.142 1.388-1.301 2.638.066 4.386-1.66 8.404-4.509 11.365a16.419 16.419 0 0 1-11.235 5.033 3.748 3.748 0 0 0-2.659 1.082 3.707 3.707 0 0 0-1.102 2.672 3.675 3.675 0 0 0 1.091 2.686 3.716 3.716 0 0 0 2.712 1.07c4.247-.025 8.317 1.62 11.308 4.579 2.988 2.955 4.651 6.978 4.621 11.258.033.993.45 1.887 1.11 2.54.653.645 1.545 1.057 2.706 1.088a3.883 3.883 0 0 0 2.538-1.119c.664-.657 1.088-1.55 1.142-2.676-.076-4.377 1.65-8.386 4.499-11.332a16.273 16.273 0 0 1 11.278-4.962 3.879 3.879 0 0 0 2.633-1.123c.688-.68 1.118-1.611 1.145-2.722a3.804 3.804 0 0 0-1.133-2.652c-.68-.673-1.613-1.096-2.708-1.112-4.246.053-8.323-1.58-11.313-4.537-2.98-2.949-4.63-6.969-4.596-11.46a3.739 3.739 0 0 0-1.274-2.328 3.78 3.78 0 0 0-2.483-.91z" transform="translate(.417 -.166)"/><path fill="#FFF" d="M18.018 81.834a1.385 1.385 0 0 1-1.32 1.3 1.303 1.303 0 0 1-1.27-1.252 12.918 12.918 0 0 0-3.86-9.305c-2.496-2.46-5.893-3.83-9.44-3.804a1.273 1.273 0 0 1-.94-.363 1.235 1.235 0 0 1-.367-.926c-.01-.347.126-.683.376-.93.25-.246.591-.38.943-.37 7.381-.259 13.23-6.32 13.12-13.596a1.336 1.336 0 0 1 1.319-1.129 1.306 1.306 0 0 1 1.308 1.117 12.815 12.815 0 0 0 3.828 9.3c2.494 2.458 5.893 3.817 9.435 3.773.74.012 1.333.597 1.345 1.326a1.385 1.385 0 0 1-1.357 1.337c-7.376.202-13.247 6.252-13.12 13.522z"/></g></svg>