<?xml version="1.0" standalone="no"?>
<!DOCTYPE svg PUBLIC "-//W3C//DTD SVG 1.1//EN" "http://www.w3.org/Graphics/SVG/1.1/DTD/svg11.dtd" >
<svg xmlns="http://www.w3.org/2000/svg" xmlns:xlink="http://www.w3.org/1999/xlink" version="1.1">
<metadata></metadata>
<defs>
<font id="trailhead_boldregular" horiz-adv-x="983" >
<font-face units-per-em="2048" ascent="1335" descent="-713" />
<missing-glyph horiz-adv-x="718" />
<glyph horiz-adv-x="0" />
<glyph unicode="&#xd;" horiz-adv-x="718" />
<glyph unicode=" "  horiz-adv-x="718" />
<glyph unicode="&#x09;" horiz-adv-x="718" />
<glyph unicode="&#xa0;" horiz-adv-x="718" />
<glyph unicode="!" horiz-adv-x="768" d="M262 92q-4 74 35 112t100 40q27 2 51.5 -10.5t44 -32t31 -42.5t13.5 -46q2 -25 -8.5 -49.5t-28 -44t-43 -32t-54.5 -12.5q-37 0 -62.5 10.5t-42.5 28t-25.5 39t-10.5 39.5zM292 585.5q1 57.5 5 114t6 91.5q2 51 3 121.5t2 147.5t2 152.5t4 138t7.5 104.5t10.5 52 q6 8 46 14.5t86 7.5t84 -4t44 -18q10 -14 15 -60t5 -110.5t-3 -141.5t-8 -151.5t-12 -141t-11 -111.5q-4 -43 -11.5 -102.5t-14.5 -115t-15.5 -97.5t-16.5 -48q-6 -6 -34.5 -11t-62.5 -6t-65.5 2t-48.5 15q-12 10 -15 55t-2 102.5z" />
<glyph unicode="&#x22;" horiz-adv-x="1001" d="M250 973v49v85t1 103.5t1 107.5t1 96t3 69q2 37 24.5 57.5t54.5 30.5t65.5 13t56.5 3t31 -18.5t8 -40.5q0 -33 -6.5 -87.5t-14.5 -116.5t-19.5 -126.5t-22.5 -118t-20.5 -89.5t-15.5 -42q-16 -16 -42.5 -21t-45.5 -5q-20 0 -39.5 13t-19.5 38zM645 973v49v85t1 103.5 t1 107.5t1 96t3 69q2 37 24.5 57.5t54.5 30.5t65.5 13t56.5 3t31 -18.5t8 -40.5q0 -33 -6 -87.5t-14.5 -116.5t-19.5 -126.5t-22.5 -118t-20.5 -89.5t-15 -42q-16 -16 -43 -21t-45 -5q-20 0 -40 13t-20 38z" />
<glyph unicode="#" horiz-adv-x="1337" d="M47 539q-2 18 10.5 35.5t40.5 21.5q14 0 79 2t157 6l59 301q-109 4 -180.5 7t-77.5 8q-20 12 -28.5 33.5t-12.5 35.5q-2 18 10.5 35.5t40.5 22.5q14 0 92 3t185 7q16 82 32.5 157.5t30 135t23.5 98.5t16 45q6 8 34 17.5t60.5 13.5t59.5 3t27 -11q4 -10 -0.5 -52.5 t-14.5 -104t-25.5 -138t-33.5 -158.5l180 6q16 80 31.5 153.5t29 131t22.5 95.5t15 44q6 8 34 17.5t60.5 13.5t59.5 3t27 -11q4 -10 -0.5 -50.5t-13.5 -100.5t-24.5 -135t-31.5 -155q59 2 104 4t64 2q39 2 63.5 -11t38 -33.5t17.5 -44t6 -44.5q4 -18 -16.5 -27.5 t-43.5 -11.5q-31 -4 -103.5 -5t-168.5 -3l-63 -276q78 2 139 3t84 3q39 2 63.5 -11.5t37.5 -34t17.5 -44t6.5 -43.5q4 -18 -16.5 -27.5t-43.5 -11.5q-35 -4 -123 -5t-204 -3q-14 -63 -31 -139t-32 -143t-27.5 -114t-18.5 -53q-4 -4 -23.5 -10t-43 -10.5t-46 -4.5t-32.5 11 q-6 6 -1 57t16 122t25.5 147.5t24.5 136.5h-99t-97 2q-14 -63 -31 -139t-32 -144t-27.5 -115t-18.5 -53q-4 -4 -23.5 -10t-43 -10.5t-46 -4.5t-32.5 11q-6 6 -1 58t17 124t26.5 149.5t24.5 137.5q-92 2 -152.5 5t-66.5 7q-20 12 -28.5 33.5t-12.5 36.5zM530 610l191 6 l55 285h-90t-90 2q-18 -88 -36.5 -163.5t-29.5 -129.5z" />
<glyph unicode="$" horiz-adv-x="1239" d="M61 348q-6 68 21 107t62.5 59.5t71.5 24.5t48 4q23 -2 35 -20.5t2 -33.5q-4 -8 -14.5 -20t-19.5 -29.5t-14 -40t1 -49.5q12 -47 83 -79.5t175 -43.5l35 312l12 114l-53 27q-59 33 -128 65.5t-128.5 76.5t-100 105.5t-45.5 151.5q-4 88 50.5 165t135.5 134.5t171 92 t162 38.5q10 0 18 1t18 1q6 53 12.5 86t10.5 41t23.5 16.5t43 11.5t42 -2t18.5 -19q4 -12 1 -51.5t-7 -98.5q78 -16 132 -40.5t69 -35.5q20 -14 61 -50t63 -73q10 -18 18.5 -38.5t2.5 -41t-34 -42t-87 -44.5q-53 -12 -97 9.5t-59 68.5q-6 14 -31.5 36t-60.5 42 q-10 -100 -24.5 -207.5t-26.5 -210.5h2q59 -33 128 -68.5t128.5 -82.5t100 -107.5t47.5 -140.5q8 -80 -12.5 -154.5t-77 -136t-153.5 -105.5t-241 -59l-37 -4q-10 -66 -16 -111t-10 -51t-19.5 -12t-32 -9t-33 1t-22.5 16q-4 8 -1 54.5t9 113.5q-100 8 -176.5 41t-130 80 t-83 103.5t-38.5 111.5zM438 1137q-4 -51 44 -100.5t110 -90.5l45 387q-33 -2 -66.5 -21.5t-61.5 -48t-47.5 -62t-23.5 -64.5zM643 225q98 10 147 57t39 119q-6 47 -43.5 90.5t-97.5 83.5q0 -6 -1 -13t-1 -11z" />
<glyph unicode="%" horiz-adv-x="1593" d="M68 1075q0 78 31.5 139.5t86 103.5t124 62.5t145.5 16.5q43 -2 78.5 -13.5t65.5 -24.5t54.5 -28.5t44.5 -23.5q35 -16 81 -43t87 -27q35 0 66 21.5t57.5 48t46 48t29.5 21.5q8 0 54 -6t98.5 -14t93.5 -18.5t41 -16.5q0 -12 -2 -18q-55 -100 -140.5 -227.5t-183.5 -262.5 t-200.5 -267t-191.5 -245t-156.5 -195.5t-96.5 -115.5q-6 -6 -28.5 -7t-47 4t-44 15t-19.5 25q0 18 20 45q23 27 70 88t107.5 145t131 186.5t141 213t139.5 225t124 221.5q-18 -16 -46 -29.5t-44 -13.5q-53 0 -101.5 21.5t-95.5 60.5q29 -29 38 -58.5t9 -91.5 q0 -70 -32.5 -128t-84 -100t-112 -63.5t-117.5 -19.5q-68 4 -126 26.5t-102 65.5t-68.5 106.5t-24.5 147.5zM268 1059q-2 -31 6.5 -61.5t25.5 -55t41 -41t54 -18.5q39 -2 64.5 13t43 43t26 62.5t10.5 73.5q2 29 -5.5 58.5t-22.5 55t-36.5 42t-50.5 18.5q-35 2 -62.5 -14 t-48 -44t-32 -63.5t-13.5 -68.5zM805 305q4 82 39 142.5t87 99.5t117.5 55t133.5 14q68 -4 129 -26.5t107 -65.5t71.5 -105.5t19.5 -148.5q-4 -74 -38.5 -131t-89 -97t-120 -59.5t-128.5 -17.5q-74 4 -136.5 27.5t-107.5 66.5t-67.5 104.5t-16.5 141.5zM1018 293 q-2 -23 2 -52.5t18.5 -56t39 -45t65.5 -20.5q84 -6 114.5 43t34.5 131q4 63 -25.5 115.5t-92.5 56.5q-78 4 -116 -48t-40 -124z" />
<glyph unicode="&#x26;" horiz-adv-x="1415" d="M61 334q-4 125 42.5 255t150.5 247q-45 63 -77 115.5t-44 86.5q-33 84 -24.5 158t43 135.5t91 109.5t120 80.5t130 50t121.5 17.5q106 0 189.5 -23.5t142 -62.5t89 -89t30.5 -101q0 -92 -40 -165t-102.5 -133.5t-138 -114.5t-145.5 -112q66 -82 136.5 -167.5 t142.5 -171.5q31 55 56 118.5t44 134.5q14 59 52 87t75 24t59.5 -37t7.5 -92q-23 -88 -59.5 -194.5t-89.5 -213.5q78 -92 142.5 -166.5t103.5 -121.5q14 -18 -2.5 -36t-48 -32t-67.5 -25.5t-61 -17.5q-39 -10 -81.5 -3t-65.5 40q-10 14 -31.5 42t-54.5 69q-70 -78 -154 -125 t-184 -47q-117 0 -209 37.5t-154.5 104t-97.5 154t-37 185.5zM399.5 1218q-6.5 -42 3.5 -71q16 -45 66 -123q66 47 124 87t105 87q29 25 39.5 46.5t10.5 39.5q0 14 -5.5 31.5t-19.5 34t-42 28t-71 11.5q-66 0 -110.5 -27t-69 -64.5t-31 -79.5zM410 397q0 -121 36.5 -183 t116.5 -62q82 0 170 69q-68 80 -139.5 170t-142.5 180q-41 -78 -41 -174z" />
<glyph unicode="'" horiz-adv-x="575" d="M250 973v49v85t1 103.5t1 107.5t1 96t3 69q2 37 24.5 57.5t54.5 30.5t65.5 13t56.5 3t31 -18.5t8 -40.5q0 -33 -6.5 -87.5t-14.5 -116.5t-19.5 -126.5t-22.5 -118t-20.5 -89.5t-15.5 -42q-16 -16 -42.5 -21t-45.5 -5q-20 0 -39.5 13t-19.5 38z" />
<glyph unicode="(" horiz-adv-x="671" d="M74 856q0 154 42 274.5t106.5 221t142 183.5t151.5 161q16 23 41 22q25 0 43 -21.5t18 -49.5q0 -27 -18 -50q-127 -168 -181 -371.5t-54 -414.5q0 -215 54 -418t181 -373q8 -10 13 -21.5t5 -27.5q0 -29 -18 -49t-43 -20t-41 20q-74 78 -151.5 171t-142 207t-106.5 252 t-42 304z" />
<glyph unicode=")" horiz-adv-x="671" d="M74 -29q0 16 5 27.5t13 21.5q127 170 181.5 373t54.5 418q0 211 -54.5 415t-181.5 371q-18 23 -18 50q0 29 18.5 50t42.5 21q25 0 41 -22q74 -78 152 -161t142.5 -183.5t106 -221t41.5 -274.5q0 -166 -41.5 -304t-106 -252t-142.5 -207t-152 -171q-16 -20 -41 -20 t-43 20.5t-18 48.5z" />
<glyph unicode="*" horiz-adv-x="954" d="M63 1280q4 37 31 56.5t92 2.5q27 -6 61 -14t68.5 -17.5t69.5 -17.5t61 -16q-8 55 -9 118.5t-15 118.5q-10 35 8.5 60.5t52.5 34.5q37 12 69 -8.5t26 -88.5q-4 -63 -2 -117.5t-5 -109.5q25 8 62 20.5t76 24.5t73.5 24.5t51.5 22.5q29 20 59.5 10t50.5 -41t10 -66.5 t-75 -53.5q-61 -16 -132 -37t-131 -35q14 -18 37 -47t47.5 -57.5t48 -55t39.5 -41.5q27 -25 28 -55.5t-21 -58.5q-12 -14 -27.5 -22.5t-33 -8.5t-37 13t-38.5 42q-35 53 -74.5 108.5t-68.5 102.5q-12 -25 -31.5 -54.5t-40 -60t-38 -62.5t-27.5 -60q-6 -16 -19.5 -29.5 t-31 -20t-35 -5.5t-33.5 16q-14 12 -25.5 25.5t-15.5 28.5t3 35.5t30 47.5q39 47 74.5 99t79.5 102q-23 6 -58 15t-72.5 17.5t-74.5 15.5t-66 11q-35 6 -54.5 29.5t-17.5 58.5z" />
<glyph unicode="+" horiz-adv-x="1116" d="M92 674q-2 23 7.5 43t31.5 24q14 2 104.5 6.5t208.5 10.5q2 109 6.5 195.5t6.5 115.5q2 37 24.5 57.5t54 30.5t65.5 13.5t56 3.5q23 0 31 -18.5t8 -41.5q0 -37 -9 -132t-23 -212l282 14q31 2 50.5 -14t29.5 -40.5t13 -53.5t5 -53q4 -23 -12 -34t-35 -14q-35 -4 -135 -6 t-223 -2q-10 -76 -19.5 -146.5t-18.5 -124.5t-15 -88t-11 -38q-16 -16 -42.5 -21.5t-45.5 -5.5q-20 0 -39.5 13.5t-19.5 38.5q0 8 1 42.5t2 85t3 114t4 130.5q-61 2 -117.5 4t-99.5 4.5t-69.5 5.5t-28.5 7q-16 14 -22.5 40.5t-8.5 45.5z" />
<glyph unicode="," horiz-adv-x="638" d="M219 -274q0 18 18.5 48.5t41 67.5t42 76t23.5 74q-49 12 -69.5 48t-20.5 64q0 72 43 110t104 38q27 0 54.5 -10.5t49 -28.5t35 -43.5t13.5 -56.5q0 -63 -16.5 -127t-44 -119t-64.5 -98t-76 -66q-35 -23 -71 -22q-20 0 -41 11t-21 34z" />
<glyph unicode="-" horiz-adv-x="847" d="M115 612q0 20 6 39t29 23q10 0 51 3t99 6t125 8t127 8t107.5 6.5t65.5 3.5q37 0 55.5 -12.5t26.5 -34.5q4 -14 5 -30t1 -32q0 -43 -41 -59q-45 -18 -129 -17.5t-201 0.5q-55 0 -107 1t-94 3t-69 5.5t-31 7.5q-14 10 -18 32.5t-8 38.5z" />
<glyph unicode="." horiz-adv-x="618" d="M268 111q0 76 45 115.5t111 39.5q27 0 51.5 -13t43 -33.5t29.5 -46t11 -48.5q0 -53 -44 -96t-105 -43q-39 0 -66 12t-44 30.5t-24.5 41t-7.5 41.5z" />
<glyph unicode="/" horiz-adv-x="964" d="M80 -6q-6 6 7 43t36.5 91t54.5 117.5t59.5 122t51 105.5t33.5 70q25 49 68.5 136t95 189.5t106.5 210t102 197.5t82 150.5t45 68.5q8 8 44 14.5t75 7.5t68.5 -2.5t27.5 -15.5q4 -14 -23.5 -77.5t-72.5 -154.5t-101.5 -198.5t-110.5 -208t-99 -183.5t-68 -126 q-16 -27 -42.5 -77t-58.5 -110.5t-66 -124t-63.5 -115.5t-51 -88t-27.5 -40t-30.5 -9t-52.5 -6t-54.5 1t-34.5 12z" />
<glyph unicode="0" horiz-adv-x="1280" d="M92 682q0 135 23.5 269t83 244t162 183.5t262.5 89.5q2 0 3 6.5t7 14.5t18.5 14t38.5 6q76 0 139.5 -22.5t113.5 -60t91 -88t76 -105.5q18 -31 37.5 -84t37 -124t28 -156t10.5 -175q-10 -166 -50 -288.5t-106 -231.5q-49 -82 -158.5 -137t-251.5 -55q-152 0 -259 57 t-174.5 153.5t-99.5 223.5t-32 266zM367 645q0 -78 11 -155.5t37.5 -145.5t69 -116t101.5 -64q14 -4 27.5 -6t25.5 -2q68 0 124 43t96 118.5t62.5 180t22.5 227.5q0 131 -24.5 229.5t-57.5 165t-66.5 101t-54.5 39.5q-10 2 -21 2h-22q-111 0 -176 -48.5t-100 -132.5 t-45 -196.5t-10 -239.5z" />
<glyph unicode="1" horiz-adv-x="739" d="M51 1139q8 10 29.5 22.5t46.5 26.5q35 23 80 52.5t80 53.5q23 23 53.5 54.5t54.5 60.5q39 47 72 80t53 33q14 0 41 -15.5t51.5 -39t40 -53.5t6.5 -60q-70 -215 -94 -429t-24 -395q0 -147 10 -262.5t16 -181.5q4 -27 5 -45t-3 -25h2q-4 -12 -24.5 -14t-52.5 -2 q-33 0 -80 -1t-107 -11q-10 8 -20.5 96t-10.5 219q0 88 4.5 189.5t13.5 205t26.5 200.5t41.5 181l-51 -47q-41 -39 -77.5 -68.5t-49.5 -17.5q-4 4 -26.5 32t-47 59.5t-43 61t-16.5 40.5z" />
<glyph unicode="2" horiz-adv-x="1175" d="M49 1147q0 12 14.5 44t43 70.5t72.5 80.5t103.5 77t134.5 57.5t167 22.5q125 0 202.5 -46t120.5 -107.5t57.5 -124t14.5 -97.5q0 -80 -24.5 -184t-78 -225t-137.5 -254t-202 -275q25 6 76 18.5t114.5 25t128 21.5t117.5 9q27 0 52.5 -6t45 -23.5t30.5 -47t11 -77.5 q0 -35 -25 -34h-20q-6 0 -12 1t-17 1q-49 0 -124.5 -10.5t-162.5 -24.5t-174.5 -31.5t-158 -32t-115.5 -24.5t-47 -10q-16 0 -36.5 19.5t-39 45t-31 51t-12.5 37.5q0 10 2 15v-3q137 168 246 324t184.5 293t115.5 249.5t40 192.5q0 70 -43 102.5t-104 32.5q-43 0 -85 -25.5 t-78 -63t-67 -78.5t-51 -72q-18 -25 -29.5 -41t-21.5 -16l-29 14q-16 8 -44 26.5t-55.5 39t-48 38t-20.5 25.5z" />
<glyph unicode="3" horiz-adv-x="1189" d="M94 1321q0 23 6 47.5t14.5 45t18.5 33.5t19 13q53 -4 103 -7t93 -3q104 0 184 7t136.5 18.5t93.5 22.5t55 20l19 6q6 2 10 2q10 0 35.5 -18.5t51 -43t46 -49t20.5 -39.5q0 -10 -15 -33.5t-40.5 -57.5t-57.5 -74t-65 -83q-53 -66 -100 -124t-72 -99q55 12 109 13 q82 0 153.5 -31t125 -87.5t84 -133t30.5 -168.5q0 -88 -29 -181q-39 -115 -89 -190.5t-109.5 -122.5t-125 -66.5t-132.5 -19.5q-74 0 -162 14.5t-169 54.5t-145.5 111.5t-89.5 186.5q10 25 30 51t43.5 50t49 39t45.5 15q18 0 32.5 -17t35.5 -44q18 -23 49 -58.5t71 -69.5 t87 -58.5t94 -24.5q51 0 94 23.5t76 62.5t51.5 87t18.5 95q0 51 -17.5 102.5t-55.5 91.5t-99.5 64.5t-147.5 24.5h-39.5t-42.5 -4l-21 19q-20 20 -44.5 45.5t-45 50t-20.5 36.5q0 14 12.5 38t32 54.5t44 64.5t50.5 67q61 78 140 167l-478 -6q-29 0 -40 19.5t-11 50.5z" />
<glyph unicode="4" horiz-adv-x="1179" d="M0 547q0 10 4 12q35 37 88 104.5t113.5 150.5t123 176t116 182.5t93.5 169t56 137.5q4 12 22.5 20t40.5 8q33 0 77 -9t82 -23.5t64.5 -33t26.5 -34.5l-41 -838q31 2 70 13.5t72.5 22.5t57.5 21l24 9q6 0 21 -24.5t31.5 -56.5t29 -65t12.5 -49q0 -14 -41 -31.5t-96.5 -33 t-114 -27.5t-92.5 -16q0 -12 -1 -56.5t-3 -102.5t-3.5 -120.5t-1.5 -113.5q0 -27 1.5 -48.5t3.5 -33.5v-15q0 -12 -19.5 -22t-48.5 -16.5t-62.5 -10.5t-62.5 -4q-47 0 -72 12q-4 2 -7 24.5t-5 56.5t-3 78t-1 91v107.5t2 95.5q2 49 4 92q-20 2 -39.5 2h-42.5q-72 0 -138.5 -6 t-119.5 -14q-61 -8 -117 -21q-31 55 -53 105q-20 41 -35.5 79.5t-15.5 55.5zM313 510q23 2 62 7t82 9t82 7.5t61 5.5l37 444q-20 -35 -54 -91t-77 -123t-93.5 -134.5t-99.5 -124.5z" />
<glyph unicode="5" horiz-adv-x="1202" d="M84 324q0 31 42 47t95 24q61 8 139 11q16 -123 85 -181.5t153 -58.5q55 0 107.5 26.5t93.5 70.5t66.5 104.5t25.5 128.5q0 137 -74 205.5t-215 70.5q-78 -8 -147.5 -31.5t-135.5 -62.5q-25 -4 -51 -8t-55 -4q-55 0 -84 22l-33 686q0 12 22.5 21.5t61.5 15.5t92.5 11 t112.5 10q68 6 143.5 12t150.5 16t143.5 22.5t121.5 30.5q57 23 98 23t56.5 -21.5t15.5 -50.5q0 -23 -10 -51.5t-23 -52.5q-14 -29 -30 -57q-168 -39 -339 -56.5t-343 -21.5q-4 -86 -1 -158t-1 -160q90 35 173 50.5t156 15.5q98 0 179 -29t137.5 -84t88.5 -137t32 -188 q0 -152 -42 -249.5t-106.5 -155.5t-139 -87t-140.5 -41q-33 -10 -81.5 -12t-76.5 -2q-125 0 -213 48t-143.5 107.5t-81 113.5t-25.5 67z" />
<glyph unicode="6" horiz-adv-x="1269" d="M94 608q0 127 41 245t109.5 218t156.5 182t183.5 139.5t188.5 89t173 31.5q39 -35 72 -65q29 -27 51.5 -53.5t22.5 -42.5q0 -12 -4.5 -16.5t-10.5 -6.5q-53 -8 -123.5 -32.5t-147.5 -63.5t-151.5 -91t-137 -118t-105.5 -143.5t-54 -165.5q25 29 64 57.5t87 51t104.5 35.5 t115.5 13q31 0 78 -8t100.5 -27.5t107.5 -53t97 -84t69.5 -120t26.5 -159.5q0 -115 -47 -201t-120.5 -142.5t-166 -85t-184.5 -28.5q-133 0 -242.5 51.5t-188.5 138.5t-122 204.5t-43 250.5zM391 432q14 -49 41 -101t65 -94t88 -69t111 -27q82 0 136.5 27t86 64.5t45 82.5 t13.5 82q0 39 -12.5 82t-38 81t-67.5 69t-101 43q-4 0 -6 1t-4 1q-35 6 -62 6q-63 0 -115.5 -24.5t-91.5 -61.5t-61.5 -81t-26.5 -81z" />
<glyph unicode="7" horiz-adv-x="1103" d="M51 1444q0 37 31 37q14 0 36.5 -5.5t51.5 -15.5q66 -20 163 -44.5t208 -24.5q98 0 202.5 25.5t202.5 94.5q33 0 59.5 -22.5t43 -54t25.5 -65.5t9 -58q0 -8 -1 -14.5t-7 -14.5q-57 -53 -139 -213q-35 -68 -80 -166t-100.5 -234.5t-120 -312.5t-139.5 -401q-10 -20 -43 -21 q-29 0 -69 14.5t-77 33.5q-43 23 -90 49l4 30q78 215 172 425t176 380q96 197 193 377q-39 -14 -145.5 -36.5t-297.5 -22.5q-29 0 -58.5 1t-65.5 3q-12 0 -36 30.5t-48.5 71.5t-42 84t-17.5 70z" />
<glyph unicode="8" horiz-adv-x="1105" d="M70 381q2 92 24.5 160.5t56 120t75.5 88t85 67.5q-37 16 -68.5 47t-53 70t-34 83t-12.5 85q0 92 36 168t97.5 130t141.5 85t168 31q82 0 158.5 -26t135 -73t94.5 -113.5t36 -148.5q0 -123 -44 -210t-118 -114q121 -51 179 -164.5t58 -260.5q0 -113 -33.5 -198t-96 -141.5 t-149.5 -84t-194 -27.5q-104 0 -201.5 24.5t-172 77t-120.5 133t-48 191.5zM334 389q0 -45 13 -91t41 -84t72 -61.5t103 -23.5q86 0 141.5 34t86 82t43 100t12.5 91q0 31 -15.5 74t-46 81t-79 65.5t-111.5 27.5q-59 0 -107.5 -31.5t-82 -78t-52 -96.5t-18.5 -89zM381 1102 q0 -68 49 -124t154 -56q63 0 104 23.5t65.5 59t34 76.5t9.5 76q0 86 -52.5 143.5t-158.5 57.5q-88 0 -146.5 -65.5t-58.5 -190.5z" />
<glyph unicode="9" horiz-adv-x="1181" d="M55 997q0 123 53.5 217.5t133.5 158t172 95t170 31.5q131 0 234.5 -46t173 -124t106.5 -181.5t37 -219.5q0 -104 -9.5 -216t-34 -218.5t-67.5 -202.5t-110.5 -168t-164 -114t-227.5 -42q-66 0 -147.5 12t-163.5 37q-31 8 -31 41q0 12 4 28.5t11.5 33t16.5 31t21 20.5 q131 -29 222 -29q113 0 188.5 37t121.5 102.5t66.5 154.5t22.5 194q-66 -78 -153 -106.5t-175 -28.5q-61 0 -115.5 13t-91.5 34q-37 20 -81.5 54t-85.5 88t-69 132t-28 182zM328 975q0 -29 13 -77t47 -94t91.5 -79t147.5 -33q117 0 181 86t64 230q0 55 -14 108t-43 96 t-72 72t-100 35h-22q-78 0 -133.5 -28.5t-91.5 -77t-52 -111t-16 -127.5z" />
<glyph unicode=":" horiz-adv-x="638" d="M250 123q0 76 45 116t111 40q27 0 51 -13.5t42.5 -34t30 -46t11.5 -48.5q0 -53 -44 -96t-106 -43q-39 0 -65.5 12.5t-44 30.5t-24.5 40.5t-7 41.5zM299 868q0 76 45 116t111 40q27 0 51 -13.5t42.5 -34t30 -45.5t11.5 -48q0 -53 -44 -96.5t-106 -43.5q-39 0 -65.5 12.5 t-44 31t-24.5 41t-7 40.5z" />
<glyph unicode=";" horiz-adv-x="638" d="M219 -274q0 18 18.5 48.5t41 67.5t42 76t23.5 74q-49 12 -69.5 48t-20.5 64q0 72 43 110t104 38q25 0 50.5 -11.5t47 -29.5t35 -39.5t17.5 -42.5q2 -2 2 -10q0 -63 -16.5 -128t-44 -121t-64.5 -100t-76 -67q-35 -23 -71 -22q-20 0 -41 11t-21 34zM299 868q0 76 45 116 t111 40q27 0 51 -13.5t42.5 -34t30 -45.5t11.5 -48q0 -53 -44 -96.5t-106 -43.5q-39 0 -65.5 12.5t-44 31t-24.5 41t-7 40.5z" />
<glyph unicode="&#x3c;" horiz-adv-x="1007" d="M91 555q1 23 8 43t22 33q55 20 128 61t150.5 91.5t157.5 102.5t147.5 95t118.5 71.5t74 32.5q10 0 17.5 -28.5t9.5 -67.5t-2 -78t-17 -57q-12 -23 -68.5 -55.5t-139.5 -72.5t-181 -86t-192 -91q156 -86 282 -164q53 -33 106.5 -67.5t96.5 -66.5t72.5 -59.5t38.5 -46.5 q8 -23 3 -58.5t-19.5 -68t-34 -55t-38.5 -16.5q-12 4 -50 29.5t-91 64.5t-117.5 88t-130.5 98q-154 117 -338 262q-8 6 -11 24.5t-2 41.5z" />
<glyph unicode="=" horiz-adv-x="954" d="M31 381q-2 20 6 38.5t29 22.5q10 0 62 3.5t125 7.5t158 8t160.5 8t134 7t76.5 3q27 2 44.5 -12t26.5 -35.5t12 -48.5t3 -47q4 -20 -10 -28.5t-31 -10.5q-25 -4 -90 -6t-149 -2t-175 1t-169 3t-130.5 5t-56.5 9q-14 12 -18 35t-8 39zM61 860q0 20 8.5 39t28.5 23 q10 0 62.5 3t125 7t157.5 9t161 9t134.5 7.5t76.5 3.5q27 2 43 -12.5t25.5 -36t12.5 -47t5 -46.5q4 -20 -10 -30.5t-31 -12.5q-25 -4 -90 -5t-149 -2t-175.5 0t-169 3t-130 6t-56.5 8q-14 14 -19 37t-10 37z" />
<glyph unicode="&#x3e;" horiz-adv-x="944" d="M133 87q-6 36 4 58q8 18 38 46t73 60t96 66.5t107 67.5q127 78 282 164q-96 45 -193.5 91t-180.5 86t-139 72.5t-68 55.5q-12 18 -16.5 57t-2.5 78t9.5 67.5t17.5 28.5q23 -4 74 -32.5t118.5 -71.5t147.5 -95t157.5 -102.5t150.5 -91.5t128 -61q14 -12 21.5 -32.5 t8.5 -43.5t-2 -41t-12 -25q-186 -145 -340 -262q-66 -49 -129 -98t-116.5 -88t-91 -64.5t-50.5 -29.5q-18 -6 -37.5 16.5t-34 55t-20.5 68.5z" />
<glyph unicode="?" horiz-adv-x="1050" d="M8 1201.5q4 23.5 10 45.5q6 23 20.5 46.5t31 45t31 39t24.5 27.5q8 10 27.5 27.5t53.5 37t86 37t128 27.5t174 0t188 -46t158 -99.5t84 -157.5q14 -96 -13.5 -172t-79.5 -137.5t-117.5 -110.5t-127.5 -90q-37 -25 -71.5 -46.5t-59.5 -49t-35 -65.5t6 -95 q-16 -10 -39.5 -18.5t-58.5 -14.5q-72 8 -92 55q-37 63 -37 121t20.5 107t55.5 89t71 70q35 29 88.5 70t101.5 87t77.5 93t17.5 90q-10 33 -38.5 68t-65.5 60.5t-77 39t-77 4.5q-35 -10 -63.5 -33.5t-50 -51t-36 -53.5t-16.5 -40q-4 -53 -46 -85.5t-101 -30.5 q-68 10 -100.5 27.5t-44 38t-7.5 44zM309 111q0 76 45 115.5t111 39.5q27 0 51.5 -13t43 -33.5t29.5 -46t11 -48.5q0 -53 -44 -96t-105 -43q-39 0 -66 12t-44 30.5t-24.5 41t-7.5 41.5z" />
<glyph unicode="@" horiz-adv-x="1519" d="M115 377q0 229 72.5 416.5t196.5 319.5t285.5 205t340.5 73q143 0 248.5 -46.5t174 -129t102.5 -197.5t34 -252q0 -35 -2 -70.5t-6 -72.5q-16 -135 -65.5 -242t-120 -181.5t-153.5 -113.5t-165 -39q-43 0 -73 8t-49.5 20.5t-31.5 28t-20 31.5q-41 -41 -88 -68.5 t-109 -27.5q-57 0 -97 33.5t-65.5 86t-38 116t-12.5 124.5q0 76 29.5 180.5t84 201t129.5 164t165 67.5q39 0 61.5 -6.5t35.5 -17.5t23.5 -23.5t22.5 -24.5q14 31 32.5 49.5t59.5 18.5q14 0 37 -10.5t44.5 -26t36.5 -34.5t15 -40q0 -27 -17.5 -60.5t-29.5 -68.5 q-41 -117 -68.5 -234.5t-39.5 -232.5q0 -4 -1 -6t-1 -6q0 -20 7 -45t21 -25q53 0 104.5 43t92.5 116t66.5 166t25.5 195q0 113 -26.5 207t-79 162t-132 105.5t-184.5 37.5q-115 0 -213 -37.5t-177 -102t-138.5 -151t-99.5 -181.5t-60 -195.5t-20 -192.5q0 -111 24.5 -208 t81.5 -169.5t152.5 -114.5t236.5 -42q51 0 117.5 15t133.5 38.5t127 50.5t97 51q39 23 66 23t42 -16.5t15 -38.5q0 -16 -9 -37t-32 -39q-59 -49 -134 -86t-151.5 -61.5t-152.5 -37t-139 -12.5q-170 0 -291 50t-198 140.5t-113.5 212t-36.5 267.5zM717 360q0 -55 8 -97 t31 -42q12 0 33.5 16.5t44 39t40 45t19.5 36.5l16 93q8 43 15.5 84.5t11.5 80.5q2 14 3 37t1 47q0 29 -2 57.5t-9 52.5t-19.5 38t-30.5 14q-23 0 -47.5 -38t-46 -93t-38 -118.5t-22.5 -114.5q-4 -29 -6 -66t-2 -72z" />
<glyph unicode="A" horiz-adv-x="1447" d="M43.5 102.5q-2.5 24.5 5.5 49t21.5 52t23.5 64.5q0 2 21.5 51.5t50.5 114t58.5 131t45.5 107.5q6 16 29 71.5t55.5 132t73.5 168t86 181.5t90 170t88 135q4 14 48 12t96.5 -15.5t97.5 -35t55 -43.5q0 -2 9.5 -76t31 -190.5t56 -262t87 -292t124 -279.5t163.5 -223 q2 -4 11.5 -19.5t20.5 -35t21.5 -40t16.5 -32.5q0 -16 -17.5 -28.5t-39 -21.5t-42 -14.5t-26.5 -5.5h-7q-38 0 -84 20q-50 22 -93 48q-52 31 -103 72q-27 27 -62.5 74.5t-70.5 103t-65.5 109t-45.5 89.5h-32.5t-65.5 1t-82 1t-81 1.5t-65.5 1.5h-31.5t-10 -7 q-12 -12 -27 -43q-6 -16 -16 -42.5t-20.5 -52t-20.5 -46t-12 -27.5q-23 -47 -40.5 -89t-35 -74.5t-40 -53t-54.5 -26.5q-20 -4 -50 4t-58 19.5t-47 22.5t-19 15q-20 29 -22.5 53.5zM582 623l247 4q-4 43 -11 105.5t-16 128t-19.5 124.5t-20.5 96q-14 -18 -32.5 -59t-39 -91 t-40 -104.5t-35 -99.5t-24.5 -73.5t-9 -30.5z" />
<glyph unicode="B" horiz-adv-x="1325" d="M14 57q10 37 36 59.5t61 33.5q6 133 11 265t9 265l-4 6q-10 31 -7 52.5t15 33.5q4 131 10.5 261t12.5 261q0 9 2 13q-8 -4 -10 -9q-14 -4 -36 -14t-43.5 -15t-37 2t-15.5 42q-2 12 -2 24q0 27 12 47q18 30 52.5 50t76.5 33.5t81 21.5l55 14q212 45 431 45h36 q63 -2 130.5 -8t132 -24.5t122 -51t98.5 -88.5q61 -82 65 -154v-15q0 -63 -29 -119q-32 -62 -86 -112t-108.5 -87t-96.5 -57.5t-48 -22.5q2 0 43 -4t95.5 -22.5t110.5 -56.5t91 -103q27 -55 33 -115q2 -23 2 -45q1 -37 -5 -71q-10 -56 -33.5 -106t-55.5 -83l-13 -15 q-92 -88 -222 -142t-276 -78q-131 -22 -269 -22h-33q-156 3 -302 31q-6 0 -10 1.5t-8 3.5q-37 14 -60.5 33.5t-13.5 41.5zM389 156q19 -4 79 -12q39 -5 86 -4q25 0 52 1q78 4 162 28t152 79q80 68 89 132q2 13 2 26q0 48 -27 92q-34 54 -97.5 92.5t-128.5 50.5 q-66 15 -128 19q-43 3 -81 3q-16 0 -31 -1q-57 -2 -108 -9zM418 827q61 4 121.5 7.5t117 15.5t110.5 37.5t105 79.5q4 6 32 36.5t51.5 74.5t26.5 96v6q0 48 -42 92q-66 51 -142 72q-76 20 -148 22h-32q-52 0 -96 -5q-56 -7 -82 -9z" />
<glyph unicode="C" horiz-adv-x="1394" d="M23 539q0 113 45 224t113.5 211.5t150.5 182.5t157 137q82 61 170.5 112.5t172 87.5t160.5 54q51 12 94 11q22 0 42 -3q45 -4 79 -21t56.5 -39.5t34 -46.5t11.5 -42q0 -35 -35 -96.5t-127 -124.5q-97 -63 -155 -89q-51 -23 -83 -23q-5 0 -10 1q-25 2 -36 19.5t-15 35.5 q-6 23 -2 50q-66 -25 -152 -92.5t-160 -163.5q-73 -96 -118 -214q-34 -90 -34 -184q0 -29 3 -59q6 -59 33.5 -108.5t68.5 -83t92.5 -52t104.5 -18.5q106 0 191.5 17.5t150 40t106.5 46t62 35.5q27 16 54.5 39t54 43t49 34.5t37.5 14.5q20 -4 38 -12q16 -8 28.5 -19.5 t12.5 -29.5q0 -35 -28.5 -86.5t-80.5 -106.5t-125 -110.5t-162 -99.5t-192.5 -70.5t-215.5 -26.5q-141 0 -259 39t-203 118t-132 195.5t-47 272.5z" />
<glyph unicode="D" horiz-adv-x="1292" d="M14 1288q-2 25 2 56.5t11.5 61.5t16.5 53.5t17 31.5q2 4 15.5 6t29.5 4q20 2 43 3t44 1h47q2 4 1 16.5t5 27t23.5 25.5t54.5 15q22 1 46 1h24q38 -1 69 -8t52.5 -21.5t23.5 -36.5q0 -10 1 -21.5t1 -21.5v-23q41 -6 110.5 -21.5t151.5 -44t167 -72.5t156.5 -107.5 t120.5 -147.5t60 -195q2 -26 3 -52q0 -46 -8 -92q-10 -72 -30.5 -138t-48 -125.5t-54.5 -104.5q-53 -82 -135 -154.5t-189.5 -131t-239.5 -97t-286 -53.5q-65 -6 -113 -6q-34 0 -59 3q-61 7 -65 61q-1 16 -1 30q0 24 4 42q7 28 25.5 45.5t48 25.5t72.5 16l1 46t1 122 t1.5 172t1.5 197.5t1 200t2 177.5t2 130t1 57q-31 2 -66 4q-29 2 -65.5 4t-77.5 2q-14 6 -19 37zM516 188q92 8 190.5 49.5t177.5 112.5q78 70 124 172q36 80 37 177q0 26 -3 53q-10 98 -56 175t-117.5 134t-162 95t-184.5 61z" />
<glyph unicode="E" horiz-adv-x="1214" d="M23 1415v35q10 63 62 82.5t120 21.5q102 3 201 3h50q124 -1 249 -1q33 -2 69 -2q33 -2 75 -2t89 -2h25q61 0 121 3q11 1 21 1q48 0 85 -12q46 -14 68 -53q14 -24 13 -65q0 -26 -5 -58l-4 -23q-2 -16 -35 -34q-16 -6 -34.5 -7.5t-37.5 -1.5q-23 0 -56.5 -1t-75.5 -2 t-88 -2t-91 -1q-106 -2 -228 -4q-35 0 -46 -9t-15 -40q-4 -18 -5 -62t-3 -89q-2 -53 -2 -115q0 -27 6 -33t35 -4l194 6q43 2 90.5 3t94.5 5h12q29 0 53 -8q28 -10 49 -30.5t28 -49t1 -61.5q-8 -29 -15.5 -56.5t-17.5 -54.5q-10 -35 -41 -30q-18 2 -62 5t-99.5 6t-117 7 t-112.5 6t-86 2t-39 -2q-2 -2 -5 -32.5t-6 -78t-5 -101.5t-3 -101q0 -24 -0.5 -43.5t0.5 -35.5q1 -32 5 -32q8 -2 52 1t105.5 9.5t133 13.5t135 11t112 4t64.5 -8q14 -8 22 -50q5 -26 4 -55q0 -18 -2 -36q-4 -50 -24.5 -92t-61.5 -50q-6 0 -57 -3t-119.5 -8t-139.5 -10 t-114 -9q-35 -4 -90 -5.5t-107 -1.5t-92 1t-46 3q-69 17 -87 63q-14 35 -13 82q0 15 1 32q2 18 5 59t6.5 92t6.5 108.5t5 107.5t4 88t2 50q-6 2 -18.5 1t-26.5 -1t-27.5 -1t-19.5 1q-18 6 -28.5 31t-13.5 55.5t0 59.5t13 45q12 20 25.5 30.5t30 14.5t35 5t40.5 7q2 90 4 164 q0 31 1 60.5t2 54t2 40t1 17.5q2 16 -20.5 20.5t-51 3.5t-57 -4t-41.5 1q-14 2 -21 29.5t-11 60t-4 61.5z" />
<glyph unicode="F" horiz-adv-x="1153" d="M-85 1456.5q-1 16.5 36 22.5l184 26q80 12 132 21.5t95.5 17.5t85 17.5t97.5 21.5q39 8 102.5 19.5t129 20.5t122.5 16.5t86 7.5h19q64 1 110 -11q54 -14 72 -24q23 -37 41 -65.5t35 -63.5l8 -27q13 -25 13 -47q0 -19 -10 -35q-22 -35 -83 -35q-22 -2 -44.5 -2t-44.5 2 q-44 4 -91 13h-54q-92 0 -195.5 -14.5t-189.5 -47.5q0 -39 -4 -88t-9 -99t-10 -96t-7 -77q10 6 57 12t107.5 11t120.5 7q33 1 58 2q20 0 36 -1q20 -2 43.5 -5.5t45 -11.5t38 -20.5t26.5 -32.5q4 -16 17.5 -40t3.5 -44q-8 -31 -50.5 -51.5t-87.5 -24.5q-55 -4 -119.5 -14 t-123 -23.5t-106.5 -29t-68 -29.5q-14 -18 -18.5 -61.5t-6.5 -90.5q-4 -41 -8 -119.5t-9 -166.5t-11.5 -171t-16.5 -128q-14 -18 -31.5 -22.5t-31.5 -8.5q-16 -4 -38 -3t-44.5 3t-41 6t-26.5 10q-14 20 -22.5 34.5t-14.5 29t-12 33t-12 47.5q-13 59 -15 140q-1 37 -1 73 q0 42 2 84q3 76 9.5 137t10.5 82q2 18 -10.5 31.5t-28 26.5t-28.5 31.5t-13 47.5q2 61 26.5 99t61.5 79q8 33 14 85t10.5 109.5t6.5 114t2 99.5q-41 4 -78 5t-73 10t-73.5 34.5t-83.5 81.5q-18 43 -19 59.5z" />
<glyph unicode="G" horiz-adv-x="1390" d="M57 512q0 106 37 201.5t95.5 177.5t128 151.5t137.5 126.5q70 61 164 116.5t188 97.5t174 68t123 26t74.5 -16.5t53 -39t33 -46t11.5 -40.5q0 -33 -34 -92t-122 -119q-90 -59 -145 -81.5t-88 -22.5q-16 0 -33.5 12t-34.5 29q-18 18 -35 43q-86 -66 -148.5 -134.5 t-115.5 -158.5q-27 -45 -49 -86t-37.5 -84t-25 -91t-9.5 -106q0 -57 18.5 -95t51.5 -59.5t78 -30.5t96 -9t105.5 19.5t100.5 47t80 59.5t44 56q10 25 13 45.5t3 36.5q0 18 -4 33q-70 -16 -135 -29q-55 -10 -113.5 -21.5t-97.5 -15.5t-62.5 1t-37 14.5t-18.5 22.5t-7 28 q-2 14 5 36.5t18.5 47t26 46t26.5 32.5q12 10 50 21t85 22.5t93 21.5t75 17q29 6 70 14t84 17t82.5 16.5t66.5 11.5q9 1 19 1q21 0 47 -5q38 -8 74 -27.5t61.5 -49.5t25.5 -71t-21.5 -66.5t-45.5 -41.5q-31 -18 -68 -27q8 -39 12 -78q2 -20 2 -42q0 -16 -1 -33 q-3 -41 -17 -80q-12 -35 -65.5 -99.5t-136.5 -129t-190.5 -112.5t-225.5 -48q-133 0 -245 49t-193 129t-126 182t-45 211z" />
<glyph unicode="H" horiz-adv-x="1437" d="M20.5 742.5q2.5 19.5 7.5 37t11 23.5q4 8 23.5 16t46 16.5t56.5 13.5t54 5q6 0 7 47t1 120t-2 159t-2 163.5t3 136t12 74.5q6 16 32.5 22.5t60.5 5.5t69.5 -5t58.5 -6q51 -2 62 -40t11 -132q0 -55 -3 -133t-8 -153l-9 -135t-4 -83q111 20 207 37q82 14 156.5 25.5 t101.5 13.5q2 51 2 128t2 160.5t8 162.5t21 132q2 12 32.5 18.5t72.5 6.5t83 -5t66 -13q43 -12 56 -50t13 -104q0 -68 -10 -146.5t-20.5 -157.5t-19.5 -151t-9 -123q0 -80 2 -169t3 -179v-60q0 -59 -1 -116q-2 -86 -8 -160q-6 -72 -46 -113.5t-137 -45.5q-41 0 -73.5 11 t-54 30.5t-33 43t-7.5 46.5q4 37 10.5 116.5t11.5 166.5t10 166t7 116q-51 -2 -123.5 -11t-142.5 -20.5t-125 -22t-71 -14.5q-4 -113 -11 -208q-4 -84 -8 -162t-8 -111q-6 -39 -12.5 -65.5t-21.5 -44t-43 -26.5t-77 -11q-41 0 -71.5 13t-51 33.5t-32 44t-13.5 40.5 q-3 19 -3 43q0 12 1 24q2 38 5.5 81.5t7.5 85.5t8 77l16 176q-35 6 -68.5 13.5t-70.5 50.5q-12 14 -16.5 34.5t-2 40z" />
<glyph unicode="I" horiz-adv-x="1009" d="M6 1387.5q4 27.5 23 56.5q8 12 78.5 22.5t172 18.5t220 14t222 9t179.5 3t92 -4q27 -5 38 -35q9 -25 9 -54v-11q-2 -35 -15 -64.5t-36 -35.5q-8 -2 -41 -5.5t-76 -7.5t-88 -8t-77 -4q-20 -279 -33 -498q-6 -94 -10.5 -183t-7.5 -159.5t-3 -112.5t6 -41q8 0 51.5 -4.5 t93.5 -10t93 -11.5t49 -8t7 -32v-15q0 -23 -2 -50q-3 -36 -10 -69t-17 -43q-2 -2 -61.5 -6t-148.5 -9t-192.5 -8.5t-194.5 -4.5h-58q-55 0 -99 1q-66 2 -78 11q-18 14 -32.5 37.5t-22.5 50t-8 53.5t10 47q8 16 40 25.5t75 15.5t93 10t93 13q2 0 5 43t7 111.5t8.5 156.5 t8.5 180t7 180t6 158t4 114t1 48q-8 2 -49 1t-89 -2t-93 -2t-60 1q-31 6 -52 23.5t-31.5 42t-6.5 52z" />
<glyph unicode="J" horiz-adv-x="1353" d="M16 504q-2 23 17.5 43t49.5 29.5t61 4.5t51 -34q14 -25 31.5 -67t40 -88t52 -90t68.5 -73.5t88 -40.5q17 -5 37 -5q35 0 78 14q57 18 90 87.5t49 170t19 218.5v84q0 75 -2 149q-5 116 -14 215.5t-15 162.5q-25 -2 -82 -11t-120.5 -16.5t-118.5 -10.5q-12 -1 -21 -1 q-39 0 -56 10q-23 12 -40 53.5t-25 86.5q-5 28 -5 52q0 15 2 29q5 37 28 37q162 6 289.5 13.5t247.5 14.5t247 16.5t287 19.5q25 2 47 -28.5t35 -69.5q12 -34 12 -66v-9q-2 -36 -27 -44q-18 -6 -80.5 -14.5t-132.5 -18.5q-82 -10 -176 -22q2 -37 7 -115t8.5 -175t5.5 -205 q1 -39 1 -77q0 -67 -2 -130q-4 -99 -12 -181t-24 -125q-31 -82 -85.5 -148.5t-127 -111.5t-160.5 -67q-69 -16 -144 -16q-21 0 -42 1q-104 6 -183.5 62.5t-132.5 137.5t-82.5 175t-38.5 174z" />
<glyph unicode="K" horiz-adv-x="1220" d="M33 -14q-3 9 -3 33q0 37 7 105q12 114 28.5 304t30.5 450q11 193 11 415q0 77 -1 157q0 23 39 38t91 20q26 2 52 2t52 -2q51 -5 74 -23q10 -10 16 -38t9 -67t3 -86t-2 -96q-4 -113 -16 -250q63 33 125.5 84t122 108.5t114 116t101.5 105.5t84.5 78t64.5 33q25 2 47.5 -28 t37 -71t17.5 -86v-15q0 -35 -12 -59q-14 -33 -67 -91t-135 -125.5t-186.5 -134t-223.5 -113.5q174 -150 317 -291q61 -59 121 -123t110 -124t86 -113.5t48 -94.5q6 -20 -10.5 -42.5t-44 -41t-64.5 -33t-70.5 -20.5t-60 -2t-37.5 22q-10 14 -37.5 53.5t-67.5 92.5t-87 115.5 t-94 125.5q-113 147 -248 326q-4 0 -11.5 -37t-17.5 -98.5t-24.5 -136t-32 -148.5t-38 -138.5t-44.5 -102.5q-4 -8 -29.5 -10.5t-54.5 3t-55.5 18.5t-34.5 36z" />
<glyph unicode="L" horiz-adv-x="1089" d="M-37 102q0 16 15.5 28.5t34 23t33.5 17.5t15 13q4 18 8.5 82t9.5 157t10 205.5t10 229.5t10.5 226.5t10.5 196.5t8 141.5t7 60.5q8 12 35 21t57.5 13.5t58 5.5t40.5 -1q12 -4 30.5 -19.5t36 -39t31.5 -51.5t20 -58q4 -27 4 -71q0 -29 -2 -67q-4 -94 -14 -208.5 t-23.5 -238.5t-25.5 -232.5t-20.5 -188.5t-8.5 -104q84 25 164 45q68 16 141.5 31.5t124.5 19.5q29 2 63 1t65.5 -5t59 -11.5t44.5 -17.5q16 -18 34.5 -53t33 -71t19.5 -66.5t-3 -42.5q-4 -6 -20.5 -14.5t-36 -14.5t-40 -8t-34.5 8q-21 11 -63 17q-36 5 -78 5h-16 q-52 -1 -109.5 -6.5t-106.5 -11.5t-84 -12t-43 -8q-12 -4 -63.5 -14.5t-112 -21.5t-114.5 -20.5t-75 -9.5q-20 0 -44.5 14.5t-46 36t-36 46t-14.5 42.5z" />
<glyph unicode="M" horiz-adv-x="1542" d="M66 49q0 121 1 268.5t4 299t7 296t10 259t12 190.5t15 90q2 6 14 13.5t30.5 12.5t38 8t33.5 5q10 10 31 20.5t44.5 17.5t48 9t40.5 -4q6 -2 28.5 -51t54.5 -127t70 -175.5t76 -195.5t72.5 -190.5t59.5 -159.5q25 68 58.5 161t71.5 193.5t75.5 199.5t69.5 179t53.5 132 t27.5 61q6 8 34 3t60.5 -18.5t64.5 -30t48 -28.5q16 -2 33 -8q31 -10 47 -27q6 -10 10 -71.5t7 -154.5t6 -210t5.5 -240t4.5 -242.5t5 -219t5 -170t6 -95.5q0 -25 -18.5 -38t-48 -18t-66.5 -5t-74 2q-39 2 -67.5 22.5t-30.5 61.5q0 35 1 97t4 141t6 168t7 177q8 205 19 447 q-14 -33 -37 -99.5t-50.5 -153.5t-58 -185.5t-61.5 -194.5t-60.5 -182t-54.5 -148q-2 -25 -8 -42t-19 -21h-2q-10 -12 -30.5 -16.5t-42.5 -0.5q-23 -4 -43.5 0.5t-30.5 16.5q-23 8 -29 61q-25 59 -54.5 140t-60 171.5t-62.5 182.5t-60.5 174t-51 145.5t-36.5 96.5 q12 -223 20 -418l8 -168t7.5 -159t5.5 -135t2 -95q-2 -41 -31 -61.5t-68 -22.5q-37 -2 -73.5 -2t-66.5 5t-48 18.5t-18 37.5z" />
<glyph unicode="N" horiz-adv-x="1210" d="M23 27q0 121 10 282.5t26.5 333.5t38 339t43 302t42 222t34.5 100q14 10 47 12h15q26 0 54 -5q36 -7 67.5 -23.5t43.5 -43.5q33 -70 76 -176t90 -222t92.5 -231.5t81 -207t57 -146.5t21.5 -49q0 223 9.5 413.5t22.5 333t26.5 229.5t21.5 103q6 12 47 22.5t89 14.5 q19 2 38 2q28 0 53 -4q43 -6 56 -26q6 -10 4 -47t-8.5 -91.5t-15.5 -119l-18 -129t-17.5 -126t-12.5 -106.5q-10 -135 -20.5 -263t-16.5 -244q-5 -99 -5 -185v-28q1 -97 11 -171q1 -6 1 -11q1 -31 -31 -57q-36 -30 -84 -44q-41 -13 -81 -13h-11q-46 2 -58 27 q-47 98 -101 218t-110.5 248t-115 256t-111.5 242q-29 -201 -51 -374q-10 -74 -19.5 -151t-16.5 -146.5t-11 -126t-4 -90.5v-8q0 -60 -29 -95q-31 -37 -62 -39q-37 -6 -73.5 -6t-66.5 9.5t-49 32t-19 63.5z" />
<glyph unicode="O" horiz-adv-x="1320" d="M25 580q-3 37 -3 73q0 73 13 144q20 106 61 211q70 174 211 319q74 76 164 126t207 65q8 2 12 9t7 14t9.5 13.5t20.5 6.5q16 1 31 1q56 0 112 -16q70 -22 125 -57q66 -41 108 -96.5t77 -120.5q20 -39 43.5 -108.5t38.5 -161.5q16 -90 18 -200v-17q0 -102 -23 -212 q-18 -88 -49.5 -161.5t-60.5 -126.5q-35 -63 -72 -113q-37 -45 -98.5 -91t-138 -78t-165.5 -42q-23 -3 -46 -3q-67 0 -135 22q-92 27 -173 87t-143.5 141t-102.5 177t-48 195zM320 574q6 -90 32.5 -171t74.5 -149t118 -113q35 -22 73 -22t76 21q78 42 143.5 140.5t108.5 242 t43 304.5q0 74 -27.5 160t-62.5 160t-65.5 122t-38.5 48q-78 -4 -153 -33t-128 -80q-43 -43 -75.5 -102.5t-55.5 -121.5t-37 -122.5t-20 -107.5q-8 -57 -8 -116q0 -30 2 -60z" />
<glyph unicode="P" horiz-adv-x="1175" d="M28 1410q3 38 13 70.5t29 45.5q12 6 58 16t113.5 21.5t149.5 22.5t167 20.5t167 14.5t147 5q55 0 111.5 -22.5t104 -65.5t76 -103.5t28.5 -136.5q0 -88 -19.5 -158.5t-52.5 -124.5t-74.5 -94t-87.5 -69q-47 -31 -98 -54.5t-112.5 -40t-136 -24.5t-169.5 -8l-28 -526 q-6 -90 -38 -151.5t-72 -96.5t-81 -44q-16 -4 -30 -4q-21 0 -37 9q-41 20 -41 85.5t12 190.5q6 63 14.5 154.5t14.5 176.5t9 147q1 21 1 36q0 29 -4 31q-35 20 -59.5 50t-34 56.5t-1 47t38.5 26.5l68 -6q2 100 4 183q2 70 3 130v34q0 29 -1 36q-2 8 -20.5 5t-41 -6t-46 -2 t-33.5 13q-6 8 -10 40q-2 18 -2 39q0 15 1 31zM442 883q14 -1 29 -1l57 3q37 2 77 7t73 15q41 14 87 53t80 95.5t45 124.5q3 20 3 39q0 48 -19 98q-10 25 -40.5 38t-71.5 19q-35 5 -73 5h-13q-45 -1 -85 -5t-68 -10t-34 -8t-11 -23.5t-9 -55.5t-8 -76t-6 -85 q-8 -102 -13 -233z" />
<glyph unicode="Q" horiz-adv-x="1429" d="M19 631v20q0 110 10 213q8 121 39.5 231.5t85 203t128 163t171.5 113.5q147 66 272 66q15 0 29 -1q137 -8 243.5 -64t180 -144.5t114.5 -176.5q57 -125 76 -247q13 -91 13 -177q0 -27 -1 -55q-6 -110 -29.5 -204.5t-48 -165t-42 -112.5t-13.5 -46q10 -8 40 -33t52 -51 q12 -12 22.5 -38t17.5 -53.5t7 -51t-10 -35.5q-10 -10 -31.5 -26.5t-46 -32t-48 -24.5t-38.5 -7q-16 2 -42.5 28.5t-53 56t-47 55t-25.5 25.5q-2 0 -29.5 -18t-77.5 -39.5t-121 -39t-157 -18.5h-7q-83 0 -180 24q-101 24 -212 87q-90 51 -141 141.5t-75 201t-25 231.5z M337 643q7 -86 26.5 -151.5t45 -111.5t48.5 -79q33 -45 95 -80t130 -48q34 -7 66 -7t62 7q60 13 93 65q-23 37 -43 73q-18 31 -36.5 61.5t-35.5 51.5q-12 16 -3.5 44t24.5 54.5t34.5 47t28.5 26.5q12 8 29 4t34 -15.5t33.5 -27.5t28.5 -31q6 -6 12.5 -18t12.5 -24.5 t10 -19.5t6 -1q41 135 56 287q5 53 5 105q0 94 -17 181q-27 135 -103 238.5t-213 142.5q-29 8 -57 8q-44 0 -87 -19q-69 -32 -125.5 -108.5t-96.5 -192.5t-58 -263q-8 -71 -8 -132q0 -35 3 -67z" />
<glyph unicode="R" horiz-adv-x="1316" d="M32 1410q3 38 13 70.5t29 45.5q12 6 59 16t113.5 21.5t148.5 22.5t167 20.5t167 14.5t148 5q55 0 112.5 -23.5t104.5 -66.5q48 -44 76 -104q27 -57 26 -124v-10q-6 -104 -32.5 -182t-64.5 -134t-83 -93t-85 -60.5t-72 -34t-44 -14.5q-4 -2 20.5 -41t62.5 -92t82 -113.5 t81 -105.5t86 -83t92 -70.5t73.5 -59.5t30.5 -47q0 -25 -22.5 -52.5t-60.5 -47.5q-38 -21 -86 -26q-10 -1 -19 -1q-39 0 -80 16q-35 12 -83 53.5t-99 96.5t-97 118.5t-75 120.5q-18 35 -45 85.5t-53 95.5q-31 53 -64 106q-14 -2 -33 -4q-16 -2 -36.5 -3t-43.5 -1l-26 -526 q-8 -90 -40 -151.5t-72 -96.5t-81 -44q-16 -4 -30 -4q-21 0 -37 9q-41 20 -42 86v8q0 65 13 182q6 63 14.5 154.5t14.5 176.5t9 147q1 21 1 36q0 29 -4 31q-35 20 -59.5 50t-34 56.5t-1 47t39.5 26.5l67 -6q2 100 4 183q2 70 2 130v70q-2 8 -20.5 5t-41 -6t-46 -2t-33.5 13 q-6 8 -10 40q-2 18 -2 39q0 15 1 31zM446 883q14 -1 29 -1l57 3q37 2 78 7t72 15q41 14 87 53t80 95.5t45 124.5q3 20 3 40q0 48 -18 97q-10 25 -41 38t-72 19q-35 5 -73 5h-13q-45 -1 -85 -5t-67.5 -10t-33.5 -8t-10.5 -23.5t-9.5 -55.5t-9 -76t-6 -85q-8 -102 -13 -233z " />
<glyph unicode="S" horiz-adv-x="1239" d="M27 319q-1 13 -1 26q0 56 22 91q28 43 67 64.5t77.5 26.5t51.5 5q25 -4 38 -23.5t3 -35.5q-6 -8 -16.5 -21.5t-20.5 -32t-15.5 -43t0.5 -54.5q16 -59 114.5 -96.5t238.5 -41.5h18q124 0 190 50q62 48 61 123q0 11 -1 22q-6 43 -37 84t-79 79t-108.5 72.5t-125.5 65.5 q-66 35 -139.5 70.5t-137 84t-107.5 115t-48 164.5v9q0 59 24 113q26 58 71.5 109.5t105 93.5t122 73.5t124 49t112.5 21.5q25 2 50 2q49 0 95 -8q70 -12 125 -29.5t92 -36t47 -26.5t28.5 -22.5t38 -32t38 -38t31.5 -40.5q10 -23 19 -44.5t2 -44t-37 -45t-93 -47.5 q-22 -5 -42 -5q-33 0 -63 14q-46 24 -63 75q-6 14 -30.5 36t-58.5 43.5t-74 36.5t-74 20h-7q-34 1 -69 -17q-39 -20 -72 -53t-55.5 -71t-26.5 -72v-9q0 -39 30 -78q34 -44 84 -82t105.5 -71t96.5 -53q63 -35 136.5 -75t137 -90t109 -116.5t51.5 -152.5q2 -23 2 -46 q0 -62 -16 -122q-22 -82 -83 -148.5t-164.5 -114t-258.5 -63.5q-25 -2 -49.5 -3t-47.5 -1q-127 0 -223 32.5t-163.5 85t-105.5 118t-46 130.5z" />
<glyph unicode="T" horiz-adv-x="1509" d="M0 1266q14 35 28.5 51t49.5 39q55 33 140 58.5t179.5 43t187.5 29.5t167 20q47 6 107.5 9.5t116.5 6.5t100 4t59 3h24q62 0 104 -8q50 -10 105 -23q20 -29 36.5 -51.5t31 -47t24.5 -57t17 -77.5q-18 -10 -32.5 -18.5t-30 -13.5t-37 -7t-56.5 -2q-25 18 -71 26.5 t-103 10.5q-18 1 -36 1q-41 1 -85 -3q-64 -4 -127 -11q3 -47 3 -91v-44q-2 -66 -7 -121q-2 -43 -4 -112.5t-3 -144t-3 -141.5t-2 -101q0 -37 1 -111t2 -156v-81q1 -40 0 -78q-1 -76 -7 -119q-20 -10 -27.5 -16.5t-34.5 -14.5q-37 -8 -58.5 -8t-64.5 4q-29 29 -62.5 64.5 t-51.5 91.5q-18 54 -20 120q-1 22 -1 44q0 44 3 88q5 66 12.5 127t7.5 108q0 25 2 72t5 101t5 109.5t2 94.5q2 25 3 49.5t2 54.5q0 15 0.5 33.5t-0.5 38.5q-1 41 -5 100q-33 -6 -73 -13t-77.5 -13t-70.5 -10.5t-51 -6.5q-41 8 -80 11.5t-79 10.5t-81 23.5t-84 53.5z" />
<glyph unicode="U" horiz-adv-x="1374" d="M44 700q-4 69 -4 136.5t4 134.5q9 133 26.5 244.5t37 190t31.5 107.5q6 16 35 32t67 27t82 16q31 4 59 4q10 0 20 -1q36 -2 60.5 -14t24.5 -37v-22q0 -84 -13 -182q-15 -110 -30 -236q-16 -126 -25 -262q-4 -53 -3 -108q0 -85 8 -173q14 -150 65.5 -247t110.5 -113 q34 -11 64 -11q33 0 60 14q52 26 88 76t57.5 112.5t33.5 111.5q23 92 36 208.5t19.5 247.5t10.5 271.5t8 281.5q0 16 23.5 20.5t58.5 0.5t73.5 -14.5t73.5 -23.5t56.5 -28.5t21.5 -27.5q-2 -53 -4 -131t-6 -169.5t-10.5 -190.5t-14.5 -195.5t-18 -183.5t-23 -154 q-20 -102 -75.5 -184.5t-128 -139.5t-151.5 -88q-74 -29 -138 -29h-8q-76 2 -150 11.5t-141.5 33t-126 66.5t-103.5 113q-68 104 -100.5 235.5t-41.5 269.5z" />
<glyph unicode="V" horiz-adv-x="1277" d="M43 1489q2 57 10 67q14 14 49 28.5t74 25t71 16.5t40 4q85 -4 111 -68q21 -51 21 -133q0 -19 -1 -40q-1 -18 -1 -44q0 -39 2 -95q3 -94 10 -210t17.5 -241t22.5 -229.5t25.5 -177.5t27.5 -85q10 -10 33 37t52.5 131t64.5 194.5t71.5 230.5t72.5 238.5t69 216t58.5 164.5 t41.5 83q12 12 53 4.5t86 -26.5t84 -46t47 -53q4 -12 4 -31q0 -22 -5 -54q-9 -60 -26.5 -136t-40 -159t-42.5 -153q-41 -135 -101.5 -276.5t-127 -267t-128 -226t-104.5 -153.5q-12 -14 -46 -31t-77 -29t-91 -21.5t-90 -9.5t-73 8.5t-39 30.5q-10 25 -24.5 75t-29.5 113.5 t-30.5 134.5t-29 134.5t-24.5 114.5t-15 78q-12 57 -23.5 146t-22 189.5t-16.5 203t-9 186.5q-2 50 -2 91q0 27 1 50z" />
<glyph unicode="W" horiz-adv-x="1622" d="M41 1470v9q0 27 16.5 35t46.5 8q20 0 46 -2t55 -2h65q41 0 79 -6.5t38 -34.5q0 -35 6 -94.5t15.5 -134t21.5 -158.5t25 -166q29 -193 67 -418q2 51 10.5 114.5t22.5 131t30.5 136t35.5 132.5q41 150 92 305q4 4 39.5 7t78.5 3q45 0 82 -3t41 -7q4 -2 17.5 -43t30 -106.5 t38 -148.5t42 -168t40 -164t35.5 -138q29 197 53 377q10 76 22.5 156.5t24 155.5t21.5 140.5t18 112.5q6 35 35 35q12 0 28.5 -2t35.5 -2q16 0 33.5 1t35.5 1q55 0 96.5 -10.5t41.5 -42.5v-9q-20 -125 -52 -277.5t-69 -312t-75 -312t-69.5 -274.5t-54 -203t-31.5 -95 q-2 -8 -39.5 -13.5t-85.5 -5.5q-33 0 -60.5 4.5t-39.5 8.5q-6 2 -17.5 45t-25.5 111.5t-32.5 155.5t-37 178t-38 180.5t-37.5 160.5q-16 -68 -34 -155.5t-35 -181t-32.5 -183.5t-30 -162.5t-24.5 -121t-16 -54.5q-10 -10 -64 -10q-29 0 -63.5 3t-66.5 7t-54.5 10.5 t-26.5 12.5q-8 14 -34.5 96t-62.5 207t-77 279.5t-77 314t-63.5 313.5t-35.5 274z" />
<glyph unicode="X" horiz-adv-x="1298" d="M0 23q2 29 25.5 76.5t58.5 108t79 128t89 133.5q106 156 240 332q-2 12 -24 53t-52.5 99.5t-67.5 128t-70.5 138t-62.5 130t-41 104.5q-6 20 9.5 39.5t44 35t64.5 26t68.5 13.5t58 -2t36.5 -20q14 -23 36.5 -69.5t48 -105t52 -120t47 -111.5t34 -83t13.5 -31 q49 72 105.5 146.5t105.5 139t86 113t51 64.5q23 31 72 43q39 10 78 10q10 0 19 -1q48 -3 80 -19.5t20 -40.5q-10 -16 -37 -59.5t-66 -102.5t-86 -129t-96 -139.5t-97.5 -135t-89.5 -114.5q123 -203 218 -365q39 -70 76.5 -136.5t66.5 -121.5t45 -91t12 -44 q-14 -31 -57 -50.5t-94 -26.5q-26 -4 -50 -4q-26 0 -50 4q-48 7 -72 30q-8 8 -31 46t-53.5 92t-64.5 116.5t-64.5 118t-54 94.5t-31.5 49q-27 -27 -59.5 -76t-68.5 -107.5t-73 -120t-72 -111.5t-64.5 -81.5t-49.5 -33.5q-18 -2 -54 -1t-73 5t-69 13t-44 24z" />
<glyph unicode="Y" horiz-adv-x="1003" d="M52 1236v41q0 39 1 77q2 55 6 97t11 60q4 10 42 22.5t84 13.5h6q43 0 78 -13q39 -14 46 -55q-6 -80 -8 -163q-2 -46 -2 -91q0 -36 1 -71q2 -79 10.5 -148.5t24.5 -124.5q18 -66 48 -107t75 -43q14 0 31.5 7t34 19.5t32 26t25.5 23.5q20 20 61 186t111 494q4 23 50 37 t98 19q22 2 43 2q28 0 53 -4q43 -7 43 -30q-20 -84 -50 -184t-62 -203.5t-64.5 -204t-57.5 -182.5q-29 -92 -52 -173t-49 -169t-54.5 -195.5t-65.5 -254.5q-2 -31 -44 -33h-10q-38 0 -81 12q-49 15 -88 38.5t-35 45.5q31 115 62.5 218.5t60.5 183.5q31 94 61 174 q-72 -43 -123 -58q-37 -12 -62 -12q-9 0 -17 2q-61 12 -103.5 50t-72 91.5t-47 117t-29.5 126.5q-6 39 -11.5 94.5t-7.5 117t-3 123.5z" />
<glyph unicode="Z" horiz-adv-x="1384" d="M23 1249q0 47 11 88t25 74q16 37 37 70q35 6 102.5 14t155.5 17.5t190 16.5t206 10q62 2 124 2q40 0 80 -1q100 -2 185 -12q14 -2 43.5 -25.5t55.5 -55.5t40 -64.5t2 -53.5q-68 -104 -156 -227t-189 -258t-213 -279.5t-224 -292.5q25 2 80 6.5t128.5 8.5t157.5 5h34 q67 0 132 -3q82 -4 156 -16.5t125 -34.5q35 -14 40 -44q1 -8 1 -16q0 -23 -10 -50q-14 -36 -43 -72t-63 -63.5t-67.5 -44t-58.5 -9.5q-92 20 -166 34.5t-141.5 21.5t-133 10t-142 3t-171 -1t-215.5 -1q-12 0 -29.5 20.5t-30.5 48t-19.5 54.5t4.5 39q104 129 191 242.5 t179 237.5t200.5 272.5t254.5 351.5q-117 -2 -236 -8q-102 -4 -221 -15.5t-223 -29.5l-39 -27q-18 -4 -44 -1t-49.5 11t-39.5 20.5t-16 26.5z" />
<glyph unicode="[" horiz-adv-x="929" d="M111 6q0 16 13 29.5t29.5 25t31 19.5t14.5 14q4 20 8 99t9 193t10 249t9.5 267t9.5 250t9 196q-23 35 -23 65q0 35 27.5 53.5t60.5 34.5q74 10 140 19q55 8 106 14t74 10q14 2 41 3t54.5 0t54 -6t40.5 -15q14 -20 32 -52t30 -66t17 -63.5t-3 -41.5q-4 -6 -17.5 -12.5 t-30.5 -11.5t-35.5 -7t-33.5 2q-74 12 -129 10t-116 -8q2 -68 -4.5 -171.5t-15.5 -221t-20 -239.5t-20.5 -225.5t-15.5 -177t-6 -98.5q25 8 49 17q23 6 46.5 12t45.5 10q14 2 44 3t62.5 -1t62.5 -7t44 -15q14 -20 27.5 -53t20.5 -67t9 -62.5t-6 -40.5q-4 -6 -18 -14.5 t-31.5 -14.5t-36 -7t-32.5 5q-61 29 -122 24.5t-123.5 -20.5t-128 -34.5t-138.5 -18.5q-18 0 -40 15t-41.5 39t-31.5 49.5t-12 43.5z" />
<glyph unicode="\" horiz-adv-x="964" d="M80 1499q-2 12 27.5 15.5t68.5 2.5t75 -7.5t44 -14.5q10 -8 45 -68.5t82 -150.5t102.5 -197.5t106.5 -210t95 -189.5t69 -136q10 -20 32.5 -68.5t51 -107t59.5 -122t54.5 -117.5t35.5 -91t8 -43q-10 -10 -35.5 -12t-53 -1t-52.5 6t-31 9q-8 4 -28.5 40t-50 88 t-63.5 115.5t-65.5 124t-58.5 110.5t-43 77q-23 43 -68 126t-99 183.5t-110.5 208t-101.5 198.5t-72.5 154.5t-23.5 77.5z" />
<glyph unicode="]" horiz-adv-x="944" d="M135 51.5q-6 28.5 2 42.5q4 6 17.5 12.5t30 12.5t35 8t34.5 -2q78 -12 137.5 -6t126.5 14q-4 68 -3 172.5t3 222t5 238.5t7.5 223.5t5.5 177t1 99.5q-18 -10 -41 -19q-18 -8 -40 -14t-42 -10q-14 -2 -44 -4t-63 -2t-63.5 5t-44.5 15q-16 18 -29.5 51t-22 67t-10.5 62.5 t6 40.5q10 12 47 24.5t72 10.5q51 -2 109.5 7t123 21.5t134 22.5t143.5 12q18 0 33.5 -11t26 -28.5t17.5 -39t7 -39.5q0 -35 -8 -57.5t-19 -39.5q-4 -18 -6 -83.5t-5 -161t-5 -211t-4 -235.5t-4 -232.5t-4 -202.5t-4 -146.5t-4 -62.5q2 -35 -15.5 -55.5t-50.5 -36.5 q-74 -14 -137 -25q-53 -10 -106.5 -17t-73.5 -11q-14 -2 -41 -4t-55.5 -1t-55.5 5t-41 14q-14 18 -31.5 50t-31 65t-19.5 61.5z" />
<glyph unicode="^" horiz-adv-x="944" d="M63 754q2 20 25 68t56.5 112.5t74.5 138.5t79 148.5t69.5 142.5t48.5 119q10 14 28.5 21t38.5 7q31 0 41 -14q4 0 37 -50t80 -126t100.5 -165t99.5 -165t75.5 -128t29.5 -54q0 -14 -19.5 -30.5t-45 -31t-54 -24.5t-47.5 -10q-16 0 -22 4q-14 12 -40 51t-55.5 91 t-60.5 110.5t-56.5 108.5t-43 84t-19.5 40q-35 -90 -64.5 -168t-54 -138t-45 -98t-36.5 -50q-6 -4 -21.5 -8.5t-34 -7.5t-38 -4t-31.5 -1q-35 0 -66 7.5t-29 19.5z" />
<glyph unicode="_" horiz-adv-x="927" d="M-53 -252q0 20 6 38.5t29 23.5q10 0 80.5 1t171 3t217 3t221 3t180.5 3t94 1q37 0 55.5 -2t26.5 -25q4 -14 5 -29.5t1 -31.5q0 -43 -41 -60q-23 -10 -72 -13t-110 -4t-129 0t-125 1h-94t-120.5 1t-128 2t-118 3t-87.5 4t-36 6q-14 10 -18 33t-8 39z" />
<glyph unicode="`" horiz-adv-x="860" d="M223 1493q0 10 13.5 21.5t35 20.5t47 14t52.5 5q35 0 64.5 -10t51.5 -37q41 -47 87.5 -97t84 -94t63.5 -76t26 -40q0 -16 -21.5 -28.5t-44.5 -12.5q-7 0 -23 4q-6 2 -41.5 20.5t-84 46t-102.5 62.5t-100 71t-77 69.5t-31 60.5z" />
<glyph unicode="a" horiz-adv-x="1042" d="M55 360q0 133 39 263.5t112 232.5t173 165.5t223 63.5q25 0 53.5 -9t55 -22.5t45 -28.5t24.5 -28q2 8 13.5 15.5t26 12.5t28.5 8t22 3q16 0 36 -2t37.5 -8t28.5 -14t11 -21q0 -29 -13.5 -102.5t-29.5 -164.5t-29.5 -186.5t-13.5 -162.5q0 -49 9 -82t21.5 -52.5t27 -26.5 t26.5 -7q16 0 31.5 7t29.5 17q25 20 47.5 46t47.5 55q16 18 31.5 31.5t33.5 15.5q57 0 57 -62q0 -11 -2 -24q-6 -41 -26.5 -84t-50 -81t-65.5 -70.5t-73 -53.5q-43 -23 -91 -31t-101 -8q-51 0 -92 19.5t-70 50.5t-46 66.5t-19 70.5q-29 -31 -70 -64.5t-88 -61.5t-96.5 -45 t-94.5 -17q-66 0 -107.5 42t-66 100t-35 122.5t-10.5 111.5zM350 356q0 -41 6 -58t23 -17q51 0 100 42t87 106.5t64.5 141t33.5 146.5v8q0 25 -13.5 55.5t-29.5 30.5q-47 -2 -95.5 -41t-87.5 -101.5t-63.5 -143.5t-24.5 -169z" />
<glyph unicode="b" horiz-adv-x="1071" d="M108 213q-1 26 0 51q0 46 2 94q4 72 7 134q6 94 14 207.5t15.5 227t15.5 218t14 184.5q6 84 14.5 149.5t24.5 110.5t47 68.5t84 23.5q76 0 118 -18q33 -14 33 -43q0 -8 -3 -18q-47 -170 -69 -336t-39 -322l-15 -149q82 86 172 118.5t166 32.5q154 0 240.5 -89t86.5 -249 q0 -106 -29.5 -205.5t-82.5 -183.5q27 -23 53 -22q49 0 83 27.5t61.5 61t52 62.5t55.5 31q57 0 57 -64q0 -4 -1 -10t-1 -12q-6 -49 -35.5 -103.5t-71.5 -99.5t-89.5 -73.5t-88.5 -28.5q-53 0 -116.5 20.5t-114.5 54.5q-55 -35 -118.5 -53t-135.5 -18q-63 0 -112.5 21.5 t-86.5 56.5v-37t2 -35q-35 -20 -51 -29.5t-39 -9.5q-10 0 -29.5 2t-41.5 6q-25 45 -35.5 109.5t-12.5 136.5zM386 422q0 -102 44.5 -141t110.5 -39q57 0 102 29.5t77 74.5t48 97.5t16 97.5q0 72 -38.5 124t-108.5 52q-31 0 -74 -18.5t-82 -55.5t-67 -92t-28 -129z" />
<glyph unicode="c" horiz-adv-x="806" d="M55 508q0 117 29 220t81 180t123.5 122t160.5 45q66 0 123 -21.5t100 -60.5t67.5 -94t24.5 -123q0 -18 -4 -42.5t-16.5 -47t-35 -39t-59.5 -16.5q-72 4 -97.5 49t-25.5 115q0 8 1 15t1 17q-6 29 -22.5 32t-24.5 3q-41 0 -65.5 -34.5t-40 -87t-20.5 -111t-5 -107.5 q0 -66 16.5 -129t48 -114.5t77 -83t104.5 -31.5q53 0 111.5 13t99.5 54q25 20 47.5 46t46.5 55q16 18 31.5 31.5t34.5 15.5q57 0 57 -62q0 -11 -2 -24q-6 -41 -26.5 -84t-50.5 -81t-65.5 -70.5t-72.5 -53.5q-25 -14 -57.5 -24.5t-70.5 -17.5t-77 -10t-74 -3q-133 0 -224 49 t-146.5 129t-79 180.5t-23.5 200.5z" />
<glyph unicode="d" horiz-adv-x="1009" d="M27 342q0 119 35.5 246t102 234.5t162 179t214.5 77.5q29 0 71 -16q4 47 7.5 90t7.5 76q8 55 18 139t26.5 163t41 138.5t61.5 65.5q37 -4 68.5 -14.5t55.5 -29t36 -47t12 -73.5q0 -59 -9 -150.5t-20.5 -186.5t-20.5 -180t-9 -130l-4 -58q0 -27 -5.5 -84t-10.5 -126.5 t-10 -143.5t-5 -135q0 -55 7 -91t17.5 -55.5t24.5 -27.5t29 -8q18 0 38.5 11t39.5 25q18 14 38.5 39t41 49.5t41 42t38.5 17.5q57 0 58 -64q0 -4 -1 -10t-1 -12q-6 -47 -36 -102.5t-75 -103.5t-98 -81t-109 -33q-88 0 -137 15.5t-80 41t-51.5 57.5t-48.5 65 q-18 -27 -52 -55.5t-75 -52.5t-88 -39t-92 -15q-27 0 -51.5 5t-47.5 19q-49 29 -79.5 64t-48 76t-22.5 88t-5 100zM304 361.5q-1 -15.5 2 -29t12.5 -22.5t29.5 -9q31 0 72 29.5t78 83t63.5 130.5t30.5 171q-6 12 -12.5 29.5t-12.5 33t-16 25.5t-27 10q-25 0 -51.5 -23.5 t-49 -55.5t-39.5 -62.5t-24 -42.5q-25 -51 -40 -110.5t-15 -129.5q0 -12 -1 -27.5z" />
<glyph unicode="e" horiz-adv-x="800" d="M45 449q-1 16 -1 32q0 101 22 197q26 112 84.5 203.5t150.5 147.5t221 61q49 0 93 -17.5t78 -51.5t54.5 -82t20.5 -108q0 -96 -36 -162.5t-97 -144.5q-27 -33 -56.5 -66.5t-58 -64.5t-54.5 -55.5t-44 -38.5q27 -61 78 -92q48 -29 110 -29h8q102 0 166 44t123 110 q16 18 31.5 31.5t34.5 15.5q33 1 49 -21q10 -13 10 -35q0 -13 -4 -30q-23 -86 -69 -149.5t-109.5 -104.5t-139 -61.5t-153.5 -22.5h-11q-94 0 -180 33q-90 35 -160.5 100.5t-113.5 156.5t-47 204zM322 584q-3 -34 -4 -61q0 -28 4 -48q27 25 70.5 75t82.5 116q25 43 42.5 90 t21.5 94q-8 33 -29 33q-6 1 -12 1q-49 0 -84 -43q-39 -48 -62.5 -116.5t-29.5 -140.5z" />
<glyph unicode="f" horiz-adv-x="751" d="M80 -133q-1 39 -1 79q0 59 2 120q3 100 6 194q2 56 2 105q0 32 -1 61q0 6 2 8q8 76 16.5 163t19.5 176t24.5 177t29.5 168q18 86 34.5 150.5t37 118t47.5 100.5t66 100q27 35 75 42q36 5 80 5h25q37 -2 79 -14t58 -29q20 -18 10 -53t-34.5 -83t-55.5 -106.5t-51 -125.5 q-47 -156 -78 -281t-48 -237.5t-25.5 -222t-12.5 -234.5l14 10q35 21 69 21q14 0 28 -3q47 -12 91 -29.5t85 -26.5q9 -2 18 -2q31 0 60 24q25 20 47 45.5t47 54.5q16 18 31.5 31.5t33.5 15.5q58 0 58 -62q0 -11 -2 -24q-6 -41 -26.5 -84t-50.5 -81t-66 -70.5t-72 -53.5 q-8 -4 -24.5 -10t-39.5 -10q18 -35 37.5 -80t36 -99.5t28 -115t13.5 -123.5v-23q0 -61 -9 -113q-10 -63 -39.5 -112t-78.5 -84t-125 -51q-44 -6 -82 -6q-72 0 -125 21q-82 34 -133 105t-78 168t-41 208q-10 80 -12 178zM382 -190v-16q0 -68 8 -135q9 -75 34 -140.5 t68 -108.5q23 -4 43 0t32 27q23 101 23 194q0 41 -4 81q-15 130 -76 216q-11 -1 -22 -1q-27 0 -46 7q-28 11 -49 17q-10 -66 -11 -141z" />
<glyph unicode="g" d="M2 -303q12 70 66.5 105.5t135.5 60t181 48t205 66.5q-4 43 -6 85t-2 79q-27 -33 -74 -67.5t-102.5 -58t-113.5 -26.5h-12q-52 0 -98 25q-49 29 -79.5 64t-48 76t-22.5 88t-5 100q0 117 26.5 212t71.5 187q31 63 76 124t101 107t121.5 74.5t137.5 32.5q33 -6 64 -14 q27 -8 51 -20.5t41 -32.5q25 14 51.5 23t50 13.5t42 2t24.5 -10.5q15 -19 15 -79q0 -13 -1 -29q-4 -84 -16.5 -211t-27.5 -283.5t-19 -318.5q53 31 94 63.5t69 63.5q14 14 29.5 35.5t34 41t38 36t42.5 20.5q33 0 44 -20.5t11 -65.5q0 -41 -20.5 -84t-51 -81t-68.5 -70.5 t-75 -53.5q-59 -43 -137 -76l6 -80q3 -36 3 -71q0 -40 -4 -79q-7 -73 -38 -131.5t-90 -97t-160 -51.5q-30 -3 -63 -3q-28 0 -58 2q-65 5 -130.5 19.5t-125 39t-103.5 57.5t-67 74q-16 30 -16 65q0 12 2 25zM270 -307q2 -23 29 -39t61.5 -25.5t70.5 -13.5t58 -4q49 2 84 42 q31 36 31 97v14l-4 72q-68 -23 -128 -41t-106.5 -36.5t-72 -35t-23.5 -30.5zM311 313q21 -7 40 -7q12 0 23 3q29 8 46 25q90 86 143.5 192t57.5 258q-4 6 -19.5 15.5t-37 13.5t-45 1t-42.5 -19q-27 -25 -61.5 -70t-62 -107.5t-41.5 -140.5q-8 -40 -8 -81t7 -83z" />
<glyph unicode="h" horiz-adv-x="1089" d="M85 236v21q0 71 6 153q7 94 18 192q6 94 12 195.5t12 188.5t11.5 152.5t9.5 90.5q8 55 18 139t26.5 163t41 138.5t61.5 65.5q55 -6 100.5 -27t61.5 -68q6 -11 6 -69v-32q-2 -87 -12.5 -213t-24.5 -274.5t-26 -285.5q31 33 72.5 69.5t85.5 70.5t87 59.5t76 38.5 q23 8 55.5 8t64.5 -8.5t57.5 -27t35.5 -44.5q12 -37 16 -84q3 -35 4 -73v-25q-2 -52 -5 -103t-3 -96q0 -168 4 -256t54 -109q12 -6 37.5 12.5t53 44t50.5 52.5t33 37q16 18 31.5 31.5t33.5 15.5q58 0 58 -62q0 -11 -2 -24q-6 -41 -27 -84t-50.5 -81t-65.5 -70.5t-72 -53.5 q-49 -29 -102.5 -40t-100.5 -11q-66 0 -106 38t-66 81q-27 37 -38 101.5t-15 138.5q-2 37 -2 75t2 76q4 76 4 135q2 12 -7.5 20.5t-23.5 11.5t-32.5 0t-35.5 -14q-78 -43 -115.5 -101t-55 -134t-26 -171t-22.5 -212q-49 -29 -98 -37q-18 -3 -38 -3q-36 0 -79 9 q-27 51 -37 120t-11 149z" />
<glyph unicode="i" horiz-adv-x="436" d="M35 334q2 66 10 145.5t20.5 162.5t29 154.5t36 124t39.5 70.5q10 2 44 2t72 -4t69.5 -12t35.5 -21q10 -14 8 -60t-11 -108.5t-23.5 -136t-26.5 -144.5t-21.5 -131.5t-9.5 -96.5q10 -53 39 -65q8 -3 19 -3q27 0 69 20q23 10 46.5 41t47.5 60q16 18 31.5 31.5t34.5 15.5 q59 0 59 -62q0 -11 -2 -24q-6 -41 -26.5 -84t-50 -81t-65.5 -70.5t-73 -53.5q-33 -18 -69.5 -32.5t-74.5 -17.5q-10 -1 -21 -1l-55 6q-38 8 -73 37q-39 31 -68.5 97.5t-37.5 133.5q-3 27 -3 66q0 19 1 41zM215 1221q0 61 37 93t90 32q23 0 43.5 -11.5t35.5 -28t23.5 -37 t8.5 -38.5q0 -43 -36 -78t-87 -35q-63 0 -89 35t-26 68z" />
<glyph unicode="j" horiz-adv-x="528" d="M-184 -477q0 98 24.5 188t67.5 165t100.5 132.5t122.5 91.5q29 16 64 23q-8 45 -16.5 99t-15.5 109.5t-13.5 108t-8.5 88.5q-10 100 -21 190.5t-26 184.5q12 12 36 28.5t55.5 29t67.5 18.5q18 3 35.5 3t35.5 -3q6 -8 19 -64.5t26.5 -139.5t26 -180t16.5 -189 q4 -49 7 -107.5t9 -124.5q31 14 57.5 28.5t42.5 28.5q25 20 47.5 46t47.5 55q16 18 31.5 31.5t33.5 15.5q57 0 57 -61q0 -11 -2 -25q-6 -41 -26.5 -84t-50 -81t-65.5 -70.5t-73 -53.5q-49 -20 -82 -29q6 -78 10.5 -155.5t6.5 -151.5q0 -78 -20.5 -164t-63.5 -158.5 t-109.5 -121.5t-158.5 -51h-10q-68 0 -119 25q-56 26 -92.5 73t-55 111.5t-18.5 140.5zM27 -500q-1 -7 -1 -15q0 -41 20 -73q19 -29 58 -29q11 0 25 3q37 27 60.5 89t34.5 141q12 76 12 154v6q-1 82 -11 148q-43 -10 -77.5 -57t-61.5 -110.5t-42 -133t-17 -123.5zM82 1225 q0 61 37 93t90 32q23 0 43 -11.5t35.5 -28t23.5 -37t8 -38.5q0 -43 -35.5 -78t-86.5 -35q-63 0 -89 35t-26 68z" />
<glyph unicode="k" horiz-adv-x="1069" d="M90 384q-1 46 -1 92.5t1 94.5q0 104 2 209t5 196t7.5 158.5t8.5 96.5q6 55 13 139t19.5 163t35 137.5t59.5 64.5q55 -6 101.5 -27t64.5 -68q8 -12 8 -75v-28q-2 -89 -11.5 -217t-21.5 -279.5t-25 -288.5q59 68 126 114.5t130.5 78.5t117.5 49.5t89 21.5q21 3 40 3 q81 1 117 -49q35 -48 35 -120q0 -20 -3 -41q-6 -57 -35 -117.5t-77 -116t-117.5 -99.5t-160.5 -68q2 -78 43 -124t97.5 -71t116 -32t100.5 -7q23 0 49.5 14.5t52 38t48 51t38.5 54.5q27 43 66 47q33 -1 49 -21q10 -13 10 -34q0 -14 -4 -31q-39 -170 -147.5 -255t-249.5 -85 q-106 0 -194.5 32.5t-156 94t-114.5 147.5t-72 193q-4 -37 -6 -77t-2 -89v-111.5v-144.5q-49 -29 -91 -37q-15 -3 -34 -3q-33 0 -78 9q-16 39 -25.5 103.5t-15.5 143.5t-8 170zM379 532q53 4 109.5 20.5t104.5 40t81 49.5t41 48q8 20 11 43t-30 27q-29 -4 -69.5 -23.5 t-80.5 -44t-75 -51.5t-51 -45q-12 -16 -22.5 -31.5t-18.5 -32.5z" />
<glyph unicode="l" horiz-adv-x="714" d="M82 550q0 89 4 167q4 127 28.5 253t61.5 240.5t85 212t99 166.5q47 63 120 102.5t143 41.5q45 0 80.5 -31t59 -89.5t33.5 -140.5q8 -59 8 -129q0 -27 -1 -55q-6 -145 -42 -280.5t-91.5 -256t-126 -225t-150.5 -186.5q6 -35 15.5 -67.5t27 -57.5t43 -38t66.5 -13 q12 0 32.5 4t45 12t49 20.5t43.5 30.5q25 20 47 46t47 55q16 18 31.5 31.5t33.5 15.5q58 0 58 -62q0 -11 -2 -24q-6 -43 -26.5 -84t-51.5 -79t-66.5 -70.5t-72.5 -57.5q-55 -37 -127 -59.5t-164 -24.5q-86 0 -146.5 37t-98.5 100.5t-58.5 145.5t-28.5 171t-8 178zM354 754 q-2 -31 -2 -60q0 -43 4 -80q37 45 75 114t72 151t61.5 173t43.5 181q6 35 7 75v20q0 28 -2 54q-3 34 -10 60.5t-15 32.5q-35 -35 -72 -106t-70 -148q-25 -63 -44 -143.5t-31.5 -163t-16.5 -160.5z" />
<glyph unicode="m" horiz-adv-x="1562" d="M97 287q1 86 8.5 178t11.5 180v100.5v105.5t3 88t11 48q8 8 41 16.5t74 14.5t84 8h21q29 0 50 -4q11 -2 13 -33q1 -14 1 -30q0 -19 -2 -41q-3 -40 -7.5 -80.5t-4.5 -63.5q39 61 86.5 113.5t93.5 91.5t86 63.5t64 28.5q12 2 46 -11t70 -33.5t65.5 -44.5t35.5 -40 q10 -31 10 -82q37 45 75 85t74 67.5t65.5 43t50.5 13.5q18 -2 46.5 -12t58.5 -26.5t56.5 -37t40.5 -39.5q11 -12 11 -62v-10q0 -46 -4 -104q-4 -64 -11.5 -129t-9.5 -110q-4 -45 -9 -105q-3 -34 -2 -66q0 -26 1 -50q4 -56 21.5 -94t60.5 -38q29 0 68.5 34t105.5 112 q16 18 31.5 31.5t33.5 15.5q58 0 58 -62q0 -11 -2 -24q-4 -33 -26.5 -79t-56.5 -90t-73 -79t-74 -45q-47 -12 -98 -19.5t-117 -7.5q-31 0 -58.5 11.5t-50 28t-40 36t-25.5 37.5q-12 27 -17 95.5t-6 152.5v56q0 56 1 113q2 85 2 144q2 12 1 30.5t-4 36t-9.5 30t-14.5 12.5 q-37 -25 -66.5 -62t-53 -81t-42 -93t-30.5 -96q-4 -57 -7.5 -117.5t-6.5 -115t-7 -97.5t-12 -65q-12 -4 -46 -11.5t-73 -11.5q-26 -3 -50 -3q-12 0 -24 1q-35 2 -45 14q-14 18 -17 95q-2 38 -2 82q0 43 2 93q3 98 9 197t10 158q2 12 2 30.5t-2 36t-8 30t-14 12.5 q-31 -16 -60.5 -47t-54.5 -66t-44 -72t-32 -67q-39 -94 -53 -220t-31 -249q-51 -29 -96 -37q-18 -3 -40 -3q-33 0 -73 7q-29 53 -39 128q-9 68 -9 145v16z" />
<glyph unicode="n" horiz-adv-x="1034" d="M106 85q-1 29 -1 62q1 47 3 102q4 95 10.5 202.5t10.5 195.5q0 45 2 100.5t6 105.5t9.5 87t13.5 47q8 8 36.5 18.5t65.5 18.5t77 11q17 1 32 1q20 0 37 -2q8 -2 11 -22.5t2 -50t-4 -64.5t-5 -63q37 51 77.5 95t78.5 75.5t71 49t55 15.5q18 -2 47 -12t58.5 -26.5t56.5 -37 t41 -39.5q10 -12 10 -62t-4 -113.5t-11 -129t-9 -110.5q-4 -45 -11 -105q-6 -52 -5 -102v-14q1 -56 17.5 -94t59.5 -38q23 0 49.5 15.5t40.5 29.5q25 20 47.5 46t46.5 55q16 18 32 31.5t34 15.5q57 0 57 -62q0 -11 -2 -24q-6 -41 -25.5 -85t-49 -84t-65.5 -72t-75 -48 q-43 -18 -95 -24.5t-114 -6.5q-66 0 -121 31t-81 74q-27 36 -32 108q-3 40 -3 83q0 35 2 72q4 83 12 165t8 141q2 12 1 30.5t-4 36t-9 30t-14 12.5q-39 -27 -71 -68t-57.5 -89t-43 -101.5t-29.5 -104.5q-3 -85 -3 -152q0 -34 1 -63v-35q0 -68 -6 -129q-38 -21 -88 -21 q-14 -1 -29 1q-68 8 -135 12q-15 10 -17 79z" />
<glyph unicode="o" horiz-adv-x="921" d="M43 449q0 82 23.5 173t67.5 171.5t109.5 140t149.5 78.5q16 25 43 39t70 14q70 0 127 -33t100 -86t70.5 -124.5t40.5 -147.5h13q27 0 55 6q36 8 65 37q41 31 69.5 65.5t53.5 63.5q16 18 31.5 31.5t33.5 15.5q58 0 58 -62q0 -11 -2 -24q-4 -35 -28 -76t-54.5 -81 t-63.5 -74.5t-59 -59.5q-29 -27 -76 -41t-92 -18q-10 -94 -43 -179t-88 -150t-135 -102.5t-185 -37.5q-100 0 -167.5 44t-109.5 111.5t-59.5 149.5t-17.5 156zM307 436q0 -37 9.5 -70.5t27.5 -60t45 -41t62 -14.5q43 0 74.5 21.5t54 57.5t36 82t17.5 95q-66 41 -123 106.5 t-86 153.5q-35 -29 -57.5 -69t-36 -84t-18.5 -90t-5 -87z" />
<glyph unicode="p" horiz-adv-x="1034" d="M62 -413q4 77 10 181.5t12 221t6 217.5q0 76 12 141q0 41 -2 88t-6 107q-2 49 -5 91t-5 83t-5 87t-5 101q12 14 34.5 30.5t52 29t64.5 18.5q26 5 53 5l17 -1q12 -8 20.5 -50t12.5 -108q27 41 52.5 74t53.5 55q39 33 84 47.5t89 17.5q15 1 29 1q28 0 54 -4q39 -6 68 -19 q39 -16 76.5 -47.5t67.5 -77t48.5 -102.5t18.5 -123q0 -186 -73 -315t-183 -195h13q67 0 136 19q76 22 131 71q23 23 46.5 47.5t47.5 53.5q16 18 32 31.5t34 15.5q57 0 57 -61q0 -11 -2 -25q-6 -41 -32.5 -86t-63.5 -87t-80 -76t-80 -52q-72 -37 -156 -43q-27 -2 -54 -2 q-55 0 -106 8q-77 12 -138.5 35.5t-85.5 48.5q-10 10 -17.5 35.5t-7.5 55.5t5 55.5t20 35.5q23 16 43 17.5t34 -2.5q47 8 89.5 50t71 97t40.5 115q7 37 7 68q0 21 -3 40q-16 80 -72 116q-36 23 -75 23q-23 0 -47 -8q-51 -16 -95.5 -87.5t-66.5 -168.5v-100q2 -10 3 -19.5 t1 -19.5q0 -35 -1 -88t-3 -111.5t-3 -116t-3 -102.5q-2 -57 -3 -133t-4 -146.5t-12.5 -125t-25.5 -68.5q-20 -4 -54 -6q-14 -1 -27 -1l-41 2q-34 3 -63 13t-39 33q-3 10 -3 40q0 22 2 55z" />
<glyph unicode="q" horiz-adv-x="1124" d="M27 342q0 117 26.5 212t71.5 187q31 63 74 129t98 117t121 83q63 30 134 30h9q61 -2 100 -27.5t64 -62.5q20 12 46 25.5t51.5 22.5t48 12t38.5 -5q2 -6 2 -27q0 -16 -1 -40q-3 -58 -11 -144t-18.5 -187.5t-18.5 -195.5t-14 -172t-6 -117q36 12 68 12q19 0 37 -4 q48 -12 95 -26q29 33 82 67q27 18 48.5 45t46.5 56q16 18 31.5 31.5t33.5 15.5q57 0 57 -61q0 -11 -2 -25q-4 -33 -26.5 -79t-54 -90t-69.5 -79t-71 -43q23 -23 53.5 -72t58 -116.5t48 -150.5t22.5 -171v-17q0 -77 -16 -148q-18 -79 -59 -139t-105.5 -97t-152.5 -37 q-109 0 -180.5 52t-115.5 133t-66.5 178.5t-35.5 187.5q-8 55 -9 121v34q0 50 2 102q3 70 7 141t9 136q-23 -27 -57 -54.5t-76 -49t-87 -34.5q-39 -11 -76 -11h-12q-72 4 -119 37.5t-74.5 85t-38.5 112t-11 117.5zM312 458q-6 -39 -6 -79q0 -42 7 -86q14 -23 48 -16.5 t61 36.5q27 27 56.5 68t54 96t42 121.5t19.5 142.5l-18.5 37t-26.5 29q-16 10 -34.5 5t-35.5 -17q-29 -29 -63.5 -78t-62 -114.5t-41.5 -144.5zM816 -296v-14q0 -68 8 -136q10 -74 34.5 -139.5t67.5 -108.5q29 -29 54.5 -25t41.5 51q16 72 18 147v23q0 63 -9 122 q-11 69 -32.5 129.5t-52.5 103.5q-6 -4 -21.5 -8.5t-34 -5.5t-35.5 -1t-28 4q-10 -66 -11 -142z" />
<glyph unicode="r" horiz-adv-x="899" d="M-25 205q23 25 43.5 59.5t42 89t45 134t52.5 194.5q6 27 9 68t5 89t6 96t12.5 88t21.5 65.5t36 27.5q51 -2 81.5 -16.5t53.5 -32.5t44.5 -33.5t51.5 -21.5q26 -5 49 -5q25 0 44 6q38 11 71 28.5t63.5 34t73.5 18.5q25 0 45.5 -17.5t34.5 -45t21.5 -61.5t5.5 -63 q-4 -47 -21.5 -80.5t-34.5 -87.5q-18 -55 -35.5 -118.5t-29.5 -129t-16 -129.5q-2 -25 -2 -47q0 -36 4 -67q4 -35 20 -48.5t37.5 -11.5t46.5 14.5t43 28.5q29 23 49.5 47.5t44.5 53.5q16 18 31.5 31.5t34.5 15.5q57 0 57 -61q0 -12 -2 -25q-6 -49 -30.5 -98.5t-61.5 -92.5 t-81 -79.5t-91 -61.5q-33 -14 -84 -14t-103.5 9t-94.5 25.5t-56 36.5q-46 74 -58 170q-6 52 -7 106q1 45 5 91q10 102 29 203.5t33 185.5q-12 -10 -31.5 -12t-40 2t-37 11t-18.5 18q-6 -6 -21.5 -57.5t-33 -115t-34.5 -125t-28 -92.5q-18 -49 -29.5 -82.5t-22.5 -58 t-24.5 -41t-33.5 -31.5q-10 -8 -40 -17t-60.5 -11t-56.5 6t-28 37z" />
<glyph unicode="s" horiz-adv-x="894" d="M-61 76q0 41 16 86.5t45 68.5q61 66 106.5 160t76 195.5t49 202t26.5 180.5q4 39 29.5 42t60.5 5q16 20 53 38.5t86 18.5q23 0 39.5 -8t36.5 -23q12 -10 18.5 -25.5t9.5 -33.5t6 -36.5t9 -33.5q33 -70 78 -152.5t86 -165.5t69.5 -159t28.5 -133q0 -29 -5 -52.5t-9 -39.5 q45 23 72.5 51.5t48 53t37 43t41.5 20.5q57 0 57 -64q0 -43 -19.5 -89t-50 -88t-69.5 -76.5t-78 -57.5q-59 -27 -121.5 -41t-130.5 -14q-63 0 -125.5 9t-123 35.5t-116 71t-104.5 115.5q-14 -25 -37.5 -56.5t-50.5 -59t-54.5 -46t-47.5 -18.5q-23 0 -33 22.5t-10 53.5z M324 389q6 -29 37.5 -62.5t58.5 -50.5q25 -18 48 -18q10 0 18 4q32 10 42 45q6 17 6 40q0 18 -4 40q-8 49 -26.5 101.5t-45 102.5t-52.5 83q-6 -31 -16.5 -72t-22 -81t-23.5 -75.5t-20 -56.5z" />
<glyph unicode="t" horiz-adv-x="630" d="M-74 1184q10 14 51 27.5t70 23.5q53 16 114.5 25.5t119.5 19.5q18 4 36.5 14.5t24.5 20.5q23 41 75 71.5t99 30.5q39 -2 64.5 -27.5t21.5 -56.5q-2 -16 11.5 -22t29.5 -2t29.5 3t32.5 -1q25 0 52 -12.5t23 -47.5q2 -6 1 -17t-3 -23.5t-5 -23.5t-3 -16q-8 -23 -22.5 -40 t-51.5 -27q-31 -8 -57.5 -11t-63.5 -16q-23 -8 -31.5 -16t-19.5 -33q-10 -33 -22.5 -85t-25.5 -115.5t-26.5 -129t-22.5 -125t-16.5 -104.5t-7.5 -63q0 -27 9.5 -61t31 -63.5t52 -51t73.5 -21.5q23 0 44.5 12t41 31.5t37 41t31.5 38.5q16 18 31.5 31.5t33.5 15.5 q58 0 58 -62q0 -11 -2 -24q-6 -55 -38 -111.5t-78 -101.5t-102.5 -75t-113.5 -32q-115 0 -191.5 29t-121.5 79t-62.5 119.5t-17.5 153.5q2 41 5 74t8 64.5t12.5 65.5t15.5 77q23 111 47 205t37 139q8 35 3 48t-24 17q-14 2 -39.5 1t-54.5 -2t-58.5 -1t-52.5 7 q-20 4 -38.5 11t-30.5 22.5t-19.5 39t-3.5 62.5z" />
<glyph unicode="u" d="M66 385q0 31 4 85t11 119.5t17.5 134.5t22.5 128t27.5 103t31.5 59q18 8 57 15t82 7t82 -9t58 -34q-8 -23 -20.5 -79t-27 -127.5t-25.5 -151.5q-12 -81 -18 -153q-5 -59 -5 -106q1 -12 1 -22q2 -56 15 -78q16 -8 43 1.5t55.5 27t53 37.5t36.5 37q4 31 6 77t6.5 114.5 t9.5 161.5t15 218q0 23 13.5 38.5t34 25.5t43 14t40.5 4q20 0 44 -1t46.5 -7t40 -17.5t23.5 -29.5q4 -8 1 -57.5t-9.5 -120t-14.5 -153.5t-12 -159.5t-4 -138t10 -88.5q14 -39 27.5 -55.5t27.5 -20.5q18 -4 41 14.5t46.5 43t43 51t31.5 39.5q16 18 31.5 31.5t34.5 15.5 q57 0 57 -62q0 -11 -2 -24q-6 -55 -42 -111.5t-82 -102.5t-95 -75t-82 -31q-13 -1 -26 -1q-69 0 -117 18q-58 22 -92.5 53t-52 65.5t-23.5 59.5q-25 -33 -59.5 -66.5t-74.5 -61.5t-82 -44t-79 -16q-45 2 -100.5 29.5t-75.5 66.5q-16 33 -26.5 72.5t-15.5 80.5t-6 82t-1 74z " />
<glyph unicode="v" horiz-adv-x="958" d="M117 979q18 12 59 19.5t85 9.5q18 1 34 1q24 0 46 -2q36 -3 44 -12q10 -8 23.5 -62t27 -124t23.5 -139.5t16 -106.5q4 -39 12.5 -83t16.5 -85l16 -94q123 137 193.5 303t105.5 336q10 47 39 81t68 38h4q36 0 58 -34q19 -29 19 -63q0 -9 -1 -18q-6 -53 -27 -138 t-53.5 -184.5t-76.5 -203t-97.5 -191.5t-116 -153.5t-129.5 -87.5q-37 -12 -66.5 -13.5t-51 3t-36 12.5t-20.5 12q-4 2 -16.5 38t-29 88t-35 115.5t-34.5 122t-29.5 104.5t-17.5 67q-10 41 -20.5 105.5t-18.5 130t-13 122.5q-3 32 -3 55q0 18 2 31z" />
<glyph unicode="w" horiz-adv-x="1366" d="M74 397q0 49 8 136.5t21.5 180.5t31 174t37.5 116q18 10 57 17t82 7t82 -10t58 -35q-10 -29 -23.5 -96.5t-27 -150.5t-22.5 -170t-9 -156q0 -70 9 -103t54 -33q57 0 83 41t36 124t12 206t15 289q0 47 31.5 66.5t56.5 27.5q45 -2 77.5 -5t53 -16.5t30 -44t9.5 -88.5 q0 -66 -2.5 -155.5t-2.5 -183.5v-72q33 -98 72 -143.5t74 -45.5q43 0 52 37t9 103q0 70 -9 156.5t-21.5 168.5t-26.5 148.5t-23 95.5q18 25 57.5 35t82.5 10t82 -7t57 -17q18 -29 36.5 -110t32 -175t21.5 -183.5t8 -138.5q0 -66 -13 -139.5t-44 -135t-82 -102t-127 -40.5 q-55 0 -112.5 22.5t-107.5 54t-89 68.5t-60 68q-23 -31 -60.5 -68t-85.5 -68.5t-104.5 -54t-111.5 -22.5q-76 0 -127 40.5t-82 102t-43 135.5t-12 139z" />
<glyph unicode="x" horiz-adv-x="1222" d="M-106 58q8 42 37.5 92.5t68.5 80.5q82 76 138.5 193t72.5 307q4 51 21.5 103.5t48 92.5t74.5 65.5t104 25.5q49 0 80.5 -9.5t51 -23.5t31 -32.5t21.5 -37.5q14 -29 38 -89t54 -136q33 63 63.5 119.5t54.5 99.5t38 71t18 32q16 27 35 39t55 8q20 -2 36 -18.5t24 -40t7 -51 t-13 -48.5l-230 -416q29 -61 58.5 -118.5t59.5 -100.5t59.5 -68.5t56.5 -25.5q16 0 35.5 8t39 19.5t36 22.5t24.5 20q41 41 84 90q16 18 31.5 31.5t33.5 15.5q58 0 58 -62q0 -11 -2 -24q-6 -41 -26.5 -84t-50.5 -81t-65.5 -70.5t-72.5 -53.5q-33 -23 -79 -41t-87 -18 q-51 0 -107.5 22.5t-85.5 63.5q-41 57 -73.5 109.5t-61.5 103.5q-37 -68 -71.5 -128.5t-60.5 -106.5t-43 -75.5t-21 -35.5q-16 -31 -45 -44.5t-56 -11.5q-12 0 -22.5 13.5t-16.5 30t-8 31.5t0 24q2 23 12.5 46t22.5 48q2 4 20.5 37.5t48 88t67.5 124t79 145.5 q-29 66 -57.5 131.5t-63.5 136.5q-23 47 -50.5 56.5t-37.5 -13.5q-16 -14 -28.5 -49t-21.5 -74.5t-16.5 -79.5t-13.5 -63q-10 -37 -25.5 -86t-38 -100t-52 -98.5t-68.5 -84.5q-57 -68 -121 -102q-39 -17 -63 -17q-17 1 -27 9q-18 16 -17 43q-1 9 1 19z" />
<glyph unicode="y" d="M2 -324q12 70 66.5 108t135.5 65.5t181 54t205 71.5q-4 63 -7 123q-2 36 -2 67q0 21 1 40v10q-25 -43 -54.5 -84t-66.5 -73.5t-80 -52t-94 -21.5h-4q-42 0 -76 47q-35 49 -59.5 118.5t-40 145.5t-19.5 129q-5 57 -5 131v25q1 90 9 175t24.5 152.5t41.5 89.5q18 8 54 15.5 t75 7.5t74.5 -9.5t54.5 -33.5q-8 -25 -16.5 -72t-14.5 -109.5t-10 -131.5q-3 -47 -3 -92q0 -22 1 -44q2 -67 10 -126.5t25 -100.5q16 -8 30.5 -3t27.5 18.5t24.5 31t23.5 33.5q18 41 31.5 86t25 106.5t20.5 147.5t19 211q0 45 32 62.5t56 25.5q29 -2 58.5 -4t55.5 -8.5 t44.5 -17.5t24.5 -29q4 -8 2 -53.5t-7.5 -114t-12.5 -154.5t-13 -176t-10 -179t-4 -165q39 18 82 49t81 78q16 23 36 43t42 43q16 18 31.5 31.5t34.5 15.5q33 0 44 -20.5t11 -65.5q0 -41 -20.5 -84t-51 -81t-68.5 -70.5t-75 -53.5q-55 -41 -137 -78l6 -78q3 -36 3 -71 q0 -40 -4 -79q-7 -73 -38 -131.5t-90 -97t-160 -51.5q-37 -4 -78 -4q-21 0 -43 1q-65 3 -130.5 15.5t-125 34t-103.5 52t-67 70.5q-16 30 -16 64q0 12 2 25zM270 -328q2 -23 29 -36t61.5 -19t70.5 -6h58q49 2 84 42q31 36 31 97v14l-4 64q-66 -25 -126 -46.5t-106 -41 t-73 -36.5t-25 -32z" />
<glyph unicode="z" horiz-adv-x="1097" d="M113 805q0 27 5 67.5t36 61.5q10 6 66 18.5t136 25.5t173.5 26.5t176 22.5t144.5 12q27 1 46 1q26 0 38 -2q29 -8 44 -31.5t21.5 -54t7.5 -62.5t3 -56q0 -12 -17.5 -46t-46 -80t-67.5 -102.5t-78 -111.5q-94 -131 -213 -293q39 4 117.5 18t167 32.5t169 40t121.5 38.5 q20 1 37 1q44 1 62 -7q26 -10 26 -52q0 -20 -11 -38.5t-27.5 -34t-35 -27.5t-30.5 -20q-18 -10 -83 -32t-152 -46.5t-187 -51t-190.5 -49t-158 -37t-89.5 -16.5q-25 -2 -44.5 23.5t-34 61.5t-23.5 75t-13 63q-2 8 16.5 41t50 80t71.5 104.5t83 114.5q98 135 227 303 q-115 -20 -211 -34q-41 -6 -81.5 -12.5t-74.5 -10.5t-58.5 -7t-32.5 -3q-35 0 -60.5 29.5t-25.5 56.5z" />
<glyph unicode="{" horiz-adv-x="950" d="M53 795q10 16 30.5 31.5t49.5 25.5q41 10 87 3t91 1q20 20 23.5 39.5t-2.5 38t-18.5 35t-20.5 30.5q-29 41 -58.5 115t-33.5 158q0 82 17.5 152.5t62.5 120.5t121.5 79t191.5 29q45 -2 92 -13.5t89 -34t72 -59.5t38 -90q8 -45 -5.5 -63.5t-45.5 -18.5q-18 2 -35 14.5 t-35 28.5q-20 16 -53 29.5t-80 11.5q-43 0 -72 -17.5t-45 -43t-23.5 -55t-7.5 -56.5q0 -55 15.5 -100t37 -86t46 -80t43.5 -80q20 -45 -11.5 -88t-97.5 -84q31 -10 55.5 -34.5t39 -55.5t17.5 -61.5t-10 -53.5q-14 -47 -36.5 -92t-44 -87t-37 -78t-15.5 -64q0 -27 6.5 -64 t23.5 -70.5t45 -58t71 -24.5q47 -2 90 10t63 31q16 16 31.5 30.5t34.5 16.5q33 0 49 -20.5t6 -65.5q-8 -37 -35.5 -75t-70.5 -68.5t-95.5 -51t-109.5 -22.5q-174 0 -282.5 85t-108.5 250q0 33 9 78t22.5 93.5t27.5 92.5t27 74q8 20 15 51t7 60t-11 50.5t-40 25.5t-58.5 7 t-47.5 7q-20 6 -40 9t-34 13.5t-22.5 30t-4.5 58.5z" />
<glyph unicode="|" horiz-adv-x="624" d="M194 99.5q-1 60.5 0 131t2 137t3 119t2 76.5q2 53 3 144.5t3 195t4 212t6 197.5t8 149.5t11 70.5q6 8 39.5 15t72.5 9.5t73 -2t38 -16.5q10 -14 14 -78.5t3 -156t-5 -199t-9 -208.5t-11.5 -188t-10.5 -135q-2 -29 -6 -85t-7 -123.5t-7 -138t-9 -130t-9.5 -99.5t-8.5 -44 q-6 -6 -29.5 -11t-53 -7.5t-57.5 0t-42 14.5q-8 6 -12 48t-5 102.5z" />
<glyph unicode="}" horiz-adv-x="978" d="M117 27q-10 45 6 65.5t49 20.5q18 -2 33.5 -16.5t32.5 -30.5q20 -18 63 -30.5t90 -10.5q43 0 70.5 24.5t45 58t24 70.5t6.5 64q0 29 -15.5 64.5t-37 77.5t-44 87t-37.5 92q-12 23 -9 53.5t17.5 61.5t39 55.5t55.5 34.5q-66 41 -97.5 84t-11.5 88q18 41 43 80t46.5 80 t37 86t15.5 100q0 27 -7.5 56.5t-23.5 55t-45 43t-72 17.5q-47 2 -79.5 -11t-53.5 -30q-18 -16 -34.5 -28.5t-35.5 -14.5q-33 0 -46 18.5t-5 63.5q8 53 38 90t72 59.5t89 34t92 13.5q115 0 191.5 -29t121.5 -79t62.5 -120.5t17.5 -152.5q-4 -84 -33.5 -158t-58.5 -115 q-10 -14 -21.5 -30.5t-17.5 -35t-3 -37.5t24 -40q45 -8 91 -1t87 -3q29 -10 49 -25.5t31 -31.5q2 -39 -5.5 -58.5t-21.5 -30t-33.5 -13.5t-40.5 -9q-18 -4 -47.5 -7t-58.5 -7t-40 -25.5t-11 -50.5t7 -59.5t15 -51.5q12 -31 26.5 -74.5t28 -92t22.5 -93.5t9 -78 q0 -166 -108.5 -250.5t-282.5 -84.5q-57 2 -109.5 22.5t-95.5 51t-70.5 68.5t-35.5 75z" />
<glyph unicode="~" horiz-adv-x="1079" d="M188 1077q0 45 15.5 96.5t40 96.5t55.5 78.5t63 42.5q20 6 38 8t36 2q63 0 113.5 -23.5t92.5 -52.5t76 -52.5t64 -23.5q35 0 73 31t73 86q20 31 59 31q25 0 44.5 -16.5t19.5 -51.5v-14q-8 -59 -32 -116.5t-61.5 -102.5t-87 -74t-110.5 -29t-107.5 25.5t-83.5 55.5 t-68.5 55.5t-64.5 25.5q-27 0 -58.5 -21.5t-66.5 -70.5q-16 -23 -35.5 -35t-37.5 -12q-20 0 -35 15.5t-15 45.5z" />
<glyph unicode="&#xa1;" horiz-adv-x="618" d="M211 60.5q0 64.5 3 141.5t8 151.5t11.5 141t12.5 111.5q4 43 11 102.5t14.5 115t15.5 97.5t16 48q6 6 34 10t61.5 6t66.5 -1t49 -15q12 -10 15 -55.5t2 -102.5t-5 -114.5t-6 -90.5q-2 -51 -3 -121.5t-2 -147.5t-2 -152.5t-4 -138t-7 -104.5t-10 -53q-6 -8 -46 -14 t-86.5 -7t-84 4t-44.5 17q-12 14 -16 60.5t-4 111zM287 1284q-2 25 8 49.5t27.5 44t43 31.5t54.5 12q37 0 62.5 -10t43 -27.5t25.5 -39t10 -39.5q4 -74 -35 -112t-100 -40q-27 -2 -51.5 10.5t-44 31.5t-30.5 42.5t-13 46.5z" />
<glyph unicode="&#xa8;" horiz-adv-x="1038" d="M205 1321q0 76 45 116t110 40q27 0 51.5 -13.5t43 -34t30 -46t11.5 -48.5q0 -53 -44 -96t-106 -43q-39 0 -65.5 12.5t-44 30.5t-24.5 41t-7 41zM635 1325q0 76 45 116t111 40q27 0 51 -13.5t42.5 -34t30 -46t11.5 -48.5q0 -53 -44 -96t-106 -43q-39 0 -65.5 12.5t-44 31 t-24.5 41t-7 40.5z" />
<glyph unicode="&#xa9;" horiz-adv-x="1591" d="M41 756q0 156 59.5 294t162 239.5t239.5 160.5t295 59q156 0 294 -59t239.5 -160.5t160.5 -239.5t59 -294q0 -158 -59 -295t-160.5 -239.5t-240 -162t-293.5 -59.5q-158 0 -295 59.5t-239.5 162t-162 239.5t-59.5 295zM117 756q0 -141 53 -265t145.5 -216.5t216 -145.5 t265.5 -53q141 0 264 53t215 145.5t145.5 216.5t53.5 265t-53.5 264t-145.5 215t-215 145.5t-264 53.5t-265 -53.5t-216.5 -145.5t-145.5 -215t-53 -264zM406 752q0 113 27.5 204t83.5 154.5t138 98t189 34.5q57 0 107 -22.5t87 -57.5t57.5 -78t20.5 -84q0 -8 -4 -17 t-16 -15q-2 0 -19.5 -1t-37 -2t-38 -2t-24.5 -1q-16 0 -28.5 13t-12.5 34q0 43 -29.5 61.5t-62.5 18.5q-68 0 -107 -40t-59.5 -97.5t-25.5 -118t-5 -101.5q0 -33 6 -82t23.5 -95t51.5 -79t89 -33q39 0 77 14.5t72.5 32t63.5 32t49 14.5q10 0 13.5 -8.5t3.5 -16.5 q0 -37 -20.5 -83t-61.5 -84t-106.5 -62.5t-153.5 -18.5q-154 10 -250 135t-98 353z" />
<glyph unicode="&#xad;" horiz-adv-x="847" d="M115 612q0 20 6 39t29 23q10 0 51 3t99 6t125 8t127 8t107.5 6.5t65.5 3.5q37 0 55.5 -12.5t26.5 -34.5q4 -14 5 -30t1 -32q0 -43 -41 -59q-45 -18 -129 -17.5t-201 0.5q-55 0 -107 1t-94 3t-69 5.5t-31 7.5q-14 10 -18 32.5t-8 38.5z" />
<glyph unicode="&#xae;" horiz-adv-x="1591" d="M41 756q0 156 59.5 294t162 239.5t239.5 160.5t295 59q156 0 294 -59t239.5 -160.5t160.5 -239.5t59 -294q0 -158 -59 -295t-160.5 -239.5t-240 -162t-293.5 -59.5q-158 0 -295 59.5t-239.5 162t-162 239.5t-59.5 295zM117 756q0 -141 53 -265t145.5 -216.5t216 -145.5 t265.5 -53q141 0 264 53t215 145.5t145.5 216.5t53.5 265t-53.5 264t-145.5 215t-215 145.5t-264 53.5t-265 -53.5t-216.5 -145.5t-145.5 -215t-53 -264zM522 420q0 117 1 253t1 253v49t1 87t6.5 85t15.5 43q23 27 91.5 33t172.5 2q51 -2 112.5 -16.5t114 -39t88 -60.5 t35.5 -81q0 -61 -18.5 -101t-50 -68t-73.5 -46t-89 -37q0 -23 19.5 -76t48 -108t61 -97t59.5 -42q18 -31 16.5 -58.5t-15 -50t-35 -38t-40.5 -19.5q-68 -16 -115.5 28.5t-80.5 110.5t-53.5 135.5t-34.5 106.5q-4 14 -8 30.5t-21 18.5q-4 -23 -10 -70t-11 -99t-10.5 -99.5 t-9.5 -67.5q-2 -12 -4 -26.5t-9 -26t-21.5 -18.5t-39.5 -7q-29 0 -61.5 31t-32.5 86zM739 858q102 35 155.5 76t53.5 84q0 27 -19.5 38t-47 14t-61.5 2t-60 3q0 -45 -9.5 -107.5t-11.5 -109.5z" />
<glyph unicode="&#xb0;" horiz-adv-x="866" d="M131 1167q0 68 26.5 131.5t76 112.5t118 78t150.5 24q80 -4 139 -32.5t97 -71.5t56.5 -95.5t18.5 -105.5q0 -61 -23.5 -117.5t-72.5 -98.5t-123 -65.5t-170 -19.5q-82 4 -137.5 30t-90 62.5t-50 80.5t-15.5 87zM342 1143q0 -49 38 -76t103 -27q27 -2 49.5 14.5t39 43 t25.5 61.5t7 72q4 57 -34 92t-101 35q-29 0 -52.5 -21.5t-41 -54.5t-25.5 -69.5t-8 -69.5z" />
<glyph unicode="&#xb4;" horiz-adv-x="909" d="M367 1200q0 8 25.5 40t63.5 76t84 94t87 97q23 27 52.5 37t63.5 10q27 0 52.5 -5t47 -14t35 -20.5t13.5 -21.5q0 -27 -31 -60.5t-77 -69.5t-100 -71t-102.5 -62.5t-84 -46t-41.5 -20.5q-16 -4 -23 -4q-23 0 -44 12.5t-21 28.5z" />
<glyph unicode="&#xb8;" horiz-adv-x="757" d="M276 -350q0 23 13.5 30t29.5 7q45 0 74 -14.5t64 -14.5q43 0 73.5 16.5t30.5 42.5q0 37 -40 46.5t-88 13.5t-88 13t-40 44v2l84 170h133l-59 -104q-4 -12 -4 -15q0 -4 4 -4q6 0 23.5 5.5t37.5 5.5q33 0 66 -8.5t60.5 -29t45 -52t17.5 -76.5q0 -51 -19.5 -89t-52.5 -64 t-76 -38t-88 -12q-37 0 -72.5 11t-64.5 28.5t-46.5 40t-17.5 45.5z" />
<glyph unicode="&#xbf;" horiz-adv-x="1130" d="M80 223q0 82 32.5 147.5t83 120t112 98.5t116.5 83q31 20 60.5 38.5t54 40t39 48t14.5 65.5q0 31 -8 64q16 10 39.5 18t58.5 15q43 -6 67.5 -28t39 -50.5t18.5 -58t4 -50.5q0 -41 -13.5 -78t-35 -69.5t-47 -59t-51.5 -49.5q-33 -27 -82.5 -64.5t-95.5 -79.5t-78.5 -86 t-32.5 -85q0 -31 22.5 -67t57 -65.5t75.5 -49t78 -19.5q39 0 73 22.5t59.5 53.5t42 61.5t20.5 44.5q4 53 44 85t97 32q49 0 80 -11t48.5 -27.5t23.5 -33t6 -26.5q0 -31 -12.5 -61.5t-31 -60.5t-39 -54.5t-34.5 -38.5q-8 -10 -31.5 -32t-68.5 -45.5t-112.5 -40.5t-166.5 -17 q-86 0 -179 20.5t-170 65.5t-127 115.5t-50 168.5zM510 1268q0 53 44 96t105 43q39 0 66 -12.5t44 -30.5t24.5 -41t7.5 -41q0 -76 -45 -116t-111 -40q-29 0 -53.5 13.5t-43 34t-28.5 46t-10 48.5z" />
<glyph unicode="&#xc1;" horiz-adv-x="1447" d="M43.5 102.5q-2.5 24.5 5.5 49t21.5 52t23.5 64.5q0 2 21.5 51.5t50.5 114t58.5 131t45.5 107.5q6 16 29 71.5t55.5 132t73.5 168t86 181.5t90 170t88 135q4 14 48 12t96.5 -15.5t97.5 -35t55 -43.5q0 -2 9.5 -76t31 -190.5t56 -262t87 -292t124 -279.5t163.5 -223 q2 -4 11.5 -19.5t20.5 -35t21.5 -40t16.5 -32.5q0 -16 -17.5 -28.5t-39 -21.5t-42 -14.5t-26.5 -5.5q-41 -2 -91 19.5t-93 48.5q-52 31 -103 72q-27 27 -62.5 74.5t-70.5 103t-65.5 109t-45.5 89.5h-32.5t-65.5 1t-82 1t-81 1.5t-65.5 1.5h-31.5t-10 -7q-12 -12 -27 -43 q-6 -16 -16 -42.5t-20.5 -52t-20.5 -46t-12 -27.5q-23 -47 -40.5 -89t-35 -74.5t-40 -53t-54.5 -26.5q-20 -4 -50 4t-58 19.5t-47 22.5t-19 15q-20 29 -22.5 53.5zM582 623l247 4q-4 43 -11 105.5t-16 128t-19.5 124.5t-20.5 96q-14 -18 -32.5 -59t-39 -91t-40 -104.5 t-35 -99.5t-24.5 -73.5t-9 -30.5zM678 1681q0 8 25.5 40t63.5 76t84 94.5t87 97.5q23 27 52.5 37t64.5 10q27 0 52.5 -5.5t47 -14.5t34.5 -20t13 -22q0 -27 -30.5 -60.5t-76.5 -69.5t-100.5 -70.5t-102.5 -62.5t-84 -46t-42 -20q-16 -4 -23 -5q-23 0 -44 12.5t-21 28.5z" />
<glyph unicode="&#xc2;" horiz-adv-x="1447" d="M43.5 102.5q-2.5 24.5 5.5 49t21.5 52t23.5 64.5q0 2 21.5 51.5t50.5 114t58.5 131t45.5 107.5q6 16 29 71.5t55.5 132t73.5 168t86 181.5t90 170t88 135q4 14 48 12t96.5 -15.5t97.5 -35t55 -43.5q0 -2 9.5 -76t31 -190.5t56 -262t87 -292t124 -279.5t163.5 -223 q2 -4 11.5 -19.5t20.5 -35t21.5 -40t16.5 -32.5q0 -16 -17.5 -28.5t-39 -21.5t-42 -14.5t-26.5 -5.5q-41 -2 -91 19.5t-93 48.5q-52 31 -103 72q-27 27 -62.5 74.5t-70.5 103t-65.5 109t-45.5 89.5h-32.5t-65.5 1t-82 1t-81 1.5t-65.5 1.5h-31.5t-10 -7q-12 -12 -27 -43 q-6 -16 -16 -42.5t-20.5 -52t-20.5 -46t-12 -27.5q-23 -47 -40.5 -89t-35 -74.5t-40 -53t-54.5 -26.5q-20 -4 -50 4t-58 19.5t-47 22.5t-19 15q-20 29 -22.5 53.5zM461 1657q2 16 34.5 61t75.5 100.5t83 112t59 97.5q14 14 47 14q10 0 18 -3t10 -7q4 0 28 -26t57.5 -63.5 t71.5 -82.5t70 -84t53 -66l22 -27q0 -6 -13.5 -14t-33 -16t-39 -13.5t-31.5 -5.5t-45 30t-69 66.5t-64.5 69.5t-34.5 41q-31 -49 -50.5 -87t-37 -63.5t-34.5 -38t-42 -12.5q-23 0 -46.5 1t-44 2.5t-32.5 4.5t-12 9zM582 623l247 4q-4 43 -11 105.5t-16 128t-19.5 124.5 t-20.5 96q-14 -18 -32.5 -59t-39 -91t-40 -104.5t-35 -99.5t-24.5 -73.5t-9 -30.5z" />
<glyph unicode="&#xc4;" horiz-adv-x="1447" d="M43.5 102.5q-2.5 24.5 5.5 49t21.5 52t23.5 64.5q0 2 21.5 51.5t50.5 114t58.5 131t45.5 107.5q6 16 29 71.5t55.5 132t73.5 168t86 181.5t90 170t88 135q4 14 48 12t96.5 -15.5t97.5 -35t55 -43.5q0 -2 9.5 -76t31 -190.5t56 -262t87 -292t124 -279.5t163.5 -223 q2 -4 11.5 -19.5t20.5 -35t21.5 -40t16.5 -32.5q0 -16 -17.5 -28.5t-39 -21.5t-42 -14.5t-26.5 -5.5q-41 -2 -91 19.5t-93 48.5q-52 31 -103 72q-27 27 -62.5 74.5t-70.5 103t-65.5 109t-45.5 89.5h-32.5t-65.5 1t-82 1t-81 1.5t-65.5 1.5h-31.5t-10 -7q-12 -12 -27 -43 q-6 -16 -16 -42.5t-20.5 -52t-20.5 -46t-12 -27.5q-23 -47 -40.5 -89t-35 -74.5t-40 -53t-54.5 -26.5q-20 -4 -50 4t-58 19.5t-47 22.5t-19 15q-20 29 -22.5 53.5zM432 1761q0 76 45 116t111 40q27 0 51.5 -13.5t42.5 -34t29.5 -45.5t11.5 -48q0 -53 -44 -96.5t-106 -43.5 q-39 0 -65.5 12.5t-44 31t-24.5 41t-7 40.5zM582 623l247 4q-4 43 -11 105.5t-16 128t-19.5 124.5t-20.5 96q-14 -18 -32.5 -59t-39 -91t-40 -104.5t-35 -99.5t-24.5 -73.5t-9 -30.5zM862 1765q0 76 45 116t111 40q27 0 51.5 -13.5t42.5 -34t29.5 -45.5t11.5 -48 q0 -53 -44 -96.5t-105 -43.5q-39 0 -66 12.5t-44 31t-24.5 41t-7.5 40.5z" />
<glyph unicode="&#xc5;" horiz-adv-x="1447" d="M43.5 102.5q-2.5 24.5 5.5 49t21.5 52t23.5 64.5q0 2 21.5 51.5t50.5 114t58.5 131t45.5 107.5q6 16 29 71.5t55.5 132t73.5 168t86 181.5t90 170t88 135q4 14 48 12t96.5 -15.5t97.5 -35t55 -43.5q0 -2 9.5 -76t31 -190.5t56 -262t87 -292t124 -279.5t163.5 -223 q2 -4 11.5 -19.5t20.5 -35t21.5 -40t16.5 -32.5q0 -16 -17.5 -28.5t-39 -21.5t-42 -14.5t-26.5 -5.5q-41 -2 -91 19.5t-93 48.5q-52 31 -103 72q-27 27 -62.5 74.5t-70.5 103t-65.5 109t-45.5 89.5h-32.5t-65.5 1t-82 1t-81 1.5t-65.5 1.5h-31.5t-10 -7q-12 -12 -27 -43 q-6 -16 -16 -42.5t-20.5 -52t-20.5 -46t-12 -27.5q-23 -47 -40.5 -89t-35 -74.5t-40 -53t-54.5 -26.5q-20 -4 -50 4t-58 19.5t-47 22.5t-19 15q-20 29 -22.5 53.5zM508 1823q0 55 23.5 108.5t65.5 93t101.5 63t130.5 21.5q70 -4 120 -26.5t83 -58t49.5 -80t16.5 -89.5 q0 -51 -20.5 -98t-62.5 -82t-105.5 -54t-147.5 -15q-72 4 -120 24.5t-77.5 51t-43 67.5t-13.5 74zM582 623l247 4q-4 43 -11 105.5t-16 128t-19.5 124.5t-20.5 96q-14 -18 -32.5 -59t-39 -91t-40 -104.5t-35 -99.5t-24.5 -73.5t-9 -30.5zM709 1812q0 -35 28.5 -53t75.5 -18 q18 -2 35.5 9t30 30.5t18.5 44t6 49.5q2 39 -25.5 63.5t-74.5 24.5q-23 0 -40.5 -15.5t-29.5 -38t-18 -48t-6 -48.5z" />
<glyph unicode="&#xc7;" horiz-adv-x="1394" d="M23 539q0 113 45 224t113.5 211.5t150.5 182.5t157 137q82 61 170.5 112.5t172 87.5t160.5 53.5t136 8.5q45 -4 79 -21t56.5 -39.5t34 -46.5t11.5 -42q0 -35 -35 -96.5t-127 -124.5q-96 -63 -154.5 -89t-93.5 -22q-25 2 -36 19.5t-15 35.5q-6 23 -2 50 q-66 -25 -152 -92.5t-159.5 -164t-118.5 -214t-31 -242.5q6 -59 33.5 -108.5t68.5 -83t92.5 -52t104.5 -18.5q106 0 191.5 17.5t150 40t106.5 46t62 35.5q27 16 54.5 39t54 43t49 34.5t37.5 14.5q20 -4 38 -12q16 -8 28.5 -19.5t12.5 -29.5q0 -35 -27.5 -85t-76.5 -103.5 t-119.5 -108t-157 -97.5t-185.5 -71.5t-208 -32.5l-43 -78q-4 -12 -4 -14q0 -4 4 -4q6 0 23.5 5t38.5 5q33 0 65.5 -8t60 -28.5t45 -52.5t17.5 -77q0 -51 -19.5 -89t-52 -63.5t-75.5 -38t-88 -12.5q-37 0 -73 11.5t-64.5 29t-46 40t-17.5 44.5q0 23 13.5 30t29.5 7 q45 0 73.5 -14.5t63.5 -14.5q43 0 74 16.5t31 43.5q0 37 -40 46t-88.5 13t-88 13.5t-39.5 44.5v2l71 147q-121 12 -220 57.5t-171 123t-111.5 187t-39.5 251.5z" />
<glyph unicode="&#xc8;" horiz-adv-x="1214" d="M23 1415v35q10 63 62 82.5t120 21.5q127 4 251 3t249 -1q33 -2 69 -2q33 -2 75 -2t89 -2h25q61 0 121.5 3t105.5 -11t67.5 -53t8.5 -123l-4 -23q-2 -16 -35 -34q-16 -6 -34.5 -7.5t-37.5 -1.5q-23 0 -56.5 -1t-75.5 -2t-88 -2t-91 -1q-106 -2 -228 -4q-35 0 -46 -9 t-15 -40q-4 -18 -5 -62t-3 -89q-2 -53 -2 -115q0 -27 6 -33t35 -4l194 6q43 2 90.5 3t94.5 5q37 2 65.5 -8t49 -30.5t27.5 -49t1 -61.5q-8 -29 -15.5 -56.5t-17.5 -54.5q-10 -35 -41 -30q-18 2 -62 5t-99.5 6t-117 7t-112.5 6t-86 2t-39 -2q-2 -2 -5 -32.5t-6 -78t-5 -101.5 t-3 -101t0 -79t5 -32q8 -2 52 1t105.5 9.5t133 13.5t135 11t112 4t64.5 -8q14 -8 21.5 -50t3 -91.5t-25 -91.5t-61.5 -50q-6 0 -57 -3t-119.5 -8t-139.5 -10t-114 -9q-35 -4 -90 -5.5t-107 -1.5t-92 1t-46 3q-68 16 -86.5 62.5t-12.5 114.5q2 18 5 59t6.5 92t6.5 108.5 t5 107.5t4 88t2 50q-6 2 -18.5 1t-26.5 -1t-27.5 -1t-19.5 1q-18 6 -28.5 31t-13.5 55.5t0 59.5t13 45q12 20 25.5 30.5t30 14.5t35 5t40.5 7q2 90 4 164q0 31 1 60.5t2 54t2 40t1 17.5q2 16 -20.5 20.5t-51 3.5t-57 -4t-41.5 1q-14 2 -21 29.5t-11 60t-4 61.5zM317 1989 q0 10 13.5 21t35 20.5t47 14.5t52.5 5q35 0 64.5 -10t52.5 -37q41 -47 87 -97.5t84 -94.5t63.5 -75.5t25.5 -39.5q0 -16 -21.5 -28.5t-44.5 -12.5q-6 0 -22 4q-6 2 -42 20.5t-84 46t-102.5 62.5t-100.5 70.5t-77 69.5t-31 61z" />
<glyph unicode="&#xc9;" horiz-adv-x="1214" d="M23 1415v35q10 63 62 82.5t120 21.5q127 4 251 3t249 -1q33 -2 69 -2q33 -2 75 -2t89 -2h25q61 0 121.5 3t105.5 -11t67.5 -53t8.5 -123l-4 -23q-2 -16 -35 -34q-16 -6 -34.5 -7.5t-37.5 -1.5q-23 0 -56.5 -1t-75.5 -2t-88 -2t-91 -1q-106 -2 -228 -4q-35 0 -46 -9 t-15 -40q-4 -18 -5 -62t-3 -89q-2 -53 -2 -115q0 -27 6 -33t35 -4l194 6q43 2 90.5 3t94.5 5q37 2 65.5 -8t49 -30.5t27.5 -49t1 -61.5q-8 -29 -15.5 -56.5t-17.5 -54.5q-10 -35 -41 -30q-18 2 -62 5t-99.5 6t-117 7t-112.5 6t-86 2t-39 -2q-2 -2 -5 -32.5t-6 -78t-5 -101.5 t-3 -101t0 -79t5 -32q8 -2 52 1t105.5 9.5t133 13.5t135 11t112 4t64.5 -8q14 -8 21.5 -50t3 -91.5t-25 -91.5t-61.5 -50q-6 0 -57 -3t-119.5 -8t-139.5 -10t-114 -9q-35 -4 -90 -5.5t-107 -1.5t-92 1t-46 3q-68 16 -86.5 62.5t-12.5 114.5q2 18 5 59t6.5 92t6.5 108.5 t5 107.5t4 88t2 50q-6 2 -18.5 1t-26.5 -1t-27.5 -1t-19.5 1q-18 6 -28.5 31t-13.5 55.5t0 59.5t13 45q12 20 25.5 30.5t30 14.5t35 5t40.5 7q2 90 4 164q0 31 1 60.5t2 54t2 40t1 17.5q2 16 -20.5 20.5t-51 3.5t-57 -4t-41.5 1q-14 2 -21 29.5t-11 60t-4 61.5zM541 1675 q0 8 25.5 40t63.5 76t84 94t87 97q23 27 52.5 37.5t64.5 10.5q27 0 52 -5.5t46.5 -14.5t35 -20.5t13.5 -21.5q0 -27 -30.5 -60.5t-77 -69.5t-100.5 -70.5t-102 -62.5t-84 -46.5t-42 -20.5q-16 -4 -23 -4q-23 0 -44 12.5t-21 28.5z" />
<glyph unicode="&#xca;" horiz-adv-x="1214" d="M23 1415v35q10 63 62 82.5t120 21.5q127 4 251 3t249 -1q33 -2 69 -2q33 -2 75 -2t89 -2h25q61 0 121.5 3t105.5 -11t67.5 -53t8.5 -123l-4 -23q-2 -16 -35 -34q-16 -6 -34.5 -7.5t-37.5 -1.5q-23 0 -56.5 -1t-75.5 -2t-88 -2t-91 -1q-106 -2 -228 -4q-35 0 -46 -9 t-15 -40q-4 -18 -5 -62t-3 -89q-2 -53 -2 -115q0 -27 6 -33t35 -4l194 6q43 2 90.5 3t94.5 5q37 2 65.5 -8t49 -30.5t27.5 -49t1 -61.5q-8 -29 -15.5 -56.5t-17.5 -54.5q-10 -35 -41 -30q-18 2 -62 5t-99.5 6t-117 7t-112.5 6t-86 2t-39 -2q-2 -2 -5 -32.5t-6 -78t-5 -101.5 t-3 -101t0 -79t5 -32q8 -2 52 1t105.5 9.5t133 13.5t135 11t112 4t64.5 -8q14 -8 21.5 -50t3 -91.5t-25 -91.5t-61.5 -50q-6 0 -57 -3t-119.5 -8t-139.5 -10t-114 -9q-35 -4 -90 -5.5t-107 -1.5t-92 1t-46 3q-68 16 -86.5 62.5t-12.5 114.5q2 18 5 59t6.5 92t6.5 108.5 t5 107.5t4 88t2 50q-6 2 -18.5 1t-26.5 -1t-27.5 -1t-19.5 1q-18 6 -28.5 31t-13.5 55.5t0 59.5t13 45q12 20 25.5 30.5t30 14.5t35 5t40.5 7q2 90 4 164q0 31 1 60.5t2 54t2 40t1 17.5q2 16 -20.5 20.5t-51 3.5t-57 -4t-41.5 1q-14 2 -21 29.5t-11 60t-4 61.5zM369 1663 q2 16 34.5 61t75.5 100.5t83 112t59 97.5q14 14 47 14q10 0 18 -3t10 -7q4 0 28 -25.5t57.5 -63.5t71.5 -83t69.5 -84t53.5 -66l21 -26q0 -6 -13 -14.5t-32.5 -16.5t-39 -13.5t-31.5 -5.5t-45 30t-69 67t-64.5 69.5t-34.5 40.5q-31 -49 -50.5 -87t-37 -63.5t-35 -37.5 t-41.5 -12q-23 0 -46.5 1t-44 2t-32.5 4t-12 9z" />
<glyph unicode="&#xcb;" horiz-adv-x="1214" d="M23 1415v35q10 63 62 82.5t120 21.5q127 4 251 3t249 -1q33 -2 69 -2q33 -2 75 -2t89 -2h25q61 0 121.5 3t105.5 -11t67.5 -53t8.5 -123l-4 -23q-2 -16 -35 -34q-16 -6 -34.5 -7.5t-37.5 -1.5q-23 0 -56.5 -1t-75.5 -2t-88 -2t-91 -1q-106 -2 -228 -4q-35 0 -46 -9 t-15 -40q-4 -18 -5 -62t-3 -89q-2 -53 -2 -115q0 -27 6 -33t35 -4l194 6q43 2 90.5 3t94.5 5q37 2 65.5 -8t49 -30.5t27.5 -49t1 -61.5q-8 -29 -15.5 -56.5t-17.5 -54.5q-10 -35 -41 -30q-18 2 -62 5t-99.5 6t-117 7t-112.5 6t-86 2t-39 -2q-2 -2 -5 -32.5t-6 -78t-5 -101.5 t-3 -101t0 -79t5 -32q8 -2 52 1t105.5 9.5t133 13.5t135 11t112 4t64.5 -8q14 -8 21.5 -50t3 -91.5t-25 -91.5t-61.5 -50q-6 0 -57 -3t-119.5 -8t-139.5 -10t-114 -9q-35 -4 -90 -5.5t-107 -1.5t-92 1t-46 3q-68 16 -86.5 62.5t-12.5 114.5q2 18 5 59t6.5 92t6.5 108.5 t5 107.5t4 88t2 50q-6 2 -18.5 1t-26.5 -1t-27.5 -1t-19.5 1q-18 6 -28.5 31t-13.5 55.5t0 59.5t13 45q12 20 25.5 30.5t30 14.5t35 5t40.5 7q2 90 4 164q0 31 1 60.5t2 54t2 40t1 17.5q2 16 -20.5 20.5t-51 3.5t-57 -4t-41.5 1q-14 2 -21 29.5t-11 60t-4 61.5zM315 1806 q0 76 45.5 116t110.5 40q27 0 51.5 -13.5t43 -34t29.5 -45.5t11 -48q0 -53 -44 -96.5t-105 -43.5q-39 0 -65.5 12.5t-44 31t-25 41t-7.5 40.5zM745 1810q0 76 45.5 116t110.5 40q27 0 51.5 -13.5t43 -34t29.5 -45.5t11 -48q0 -53 -44 -96t-105 -43q-39 0 -65.5 12t-44 30.5 t-25 41t-7.5 40.5z" />
<glyph unicode="&#xcc;" horiz-adv-x="1009" d="M6 1387.5q4 27.5 23 56.5q8 12 78.5 22.5t172 18.5t220 14t222 9t179.5 3t92 -4q27 -6 38 -35.5t9 -64.5t-15 -64.5t-36 -35.5q-8 -2 -41 -5.5t-76 -7.5t-88 -8t-77 -4q-20 -279 -33 -498q-6 -94 -10.5 -183t-7.5 -159.5t-3 -112.5t6 -42q8 0 51.5 -4t93.5 -9.5t93 -11.5 t49 -8t7 -31.5t-2 -65.5t-10 -69t-17 -43q-2 -2 -61.5 -6t-148.5 -9t-192.5 -8.5t-194.5 -4.5t-157 1t-78 11q-18 14 -32.5 37.5t-22.5 50t-8 53.5t10 47q8 16 40 25.5t75 15.5t93 10t93 13q2 0 5 43t7 111.5t8.5 156.5t8.5 180t7 180t6 158t4 114t1 48q-8 2 -49 1t-89 -2 t-93 -2t-60 1q-31 6 -52 23.5t-31.5 42t-6.5 52zM197 1915q0 10 13 21.5t34.5 20.5t47 14t52.5 5q35 0 64.5 -10t52.5 -37q41 -47 87 -97t84 -94t63.5 -76t25.5 -40q0 -16 -21.5 -28.5t-44.5 -12.5q-6 0 -22 4q-6 2 -42 20.5t-84 46t-102.5 62.5t-100.5 71t-76.5 69.5 t-30.5 60.5z" />
<glyph unicode="&#xcd;" horiz-adv-x="1009" d="M6 1387.5q4 27.5 23 56.5q8 12 78.5 22.5t172 18.5t220 14t222 9t179.5 3t92 -4q27 -6 38 -35.5t9 -64.5t-15 -64.5t-36 -35.5q-8 -2 -41 -5.5t-76 -7.5t-88 -8t-77 -4q-20 -279 -33 -498q-6 -94 -10.5 -183t-7.5 -159.5t-3 -112.5t6 -42q8 0 51.5 -4t93.5 -9.5t93 -11.5 t49 -8t7 -31.5t-2 -65.5t-10 -69t-17 -43q-2 -2 -61.5 -6t-148.5 -9t-192.5 -8.5t-194.5 -4.5t-157 1t-78 11q-18 14 -32.5 37.5t-22.5 50t-8 53.5t10 47q8 16 40 25.5t75 15.5t93 10t93 13q2 0 5 43t7 111.5t8.5 156.5t8.5 180t7 180t6 158t4 114t1 48q-8 2 -49 1t-89 -2 t-93 -2t-60 1q-31 6 -52 23.5t-31.5 42t-6.5 52zM399 1663q0 8 26 40t63.5 76t83.5 94t87 97q23 27 52.5 37t64.5 10q27 0 52.5 -5t47 -14t35 -20.5t13.5 -21.5q0 -27 -31 -60.5t-77 -69.5t-100 -71t-102.5 -62.5t-84.5 -46t-42 -20.5q-16 -4 -22 -4q-23 0 -44.5 12.5 t-21.5 28.5z" />
<glyph unicode="&#xce;" horiz-adv-x="1009" d="M6 1387.5q4 27.5 23 56.5q8 12 78.5 22.5t172 18.5t220 14t222 9t179.5 3t92 -4q27 -6 38 -35.5t9 -64.5t-15 -64.5t-36 -35.5q-8 -2 -41 -5.5t-76 -7.5t-88 -8t-77 -4q-20 -279 -33 -498q-6 -94 -10.5 -183t-7.5 -159.5t-3 -112.5t6 -42q8 0 51.5 -4t93.5 -9.5t93 -11.5 t49 -8t7 -31.5t-2 -65.5t-10 -69t-17 -43q-2 -2 -61.5 -6t-148.5 -9t-192.5 -8.5t-194.5 -4.5t-157 1t-78 11q-18 14 -32.5 37.5t-22.5 50t-8 53.5t10 47q8 16 40 25.5t75 15.5t93 10t93 13q2 0 5 43t7 111.5t8.5 156.5t8.5 180t7 180t6 158t4 114t1 48q-8 2 -49 1t-89 -2 t-93 -2t-60 1q-31 6 -52 23.5t-31.5 42t-6.5 52zM240 1616q2 16 34.5 61t75.5 100.5t83 112t59 97.5q14 14 47 14q10 0 18 -3t10 -7q4 0 27.5 -26t57.5 -63.5t72 -82.5t69.5 -84t52.5 -66l22 -27q0 -6 -13 -14t-32.5 -16t-39 -13.5t-31.5 -5.5t-45 30t-69 66.5t-64.5 69.5 t-34.5 41q-31 -49 -50.5 -87t-37 -63.5t-35 -38t-41.5 -12.5q-23 0 -46.5 1.5t-44 2.5t-32.5 4t-12 9z" />
<glyph unicode="&#xcf;" horiz-adv-x="1009" d="M6 1387.5q4 27.5 23 56.5q8 12 78.5 22.5t172 18.5t220 14t222 9t179.5 3t92 -4q27 -6 38 -35.5t9 -64.5t-15 -64.5t-36 -35.5q-8 -2 -41 -5.5t-76 -7.5t-88 -8t-77 -4q-20 -279 -33 -498q-6 -94 -10.5 -183t-7.5 -159.5t-3 -112.5t6 -42q8 0 51.5 -4t93.5 -9.5t93 -11.5 t49 -8t7 -31.5t-2 -65.5t-10 -69t-17 -43q-2 -2 -61.5 -6t-148.5 -9t-192.5 -8.5t-194.5 -4.5t-157 1t-78 11q-18 14 -32.5 37.5t-22.5 50t-8 53.5t10 47q8 16 40 25.5t75 15.5t93 10t93 13q2 0 5 43t7 111.5t8.5 156.5t8.5 180t7 180t6 158t4 114t1 48q-8 2 -49 1t-89 -2 t-93 -2t-60 1q-31 6 -52 23.5t-31.5 42t-6.5 52zM190 1743q0 76 45.5 115.5t110.5 39.5q27 0 51.5 -13t43 -33.5t29.5 -46t11 -48.5q0 -53 -44 -96t-105 -43q-39 0 -65.5 12t-44 30.5t-25 41t-7.5 41.5zM621 1747q0 76 45 116t110 40q27 0 51.5 -13.5t43 -34t29.5 -46 t11 -48.5q0 -53 -44 -96t-105 -43q-39 0 -65.5 12.5t-44 30.5t-24.5 41t-7 41z" />
<glyph unicode="&#xd1;" horiz-adv-x="1210" d="M23 27q0 121 10 282.5t26.5 333.5t38 339t43 302t42 222t34.5 100q14 10 47 12t69 -5t67.5 -23.5t43.5 -43.5q33 -70 76 -176t90 -222t92.5 -231.5t81 -207t57 -146.5t21.5 -49q0 223 9.5 413.5t22.5 333t26.5 229.5t21.5 103q6 12 47 22.5t89 14.5t91 -2t56 -26 q6 -10 4 -47t-8.5 -91.5t-15.5 -119l-18 -129t-17.5 -126t-12.5 -106.5q-10 -135 -20.5 -263t-16.5 -244t-5 -213t11 -171q6 -39 -30.5 -68.5t-83.5 -44t-92.5 -12.5t-57.5 27q-47 98 -101 218t-110.5 248t-115 256t-111.5 242q-29 -201 -51 -374q-10 -74 -19.5 -151 t-16.5 -146.5t-11 -126t-4 -90.5q2 -66 -29 -103t-62 -39q-37 -6 -73.5 -6t-66.5 9.5t-49 32t-19 63.5zM352 1751q0 35 13.5 75t34 74.5t47 61.5t55.5 33q31 8 63 8q55 0 98.5 -18.5t79 -40t64.5 -40t55 -18.5q61 0 125 90q18 25 51 25q23 0 39.5 -13.5t16.5 -41.5v-11 q-8 -45 -29 -89t-52.5 -79.5t-74.5 -57t-94 -21.5q-55 0 -95 19t-72 43t-58.5 43t-53.5 19q-23 0 -50.5 -16t-55.5 -57q-31 -35 -66 -35q-16 0 -28.5 12.5t-12.5 34.5z" />
<glyph unicode="&#xd2;" horiz-adv-x="1320" d="M25 580q-10 111 10 217t61 211q70 174 211 319q74 76 164 126t207 65q8 2 12 9t7 14t9.5 13.5t20.5 6.5q72 6 142.5 -15.5t125.5 -56.5q66 -41 108 -96.5t77 -120.5q20 -39 43.5 -108.5t39 -161t17.5 -201t-23 -228.5q-18 -88 -49.5 -161.5t-60.5 -126.5 q-35 -63 -72 -113q-37 -45 -98.5 -91t-138 -78t-165.5 -42t-181 19q-92 27 -173 87t-143.5 141t-102.5 177t-48 195zM320 574.5q6 -89.5 32.5 -171t74.5 -149.5t118 -113q70 -43 148.5 -1t144 140.5t108.5 242t43 304.5q0 74 -27.5 160t-62.5 160t-65.5 122t-38.5 48 q-78 -4 -153 -33t-128 -80q-43 -43 -75.5 -102.5t-55.5 -121.5t-37 -122.5t-20 -107.5q-12 -86 -6 -175.5zM330 1952q0 10 13 21.5t34.5 20.5t47.5 14t52 5q35 0 64.5 -10t52.5 -37q41 -47 87 -97t84 -94t63.5 -76t25.5 -40q0 -16 -21.5 -28.5t-44.5 -12.5q-6 0 -22 4 q-8 2 -43 20.5t-83 46t-102.5 62.5t-100.5 71t-76.5 69.5t-30.5 60.5z" />
<glyph unicode="&#xd3;" horiz-adv-x="1320" d="M25 580q-10 111 10 217t61 211q70 174 211 319q74 76 164 126t207 65q8 2 12 9t7 14t9.5 13.5t20.5 6.5q72 6 142.5 -15.5t125.5 -56.5q66 -41 108 -96.5t77 -120.5q20 -39 43.5 -108.5t39 -161t17.5 -201t-23 -228.5q-18 -88 -49.5 -161.5t-60.5 -126.5 q-35 -63 -72 -113q-37 -45 -98.5 -91t-138 -78t-165.5 -42t-181 19q-92 27 -173 87t-143.5 141t-102.5 177t-48 195zM320 574.5q6 -89.5 32.5 -171t74.5 -149.5t118 -113q70 -43 148.5 -1t144 140.5t108.5 242t43 304.5q0 74 -27.5 160t-62.5 160t-65.5 122t-38.5 48 q-78 -4 -153 -33t-128 -80q-43 -43 -75.5 -102.5t-55.5 -121.5t-37 -122.5t-20 -107.5q-12 -86 -6 -175.5zM506 1653q0 8 25.5 39.5t63.5 75.5t84 94.5t87 97.5q23 27 52.5 37t64.5 10q27 0 52.5 -5t47 -14.5t34.5 -20.5t13 -21q0 -27 -30.5 -61t-76.5 -69.5t-100.5 -70.5 t-102.5 -62.5t-84 -46t-42 -20.5q-16 -4 -23 -4q-23 0 -44 12t-21 29z" />
<glyph unicode="&#xd4;" horiz-adv-x="1320" d="M25 580q-10 111 10 217t61 211q70 174 211 319q74 76 164 126t207 65q8 2 12 9t7 14t9.5 13.5t20.5 6.5q72 6 142.5 -15.5t125.5 -56.5q66 -41 108 -96.5t77 -120.5q20 -39 43.5 -108.5t39 -161t17.5 -201t-23 -228.5q-18 -88 -49.5 -161.5t-60.5 -126.5 q-35 -63 -72 -113q-37 -45 -98.5 -91t-138 -78t-165.5 -42t-181 19q-92 27 -173 87t-143.5 141t-102.5 177t-48 195zM320 574.5q6 -89.5 32.5 -171t74.5 -149.5t118 -113q70 -43 148.5 -1t144 140.5t108.5 242t43 304.5q0 74 -27.5 160t-62.5 160t-65.5 122t-38.5 48 q-78 -4 -153 -33t-128 -80q-43 -43 -75.5 -102.5t-55.5 -121.5t-37 -122.5t-20 -107.5q-12 -86 -6 -175.5zM410 1624q2 16 34.5 61.5t75.5 100.5t83 111.5t59 97.5q14 14 47 14q10 0 18 -3t10 -7q4 0 27.5 -25.5t57.5 -63.5t72 -83t69.5 -84l52.5 -65l22 -27q0 -6 -13 -14.5 t-32.5 -16.5t-39 -13t-31.5 -5t-45 29.5t-69 66.5t-64.5 69.5t-34.5 40.5q-31 -49 -50.5 -87t-37 -63.5t-35 -37.5t-41.5 -12q-23 0 -46.5 1t-44 2t-32.5 4t-12 9z" />
<glyph unicode="&#xd6;" horiz-adv-x="1320" d="M25 580q-10 111 10 217t61 211q70 174 211 319q74 76 164 126t207 65q8 2 12 9t7 14t9.5 13.5t20.5 6.5q72 6 142.5 -15.5t125.5 -56.5q66 -41 108 -96.5t77 -120.5q20 -39 43.5 -108.5t39 -161t17.5 -201t-23 -228.5q-18 -88 -49.5 -161.5t-60.5 -126.5 q-35 -63 -72 -113q-37 -45 -98.5 -91t-138 -78t-165.5 -42t-181 19q-92 27 -173 87t-143.5 141t-102.5 177t-48 195zM320 574.5q6 -89.5 32.5 -171t74.5 -149.5t118 -113q70 -43 148.5 -1t144 140.5t108.5 242t43 304.5q0 74 -27.5 160t-62.5 160t-65.5 122t-38.5 48 q-78 -4 -153 -33t-128 -80q-43 -43 -75.5 -102.5t-55.5 -121.5t-37 -122.5t-20 -107.5q-12 -86 -6 -175.5zM397 1753q0 76 45 116t111 40q27 0 51.5 -13.5t43 -34t29.5 -46t11 -48.5q0 -53 -44 -96t-105 -43q-39 0 -66 12.5t-44 31t-24.5 41t-7.5 40.5zM827 1757 q0 76 45.5 116t110.5 40q27 0 51.5 -13.5t43 -34t29.5 -45.5t11 -48q0 -53 -44 -96.5t-105 -43.5q-39 0 -65.5 12.5t-44 31t-25 41t-7.5 40.5z" />
<glyph unicode="&#xd8;" horiz-adv-x="1320" d="M25 580q-10 111 10 217t61 211q70 174 211 319q74 76 164 126t207 65q8 2 12 9t7 14t9.5 13.5t20.5 6.5q53 4 103.5 -6.5t97.5 -30.5q18 35 28 41q8 8 48 15t83 9t76 -3t31 -17q4 -14 -17.5 -67.5t-56.5 -131.5q16 -23 30.5 -47.5t29.5 -50.5q20 -39 43.5 -108.5t39 -161 t17.5 -201t-23 -228.5q-18 -88 -49.5 -161.5t-60.5 -126.5q-35 -63 -72 -113q-37 -45 -98.5 -91t-138 -78t-165.5 -42t-181 19q-20 6 -39 13t-35 15q-33 -59 -56.5 -100t-31.5 -47q-6 -6 -34 -11.5t-58.5 -7.5t-59 1t-39.5 16q-4 6 2 29.5t21.5 60.5t36 84t43.5 98 q-92 90 -149.5 208t-67.5 241zM320 563.5q8 -94.5 40 -180.5q16 33 27.5 57.5t18.5 40.5q27 55 73.5 151.5t102 211t115 235.5t112.5 224q-10 14 -14 14q-78 -4 -153 -33t-128 -80q-43 -43 -75.5 -102.5t-55.5 -121.5t-37 -122.5t-20 -107.5q-14 -92 -6 -186.5zM502 172 q20 -19 43 -31q70 -43 148.5 -1t144 140.5t108.5 242t43 304.5q0 45 -11 95.5t-28 101.5q-43 -84 -85 -165t-79.5 -151.5t-67.5 -127t-48 -88.5q-12 -23 -30.5 -57t-40 -77t-47.5 -90t-50 -96z" />
<glyph unicode="&#xd9;" horiz-adv-x="1374" d="M44 699.5q-9 138.5 0 271.5t26.5 244.5t37 190t31.5 107.5q6 16 35 32t67 27t82 16t79.5 3t60 -14t24.5 -37q2 -94 -13 -204.5t-30.5 -235.5t-24.5 -261.5t5 -281.5q14 -150 65.5 -247t110.5 -113q72 -23 124 2.5t88 76t57.5 113t33.5 111.5q23 92 36 208.5t19.5 247.5 t10.5 271.5t8 281.5q0 16 23.5 20.5t58.5 0.5t73.5 -14.5t73.5 -23.5t56.5 -28.5t21.5 -27.5q-2 -53 -4 -131t-6 -169.5t-10.5 -190.5t-14.5 -195.5t-18 -183.5t-23 -154q-20 -102 -75.5 -184.5t-128 -139.5t-151.5 -88t-146 -29q-76 2 -150 11.5t-141.5 33t-126 66.5 t-103.5 113q-68 104 -100.5 235t-41.5 269.5zM279 1946q0 10 13 21t34.5 20.5t47 14.5t52.5 5q35 0 64.5 -10t52.5 -37q41 -47 87 -97.5t84 -94.5t63.5 -75.5t25.5 -39.5q0 -16 -21.5 -28.5t-44.5 -12.5q-6 0 -22 4q-6 2 -42 20.5t-84 46t-102.5 62.5t-100.5 70.5 t-76.5 69.5t-30.5 61z" />
<glyph unicode="&#xda;" horiz-adv-x="1374" d="M44 699.5q-9 138.5 0 271.5t26.5 244.5t37 190t31.5 107.5q6 16 35 32t67 27t82 16t79.5 3t60 -14t24.5 -37q2 -94 -13 -204.5t-30.5 -235.5t-24.5 -261.5t5 -281.5q14 -150 65.5 -247t110.5 -113q72 -23 124 2.5t88 76t57.5 113t33.5 111.5q23 92 36 208.5t19.5 247.5 t10.5 271.5t8 281.5q0 16 23.5 20.5t58.5 0.5t73.5 -14.5t73.5 -23.5t56.5 -28.5t21.5 -27.5q-2 -53 -4 -131t-6 -169.5t-10.5 -190.5t-14.5 -195.5t-18 -183.5t-23 -154q-20 -102 -75.5 -184.5t-128 -139.5t-151.5 -88t-146 -29q-76 2 -150 11.5t-141.5 33t-126 66.5 t-103.5 113q-68 104 -100.5 235t-41.5 269.5zM655 1657q0 8 26 40t63.5 76t83.5 94t87 97q23 27 52.5 37t64.5 10q27 0 52.5 -5t47 -14.5t35 -20.5t13.5 -21q0 -27 -31 -61t-77 -69.5t-100 -70.5t-102.5 -62.5t-84.5 -46t-42 -20.5q-16 -4 -22 -4q-23 0 -44.5 12t-21.5 29z " />
<glyph unicode="&#xdb;" horiz-adv-x="1374" d="M44 699.5q-9 138.5 0 271.5t26.5 244.5t37 190t31.5 107.5q6 16 35 32t67 27t82 16t79.5 3t60 -14t24.5 -37q2 -94 -13 -204.5t-30.5 -235.5t-24.5 -261.5t5 -281.5q14 -150 65.5 -247t110.5 -113q72 -23 124 2.5t88 76t57.5 113t33.5 111.5q23 92 36 208.5t19.5 247.5 t10.5 271.5t8 281.5q0 16 23.5 20.5t58.5 0.5t73.5 -14.5t73.5 -23.5t56.5 -28.5t21.5 -27.5q-2 -53 -4 -131t-6 -169.5t-10.5 -190.5t-14.5 -195.5t-18 -183.5t-23 -154q-20 -102 -75.5 -184.5t-128 -139.5t-151.5 -88t-146 -29q-76 2 -150 11.5t-141.5 33t-126 66.5 t-103.5 113q-68 104 -100.5 235t-41.5 269.5zM422 1647q2 16 34.5 61t75.5 100.5t83 111.5t59 97q14 14 47 15q10 0 18.5 -3.5t10.5 -7.5q4 0 27.5 -25.5t57 -63.5t71.5 -83t70 -84t54 -65l21 -27q0 -6 -13.5 -14t-33 -16.5t-39 -13.5t-31.5 -5t-45 29.5t-69 66.5t-64.5 70 t-34.5 41q-31 -49 -50.5 -87t-37 -63.5t-34.5 -38t-42 -12.5q-23 0 -46.5 1t-44 2t-32.5 4.5t-12 9.5z" />
<glyph unicode="&#xdc;" horiz-adv-x="1374" d="M44 699.5q-9 138.5 0 271.5t26.5 244.5t37 190t31.5 107.5q6 16 35 32t67 27t82 16t79.5 3t60 -14t24.5 -37q2 -94 -13 -204.5t-30.5 -235.5t-24.5 -261.5t5 -281.5q14 -150 65.5 -247t110.5 -113q72 -23 124 2.5t88 76t57.5 113t33.5 111.5q23 92 36 208.5t19.5 247.5 t10.5 271.5t8 281.5q0 16 23.5 20.5t58.5 0.5t73.5 -14.5t73.5 -23.5t56.5 -28.5t21.5 -27.5q-2 -53 -4 -131t-6 -169.5t-10.5 -190.5t-14.5 -195.5t-18 -183.5t-23 -154q-20 -102 -75.5 -184.5t-128 -139.5t-151.5 -88t-146 -29q-76 2 -150 11.5t-141.5 33t-126 66.5 t-103.5 113q-68 104 -100.5 235t-41.5 269.5zM393 1776q0 76 45 115.5t111 39.5q27 0 51.5 -13t43 -33.5t29.5 -46t11 -48.5q0 -53 -44 -96t-105 -43q-39 0 -66 12t-44 30.5t-24.5 41t-7.5 41.5zM823 1780q0 76 45 115.5t111 39.5q27 0 51.5 -13t43 -33.5t29.5 -46t11 -48.5 q0 -53 -44 -96t-105 -43q-39 0 -66 12t-44 30.5t-24.5 41t-7.5 41.5z" />
<glyph unicode="&#xe0;" horiz-adv-x="1042" d="M55 360q0 133 39 263.5t112 232.5t173 165.5t223 63.5q25 0 53.5 -9t55 -22.5t45 -28.5t24.5 -28q2 8 13.5 15.5t26 12.5t28.5 8t22 3q16 0 36 -2t37.5 -8t28.5 -14t11 -21q0 -29 -13.5 -102.5t-29.5 -164.5t-29.5 -186.5t-13.5 -162.5q0 -49 9 -82t21.5 -52.5t27 -26.5 t26.5 -7q16 0 31.5 7t29.5 17q25 20 47.5 46t47.5 55q16 18 31.5 31.5t33.5 15.5q67 0 55 -86q-6 -41 -26.5 -84t-50 -81t-65.5 -70.5t-73 -53.5q-43 -23 -91 -31t-101 -8q-51 0 -92 19.5t-70 50.5t-46 66.5t-19 70.5q-29 -31 -70 -64.5t-88 -61.5t-96.5 -45t-94.5 -17 q-66 0 -107.5 42t-66 100t-35 122.5t-10.5 111.5zM231 1489q0 10 13.5 21.5t35 20.5t47 14t52.5 5q35 0 64.5 -10t52.5 -37q41 -47 87 -97t84 -94t63.5 -76t25.5 -40q0 -16 -21.5 -28.5t-44.5 -12.5q-6 0 -22 4q-6 2 -42 20.5t-84 46t-102.5 62.5t-100.5 71t-77 69.5 t-31 60.5zM350 356q0 -41 6 -58t23 -17q51 0 100 42t87 106.5t64.5 141t33.5 146.5v8q0 25 -13.5 55.5t-29.5 30.5q-47 -2 -95.5 -41t-87.5 -101.5t-63.5 -143.5t-24.5 -169z" />
<glyph unicode="&#xe1;" horiz-adv-x="1042" d="M55 360q0 133 39 263.5t112 232.5t173 165.5t223 63.5q25 0 53.5 -9t55 -22.5t45 -28.5t24.5 -28q2 8 13.5 15.5t26 12.5t28.5 8t22 3q16 0 36 -2t37.5 -8t28.5 -14t11 -21q0 -29 -13.5 -102.5t-29.5 -164.5t-29.5 -186.5t-13.5 -162.5q0 -49 9 -82t21.5 -52.5t27 -26.5 t26.5 -7q16 0 31.5 7t29.5 17q25 20 47.5 46t47.5 55q16 18 31.5 31.5t33.5 15.5q67 0 55 -86q-6 -41 -26.5 -84t-50 -81t-65.5 -70.5t-73 -53.5q-43 -23 -91 -31t-101 -8q-51 0 -92 19.5t-70 50.5t-46 66.5t-19 70.5q-29 -31 -70 -64.5t-88 -61.5t-96.5 -45t-94.5 -17 q-66 0 -107.5 42t-66 100t-35 122.5t-10.5 111.5zM350 356q0 -41 6 -58t23 -17q51 0 100 42t87 106.5t64.5 141t33.5 146.5v8q0 25 -13.5 55.5t-29.5 30.5q-47 -2 -95.5 -41t-87.5 -101.5t-63.5 -143.5t-24.5 -169zM537 1206q0 8 25.5 40t63.5 76t84 94t87 97 q23 27 52.5 37.5t63.5 10.5q27 0 52.5 -5.5t47 -14.5t35 -20.5t13.5 -21.5q0 -27 -31 -60.5t-77 -69.5t-100 -70.5t-102.5 -62.5t-84 -46.5t-41.5 -20.5q-16 -4 -23 -4q-23 0 -44 12.5t-21 28.5z" />
<glyph unicode="&#xe2;" horiz-adv-x="1042" d="M55 360q0 133 39 263.5t112 232.5t173 165.5t223 63.5q25 0 53.5 -9t55 -22.5t45 -28.5t24.5 -28q2 8 13.5 15.5t26 12.5t28.5 8t22 3q16 0 36 -2t37.5 -8t28.5 -14t11 -21q0 -29 -13.5 -102.5t-29.5 -164.5t-29.5 -186.5t-13.5 -162.5q0 -49 9 -82t21.5 -52.5t27 -26.5 t26.5 -7q16 0 31.5 7t29.5 17q25 20 47.5 46t47.5 55q16 18 31.5 31.5t33.5 15.5q67 0 55 -86q-6 -41 -26.5 -84t-50 -81t-65.5 -70.5t-73 -53.5q-43 -23 -91 -31t-101 -8q-51 0 -92 19.5t-70 50.5t-46 66.5t-19 70.5q-29 -31 -70 -64.5t-88 -61.5t-96.5 -45t-94.5 -17 q-66 0 -107.5 42t-66 100t-35 122.5t-10.5 111.5zM276 1171q2 16 35 61.5t76 101t83 111.5t58 97q14 14 47 14q10 0 18.5 -3t10.5 -7q4 0 27.5 -25.5t57.5 -63.5t72 -83t69.5 -84t53.5 -66l21 -26q0 -6 -13 -14t-32.5 -16.5t-39 -13.5t-32.5 -5q-12 0 -44.5 29.5t-68.5 66.5 t-64.5 70t-35.5 41q-31 -49 -50 -87t-36.5 -63.5t-35 -38t-41.5 -12.5q-23 0 -46.5 1t-44 2t-33 4t-12.5 9zM350 356q0 -41 6 -58t23 -17q51 0 100 42t87 106.5t64.5 141t33.5 146.5v8q0 25 -13.5 55.5t-29.5 30.5q-47 -2 -95.5 -41t-87.5 -101.5t-63.5 -143.5t-24.5 -169z " />
<glyph unicode="&#xe3;" horiz-adv-x="1042" d="M55 360q0 133 39 263.5t112 232.5t173 165.5t223 63.5q25 0 53.5 -9t55 -22.5t45 -28.5t24.5 -28q2 8 13.5 15.5t26 12.5t28.5 8t22 3q16 0 36 -2t37.5 -8t28.5 -14t11 -21q0 -29 -13.5 -102.5t-29.5 -164.5t-29.5 -186.5t-13.5 -162.5q0 -49 9 -82t21.5 -52.5t27 -26.5 t26.5 -7q16 0 31.5 7t29.5 17q25 20 47.5 46t47.5 55q16 18 31.5 31.5t33.5 15.5q67 0 55 -86q-6 -41 -26.5 -84t-50 -81t-65.5 -70.5t-73 -53.5q-43 -23 -91 -31t-101 -8q-51 0 -92 19.5t-70 50.5t-46 66.5t-19 70.5q-29 -31 -70 -64.5t-88 -61.5t-96.5 -45t-94.5 -17 q-66 0 -107.5 42t-66 100t-35 122.5t-10.5 111.5zM270 1260q0 35 13.5 74.5t34 74.5t47 61.5t55.5 32.5q31 8 63 8q55 0 98.5 -18t79 -39.5t64.5 -40t55 -18.5q61 0 125 90q18 25 51 24q23 0 39.5 -13t16.5 -42v-10q-8 -45 -28.5 -89t-52.5 -80t-75 -57.5t-94 -21.5 q-55 0 -95 19.5t-72 43t-58.5 43t-53.5 19.5q-23 0 -50 -16.5t-56 -57.5q-31 -35 -66 -35q-16 0 -28.5 12.5t-12.5 35.5zM350 356q0 -41 6 -58t23 -17q51 0 100 42t87 106.5t64.5 141t33.5 146.5v8q0 25 -13.5 55.5t-29.5 30.5q-47 -2 -95.5 -41t-87.5 -101.5t-63.5 -143.5 t-24.5 -169z" />
<glyph unicode="&#xe4;" horiz-adv-x="1042" d="M55 360q0 133 39 263.5t112 232.5t173 165.5t223 63.5q25 0 53.5 -9t55 -22.5t45 -28.5t24.5 -28q2 8 13.5 15.5t26 12.5t28.5 8t22 3q16 0 36 -2t37.5 -8t28.5 -14t11 -21q0 -29 -13.5 -102.5t-29.5 -164.5t-29.5 -186.5t-13.5 -162.5q0 -49 9 -82t21.5 -52.5t27 -26.5 t26.5 -7q16 0 31.5 7t29.5 17q25 20 47.5 46t47.5 55q16 18 31.5 31.5t33.5 15.5q67 0 55 -86q-6 -41 -26.5 -84t-50 -81t-65.5 -70.5t-73 -53.5q-43 -23 -91 -31t-101 -8q-51 0 -92 19.5t-70 50.5t-46 66.5t-19 70.5q-29 -31 -70 -64.5t-88 -61.5t-96.5 -45t-94.5 -17 q-66 0 -107.5 42t-66 100t-35 122.5t-10.5 111.5zM254 1323q0 76 45 116t111 40q27 0 51 -13.5t42.5 -34t30 -46t11.5 -48.5q0 -53 -44 -96t-106 -43q-39 0 -65.5 12.5t-44 31t-24.5 41t-7 40.5zM350 356q0 -41 6 -58t23 -17q51 0 100 42t87 106.5t64.5 141t33.5 146.5v8 q0 25 -13.5 55.5t-29.5 30.5q-47 -2 -95.5 -41t-87.5 -101.5t-63.5 -143.5t-24.5 -169zM684 1327q0 76 45 116t111 40q27 0 51 -13.5t42.5 -34t30 -46t11.5 -48.5q0 -53 -44 -96t-106 -43q-39 0 -65.5 12.5t-44 31t-24.5 41t-7 40.5z" />
<glyph unicode="&#xe5;" horiz-adv-x="1042" d="M55 360q0 133 39 263.5t112 232.5t173 165.5t223 63.5q25 0 53.5 -9t55 -22.5t45 -28.5t24.5 -28q2 8 13.5 15.5t26 12.5t28.5 8t22 3q16 0 36 -2t37.5 -8t28.5 -14t11 -21q0 -29 -13.5 -102.5t-29.5 -164.5t-29.5 -186.5t-13.5 -162.5q0 -49 9 -82t21.5 -52.5t27 -26.5 t26.5 -7q16 0 31.5 7t29.5 17q25 20 47.5 46t47.5 55q16 18 31.5 31.5t33.5 15.5q67 0 55 -86q-6 -41 -26.5 -84t-50 -81t-65.5 -70.5t-73 -53.5q-43 -23 -91 -31t-101 -8q-51 0 -92 19.5t-70 50.5t-46 66.5t-19 70.5q-29 -31 -70 -64.5t-88 -61.5t-96.5 -45t-94.5 -17 q-66 0 -107.5 42t-66 100t-35 122.5t-10.5 111.5zM311 1374q0 55 23.5 108.5t65.5 93.5t101.5 63.5t131.5 21.5q70 -4 120 -26.5t82.5 -58.5t49 -80t16.5 -89q0 -51 -20.5 -98t-62.5 -82t-105.5 -54.5t-147.5 -15.5q-72 4 -120 24.5t-77.5 51.5t-43 67.5t-13.5 73.5z M350 356q0 -41 6 -58t23 -17q51 0 100 42t87 106.5t64.5 141t33.5 146.5v8q0 25 -13.5 55.5t-29.5 30.5q-47 -2 -95.5 -41t-87.5 -101.5t-63.5 -143.5t-24.5 -169zM512 1364q0 -35 28.5 -53.5t75.5 -18.5q18 -2 36 9.5t30 31t18.5 43.5t6.5 49q2 39 -26 63.5t-75 24.5 q-23 0 -40 -15t-29.5 -37.5t-18.5 -48.5t-6 -48z" />
<glyph unicode="&#xe7;" horiz-adv-x="806" d="M55 508q0 117 29 220t81 180t123.5 122t160.5 45q66 0 123 -21.5t100 -60.5t67.5 -94t24.5 -123q0 -18 -4 -42.5t-16.5 -47t-35 -39t-59.5 -16.5q-72 4 -97.5 49t-25.5 115q0 8 1 15t1 17q-6 29 -22.5 32t-24.5 3q-41 0 -65.5 -34.5t-40 -87t-20.5 -111t-5 -107.5 q0 -66 16.5 -129t48 -114.5t77 -83t104.5 -31.5q53 0 111.5 13t99.5 54q25 20 47.5 46t46.5 55q16 18 31.5 31.5t34.5 15.5q68 0 55 -86q-6 -41 -26.5 -84t-50.5 -81t-65.5 -70.5t-72.5 -53.5q-25 -14 -57.5 -24.5t-70.5 -17.5t-77 -10t-74 -3q-4 0 -9 1t-9 1l-25 -47 q-4 -12 -4 -15q0 -4 4 -4q6 0 23.5 5.5t38.5 5.5q33 0 65.5 -8.5t60 -29t45 -52t17.5 -76.5q0 -51 -19.5 -89t-52 -64t-75.5 -38t-88 -12q-37 0 -73 11t-64.5 28.5t-46 40t-17.5 45.5t13.5 30t29.5 7q45 0 73.5 -14.5t63.5 -14.5q43 0 74 16.5t31 42.5q0 37 -40 46.5 t-88 13.5t-88 13t-40 44v2l61 127q-92 25 -156.5 80t-103.5 129t-56.5 161t-17.5 173z" />
<glyph unicode="&#xe8;" horiz-adv-x="800" d="M45 449q-4 117 21.5 229.5t84 203.5t150.5 147t221 61q49 0 93 -17.5t78 -51.5t54.5 -82t20.5 -108q0 -96 -36 -162.5t-97 -144.5q-27 -33 -56.5 -66.5t-58 -64.5t-54.5 -55.5t-44 -38.5q27 -61 78 -92t118 -29q102 0 166 44t123 110q16 18 31.5 31.5t34.5 15.5 q33 0 49 -21.5t6 -64.5q-23 -86 -69 -149.5t-109.5 -104.5t-139 -61.5t-153.5 -22.5q-100 -2 -190.5 33t-161 100.5t-113.5 156.5t-47 204zM113 1493q0 10 13 21.5t34.5 20.5t47 14t52.5 5q35 0 64.5 -10t52.5 -37q41 -47 87 -97t84 -94t63.5 -76t25.5 -40 q0 -16 -21.5 -28.5t-44.5 -12.5q-6 0 -22 4q-6 2 -42 20.5t-84 46t-102.5 62.5t-100.5 71t-76.5 69.5t-30.5 60.5zM321.5 583.5q-6.5 -71.5 0.5 -108.5q27 25 70.5 75t82.5 116q25 43 42.5 90t21.5 94q-8 33 -29 33q-57 6 -96 -42t-62.5 -117t-30 -140.5z" />
<glyph unicode="&#xe9;" horiz-adv-x="800" d="M45 449q-4 117 21.5 229.5t84 203.5t150.5 147t221 61q49 0 93 -17.5t78 -51.5t54.5 -82t20.5 -108q0 -96 -36 -162.5t-97 -144.5q-27 -33 -56.5 -66.5t-58 -64.5t-54.5 -55.5t-44 -38.5q27 -61 78 -92t118 -29q102 0 166 44t123 110q16 18 31.5 31.5t34.5 15.5 q33 0 49 -21.5t6 -64.5q-23 -86 -69 -149.5t-109.5 -104.5t-139 -61.5t-153.5 -22.5q-100 -2 -190.5 33t-161 100.5t-113.5 156.5t-47 204zM297 1202q0 8 25.5 40t63.5 76t84 94t87 97q23 27 52.5 37t64.5 10q27 0 52.5 -5t47 -14t34.5 -20.5t13 -21.5q0 -27 -30.5 -60.5 t-76.5 -69.5t-100.5 -70.5t-102.5 -62.5t-84 -46.5t-42 -20.5q-16 -4 -23 -4q-23 0 -44 12.5t-21 28.5zM321.5 583.5q-6.5 -71.5 0.5 -108.5q27 25 70.5 75t82.5 116q25 43 42.5 90t21.5 94q-8 33 -29 33q-57 6 -96 -42t-62.5 -117t-30 -140.5z" />
<glyph unicode="&#xea;" horiz-adv-x="800" d="M45 449q-4 117 21.5 229.5t84 203.5t150.5 147t221 61q49 0 93 -17.5t78 -51.5t54.5 -82t20.5 -108q0 -96 -36 -162.5t-97 -144.5q-27 -33 -56.5 -66.5t-58 -64.5t-54.5 -55.5t-44 -38.5q27 -61 78 -92t118 -29q102 0 166 44t123 110q16 18 31.5 31.5t34.5 15.5 q33 0 49 -21.5t6 -64.5q-23 -86 -69 -149.5t-109.5 -104.5t-139 -61.5t-153.5 -22.5q-100 -2 -190.5 33t-161 100.5t-113.5 156.5t-47 204zM135 1174q2 16 35 61t76 100.5t83 111.5t58 97q14 14 47 15q10 0 18.5 -3.5t10.5 -7.5q4 0 27.5 -25.5t57.5 -63.5t71.5 -83 t69.5 -84t53 -66l22 -26q0 -6 -13.5 -14t-33 -16.5t-39 -13.5t-31.5 -5t-45 29.5t-68.5 66.5t-64.5 70t-35 41q-31 -49 -50 -87t-36.5 -63.5t-35 -38t-42.5 -12.5q-23 0 -46 1t-43.5 2t-33 4.5t-12.5 9.5zM321.5 583.5q-6.5 -71.5 0.5 -108.5q27 25 70.5 75t82.5 116 q25 43 42.5 90t21.5 94q-8 33 -29 33q-57 6 -96 -42t-62.5 -117t-30 -140.5z" />
<glyph unicode="&#xeb;" horiz-adv-x="800" d="M45 449q-4 117 21.5 229.5t84 203.5t150.5 147t221 61q49 0 93 -17.5t78 -51.5t54.5 -82t20.5 -108q0 -96 -36 -162.5t-97 -144.5q-27 -33 -56.5 -66.5t-58 -64.5t-54.5 -55.5t-44 -38.5q27 -61 78 -92t118 -29q102 0 166 44t123 110q16 18 31.5 31.5t34.5 15.5 q33 0 49 -21.5t6 -64.5q-23 -86 -69 -149.5t-109.5 -104.5t-139 -61.5t-153.5 -22.5q-100 -2 -190.5 33t-161 100.5t-113.5 156.5t-47 204zM104 1333q0 76 45.5 116t110.5 40q27 0 51.5 -13.5t43 -34t29.5 -45.5t11 -48q0 -53 -44 -96.5t-105 -43.5q-39 0 -65.5 12.5t-44 31 t-25 41t-7.5 40.5zM321.5 583.5q-6.5 -71.5 0.5 -108.5q27 25 70.5 75t82.5 116q25 43 42.5 90t21.5 94q-8 33 -29 33q-57 6 -96 -42t-62.5 -117t-30 -140.5zM535 1337q0 76 45 116t110 40q27 0 51.5 -13.5t43 -34t29.5 -45.5t11 -48q0 -53 -44 -96.5t-105 -43.5 q-39 0 -65.5 12.5t-44 31t-24.5 41t-7 40.5z" />
<glyph unicode="&#xec;" horiz-adv-x="436" d="M-76 1499q0 10 13.5 21.5t35 20.5t47 14.5t52.5 5.5q35 0 64.5 -10.5t51.5 -37.5q41 -47 87.5 -97t84 -94t63.5 -76t26 -40q0 -16 -21.5 -28.5t-44.5 -12.5q-7 0 -23 4q-6 2 -41.5 20.5t-84 46.5t-102.5 62.5t-100 70.5t-77 70t-31 60zM35 334.5q2 66.5 10 145.5 t20.5 162t29 154.5t36 124t39.5 70.5q10 2 44 2t72 -4t69.5 -12t35.5 -21q10 -14 8 -60t-11 -108.5t-23.5 -136t-26.5 -144.5t-21.5 -131.5t-9.5 -96.5q10 -53 39 -64.5t88 16.5q23 10 46.5 41t47.5 60q16 18 31.5 31.5t34.5 15.5q69 0 57 -86q-6 -41 -26.5 -84t-50 -81 t-65.5 -70.5t-73 -53.5q-33 -18 -69.5 -32.5t-74.5 -17.5t-76 5t-73 37q-39 31 -68.5 97.5t-37.5 133.5q-4 41 -2 107.5z" />
<glyph unicode="&#xed;" horiz-adv-x="436" d="M35 334.5q2 66.5 10 145.5t20.5 162t29 154.5t36 124t39.5 70.5q10 2 44 2t72 -4t69.5 -12t35.5 -21q10 -14 8 -60t-11 -108.5t-23.5 -136t-26.5 -144.5t-21.5 -131.5t-9.5 -96.5q10 -53 39 -64.5t88 16.5q23 10 46.5 41t47.5 60q16 18 31.5 31.5t34.5 15.5q69 0 57 -86 q-6 -41 -26.5 -84t-50 -81t-65.5 -70.5t-73 -53.5q-33 -18 -69.5 -32.5t-74.5 -17.5t-76 5t-73 37q-39 31 -68.5 97.5t-37.5 133.5q-4 41 -2 107.5zM150 1202q0 8 25.5 40t63 76t84 94t87.5 97q23 27 52.5 37t63.5 10q27 0 52.5 -5t47 -14t35 -20.5t13.5 -21.5 q0 -27 -31 -60.5t-77 -69.5t-100 -70.5t-102.5 -62.5t-84 -46.5t-41.5 -20.5q-16 -4 -23 -4q-23 0 -44 12.5t-21 28.5z" />
<glyph unicode="&#xee;" horiz-adv-x="436" d="M-18 1163q2 16 34.5 61.5t75.5 100.5t83 111.5t58 97.5q14 14 48 14q10 0 18 -3t10 -7q4 0 27.5 -25.5t57.5 -63.5t72 -83t69.5 -84t52.5 -66l22 -26q0 -6 -13 -14.5t-32.5 -16.5t-39 -13t-31.5 -5t-45 29.5t-69 66.5t-64.5 69.5t-34.5 41.5q-31 -49 -50.5 -87t-37 -64 t-35 -38t-41.5 -12q-23 0 -46.5 1t-44 2t-32.5 4t-12 9zM35 334.5q2 66.5 10 145.5t20.5 162t29 154.5t36 124t39.5 70.5q10 2 44 2t72 -4t69.5 -12t35.5 -21q10 -14 8 -60t-11 -108.5t-23.5 -136t-26.5 -144.5t-21.5 -131.5t-9.5 -96.5q10 -53 39 -64.5t88 16.5 q23 10 46.5 41t47.5 60q16 18 31.5 31.5t34.5 15.5q69 0 57 -86q-6 -41 -26.5 -84t-50 -81t-65.5 -70.5t-73 -53.5q-33 -18 -69.5 -32.5t-74.5 -17.5t-76 5t-73 37q-39 31 -68.5 97.5t-37.5 133.5q-4 41 -2 107.5z" />
<glyph unicode="&#xef;" horiz-adv-x="436" d="M-55 1323q0 76 45 116t110 40q27 0 51.5 -13.5t43 -34t30 -46t11.5 -48.5q0 -53 -44.5 -96t-105.5 -43q-39 0 -65.5 12.5t-44 31t-24.5 41t-7 40.5zM35 334.5q2 66.5 10 145.5t20.5 162t29 154.5t36 124t39.5 70.5q10 2 44 2t72 -4t69.5 -12t35.5 -21q10 -14 8 -60 t-11 -108.5t-23.5 -136t-26.5 -144.5t-21.5 -131.5t-9.5 -96.5q10 -53 39 -64.5t88 16.5q23 10 46.5 41t47.5 60q16 18 31.5 31.5t34.5 15.5q69 0 57 -86q-6 -41 -26.5 -84t-50 -81t-65.5 -70.5t-73 -53.5q-33 -18 -69.5 -32.5t-74.5 -17.5t-76 5t-73 37q-39 31 -68.5 97.5 t-37.5 133.5q-4 41 -2 107.5zM375 1327q0 76 45 116t110 40q27 0 51.5 -13.5t43 -34t30 -46t11.5 -48.5q0 -53 -44 -96t-106 -43q-39 0 -65.5 12.5t-44 31t-24.5 41t-7 40.5z" />
<glyph unicode="&#xf1;" horiz-adv-x="1034" d="M106.5 85q-2.5 69 1 164t10.5 202.5t11 195.5q0 45 2 100.5t6 105.5t9.5 87t13.5 47q8 8 36.5 18.5t65.5 18.5t77 11t69 -1q8 -2 11 -22.5t2 -50t-4 -64.5t-5 -63q37 51 77.5 95t78.5 75.5t71 49t55 15.5q18 -2 47 -12t58.5 -26.5t56.5 -37t41 -39.5q10 -12 10 -62 t-4 -113.5t-11 -129t-9 -110.5q-4 -45 -10.5 -105.5t-5.5 -116t17.5 -93.5t59.5 -38q23 0 49.5 15.5t40.5 29.5q25 20 47.5 46t46.5 55q16 18 32 31.5t34 15.5q67 0 55 -86q-6 -41 -25.5 -85t-49 -84t-65.5 -72t-75 -48q-43 -18 -95 -24.5t-114 -6.5q-66 0 -121 31t-81 74 q-27 37 -32 108.5t-1 154.5t12 165t8 141q2 12 1 30.5t-4 36t-9 30t-14 12.5q-39 -27 -71 -68t-57.5 -89t-43 -101.5t-29.5 -104.5q-4 -127 -2 -215t-6 -164q-49 -27 -117 -19.5t-135 11.5q-14 10 -16.5 79zM207 1257q0 35 13 75t33.5 75t47.5 61.5t55 32.5q31 8 64 8 q55 0 98 -18t79 -39.5t64.5 -40t55.5 -18.5q61 0 125 90q18 25 51 24q23 0 39 -13t16 -42v-10q-8 -45 -28.5 -89t-52 -80t-74.5 -57.5t-95 -21.5q-55 0 -95 19.5t-71.5 43t-58.5 43t-53 19.5q-23 0 -50.5 -16.5t-56.5 -57.5q-31 -35 -65 -35q-16 0 -28.5 12.5t-12.5 34.5z " />
<glyph unicode="&#xf2;" horiz-adv-x="921" d="M43 449q0 82 23.5 173t67.5 171.5t109.5 140t149.5 78.5q16 25 43 39t70 14q70 0 127 -33t100 -86t70.5 -124.5t40.5 -147.5q31 -2 67.5 6t65.5 37q41 31 69.5 65.5t53.5 63.5q16 18 31.5 31.5t33.5 15.5q68 0 56 -86q-4 -35 -28 -76t-54.5 -81t-63.5 -74.5t-59 -59.5 q-29 -27 -76 -41t-92 -18q-10 -94 -43 -179t-88 -150t-135 -102.5t-185 -37.5q-100 0 -167.5 44t-109.5 111.5t-59.5 149.5t-17.5 156zM156 1507q0 10 13 21.5t34.5 21t47 14.5t52.5 5q35 0 64.5 -10.5t52.5 -36.5q41 -47 87 -97.5t84 -94.5t63.5 -75.5t25.5 -40.5 q0 -16 -21.5 -28t-44.5 -12q-6 0 -22 4q-6 2 -42 20.5t-84 46t-102.5 62t-100.5 70.5t-76.5 70t-30.5 60zM307 436q0 -37 9.5 -70.5t27.5 -60t45 -41t62 -14.5q43 0 74.5 21.5t54 57.5t36 82t17.5 95q-66 41 -123 106.5t-86 153.5q-35 -29 -57.5 -69t-36 -84t-18.5 -90 t-5 -87z" />
<glyph unicode="&#xf3;" horiz-adv-x="921" d="M43 449q0 82 23.5 173t67.5 171.5t109.5 140t149.5 78.5q16 25 43 39t70 14q70 0 127 -33t100 -86t70.5 -124.5t40.5 -147.5q31 -2 67.5 6t65.5 37q41 31 69.5 65.5t53.5 63.5q16 18 31.5 31.5t33.5 15.5q68 0 56 -86q-4 -35 -28 -76t-54.5 -81t-63.5 -74.5t-59 -59.5 q-29 -27 -76 -41t-92 -18q-10 -94 -43 -179t-88 -150t-135 -102.5t-185 -37.5q-100 0 -167.5 44t-109.5 111.5t-59.5 149.5t-17.5 156zM307 436q0 -37 9.5 -70.5t27.5 -60t45 -41t62 -14.5q43 0 74.5 21.5t54 57.5t36 82t17.5 95q-66 41 -123 106.5t-86 153.5 q-35 -29 -57.5 -69t-36 -84t-18.5 -90t-5 -87zM352 1200q0 8 25.5 40t63.5 76t84 94t87 97q23 27 52.5 37t64.5 10q27 0 52.5 -5t47 -14t35 -20.5t13.5 -21.5q0 -27 -31 -60.5t-77 -69.5t-100.5 -71t-102.5 -62.5t-84 -46t-42 -20.5q-16 -4 -22 -4q-23 0 -44.5 12.5 t-21.5 28.5z" />
<glyph unicode="&#xf4;" horiz-adv-x="921" d="M43 449q0 82 23.5 173t67.5 171.5t109.5 140t149.5 78.5q16 25 43 39t70 14q70 0 127 -33t100 -86t70.5 -124.5t40.5 -147.5q31 -2 67.5 6t65.5 37q41 31 69.5 65.5t53.5 63.5q16 18 31.5 31.5t33.5 15.5q68 0 56 -86q-4 -35 -28 -76t-54.5 -81t-63.5 -74.5t-59 -59.5 q-29 -27 -76 -41t-92 -18q-10 -94 -43 -179t-88 -150t-135 -102.5t-185 -37.5q-100 0 -167.5 44t-109.5 111.5t-59.5 149.5t-17.5 156zM190 1165q2 16 35 61.5t76 100.5t83 111.5t58 97.5q14 14 47 14q10 0 18.5 -3t10.5 -7q4 0 27.5 -25.5t57.5 -63.5t72 -83t69.5 -84 t53.5 -66l21 -26q0 -6 -13 -14.5t-32.5 -16.5t-39 -13t-32.5 -5q-12 0 -44.5 29.5t-68.5 66.5t-64.5 69.5t-35.5 41.5q-31 -49 -50 -87t-36.5 -63.5t-35 -38t-41.5 -12.5q-23 0 -46.5 1t-44 2t-33 4t-12.5 9zM307 436q0 -37 9.5 -70.5t27.5 -60t45 -41t62 -14.5 q43 0 74.5 21.5t54 57.5t36 82t17.5 95q-66 41 -123 106.5t-86 153.5q-35 -29 -57.5 -69t-36 -84t-18.5 -90t-5 -87z" />
<glyph unicode="&#xf5;" horiz-adv-x="921" d="M43 449q0 82 23.5 173t67.5 171.5t109.5 140t149.5 78.5q16 25 43 39t70 14q70 0 127 -33t100 -86t70.5 -124.5t40.5 -147.5q31 -2 67.5 6t65.5 37q41 31 69.5 65.5t53.5 63.5q16 18 31.5 31.5t33.5 15.5q68 0 56 -86q-4 -35 -28 -76t-54.5 -81t-63.5 -74.5t-59 -59.5 q-29 -27 -76 -41t-92 -18q-10 -94 -43 -179t-88 -150t-135 -102.5t-185 -37.5q-100 0 -167.5 44t-109.5 111.5t-59.5 149.5t-17.5 156zM150 1233q0 35 13 75t33.5 74.5t47 61t55.5 33.5q31 8 63 8q55 0 98.5 -18.5t79 -40t64.5 -40t55 -18.5q61 0 125 90q18 25 52 25 q23 0 39 -13.5t16 -42.5v-10q-8 -45 -28.5 -89t-52.5 -80t-75 -57.5t-94 -21.5q-55 0 -95 19.5t-72 43t-58.5 43t-53.5 19.5q-23 0 -50 -16t-56 -57q-31 -35 -66 -35q-16 0 -28 12t-12 35zM307 436q0 -37 9.5 -70.5t27.5 -60t45 -41t62 -14.5q43 0 74.5 21.5t54 57.5t36 82 t17.5 95q-66 41 -123 106.5t-86 153.5q-35 -29 -57.5 -69t-36 -84t-18.5 -90t-5 -87z" />
<glyph unicode="&#xf6;" horiz-adv-x="921" d="M43 449q0 82 23.5 173t67.5 171.5t109.5 140t149.5 78.5q16 25 43 39t70 14q70 0 127 -33t100 -86t70.5 -124.5t40.5 -147.5q31 -2 67.5 6t65.5 37q41 31 69.5 65.5t53.5 63.5q16 18 31.5 31.5t33.5 15.5q68 0 56 -86q-4 -35 -28 -76t-54.5 -81t-63.5 -74.5t-59 -59.5 q-29 -27 -76 -41t-92 -18q-10 -94 -43 -179t-88 -150t-135 -102.5t-185 -37.5q-100 0 -167.5 44t-109.5 111.5t-59.5 149.5t-17.5 156zM147 1292q0 76 45.5 116t110.5 40q27 0 51.5 -13.5t43 -34t29.5 -45.5t11 -48q0 -53 -44 -96.5t-105 -43.5q-39 0 -65.5 12.5t-44 31 t-25 41t-7.5 40.5zM307 436q0 -37 9.5 -70.5t27.5 -60t45 -41t62 -14.5q43 0 74.5 21.5t54 57.5t36 82t17.5 95q-66 41 -123 106.5t-86 153.5q-35 -29 -57.5 -69t-36 -84t-18.5 -90t-5 -87zM578 1296q0 76 45 116t110 40q27 0 51.5 -13.5t43 -34t29.5 -45.5t11 -48 q0 -53 -44 -96.5t-105 -43.5q-39 0 -65.5 12.5t-44 31t-24.5 41t-7 40.5z" />
<glyph unicode="&#xf8;" horiz-adv-x="921" d="M43 449q0 82 23.5 173t67.5 171.5t109.5 140t149.5 78.5q16 25 43 39t70 14q47 0 98 -21q35 84 60.5 138.5t35.5 64.5q8 8 38 15.5t63 8.5t57.5 -3t22.5 -17q2 -10 -6.5 -39.5t-26 -75.5t-41 -104.5t-49.5 -122.5q33 -51 54.5 -110.5t31.5 -124.5q31 -2 67.5 6t65.5 37 q41 31 69.5 65.5t53.5 63.5q16 18 31.5 31.5t33.5 15.5q68 0 56 -86q-4 -35 -28 -76t-54.5 -81t-63.5 -74.5t-59 -59.5q-29 -27 -76 -41t-92 -18q-10 -94 -43 -179t-88 -150t-135 -102.5t-185 -37.5q-10 0 -20 1t-21 1q-23 -51 -43 -98.5t-37.5 -85t-30 -62.5t-18.5 -29 q-4 -6 -24.5 -11t-44 -6t-45 2t-29.5 15q-4 6 5 38t25.5 80t39 105.5t45.5 114.5q-43 33 -73 80t-48.5 100.5t-26.5 108.5t-8 107zM307 436q0 -45 12 -82q27 66 62 154t76 182q-10 18 -18.5 36.5t-14.5 39.5q-35 -29 -57.5 -69t-36 -84t-18.5 -90t-5 -87zM469 250 q37 6 65.5 28.5t49 58.5t33 79t16.5 90l-39 24q-35 -82 -65 -147t-46 -100q-4 -6 -7 -14.5t-7 -18.5z" />
<glyph unicode="&#xf9;" d="M66 385q0 31 4 85t11 119.5t17.5 134.5t22.5 128t27.5 103t31.5 59q18 8 57 15t82 7t82 -9t58 -34q-8 -23 -20.5 -79t-27 -127.5t-25.5 -151.5t-17.5 -152.5t-5 -128t15.5 -78.5q16 -8 43 1.5t55.5 27t53 37.5t36.5 37q4 31 6 77t6.5 114.5t9.5 161.5t15 218 q0 23 13.5 38.5t34 25.5t43 14t40.5 4q20 0 44 -1t46.5 -7t40 -17.5t23.5 -29.5q4 -8 1 -57.5t-9.5 -120t-14.5 -153.5t-12 -159.5t-4 -138t10 -88.5q14 -39 27.5 -55.5t27.5 -20.5q18 -4 41 14.5t46.5 43t43 51t31.5 39.5q16 18 31.5 31.5t34.5 15.5q67 0 55 -86 q-6 -55 -42 -111.5t-82 -102.5t-95 -75t-82 -31q-86 -4 -143.5 17.5t-92 52.5t-52 65.5t-23.5 59.5q-25 -33 -59.5 -66.5t-74.5 -61.5t-82 -44t-79 -16q-45 2 -100.5 29.5t-75.5 66.5q-16 33 -26.5 72.5t-15.5 80.5t-6 82t-1 74zM168 1501q0 10 13.5 21.5t35 20.5t47 14.5 t51.5 5.5q35 0 65 -10.5t52 -36.5q41 -47 87 -97.5t84 -94.5t63.5 -75.5t25.5 -40.5q0 -16 -21.5 -28.5t-43.5 -12.5q-7 0 -23 4q-6 2 -42 20.5t-84 46.5t-102 62.5t-100.5 70.5t-77 70t-30.5 60z" />
<glyph unicode="&#xfa;" d="M66 385q0 31 4 85t11 119.5t17.5 134.5t22.5 128t27.5 103t31.5 59q18 8 57 15t82 7t82 -9t58 -34q-8 -23 -20.5 -79t-27 -127.5t-25.5 -151.5t-17.5 -152.5t-5 -128t15.5 -78.5q16 -8 43 1.5t55.5 27t53 37.5t36.5 37q4 31 6 77t6.5 114.5t9.5 161.5t15 218 q0 23 13.5 38.5t34 25.5t43 14t40.5 4q20 0 44 -1t46.5 -7t40 -17.5t23.5 -29.5q4 -8 1 -57.5t-9.5 -120t-14.5 -153.5t-12 -159.5t-4 -138t10 -88.5q14 -39 27.5 -55.5t27.5 -20.5q18 -4 41 14.5t46.5 43t43 51t31.5 39.5q16 18 31.5 31.5t34.5 15.5q67 0 55 -86 q-6 -55 -42 -111.5t-82 -102.5t-95 -75t-82 -31q-86 -4 -143.5 17.5t-92 52.5t-52 65.5t-23.5 59.5q-25 -33 -59.5 -66.5t-74.5 -61.5t-82 -44t-79 -16q-45 2 -100.5 29.5t-75.5 66.5q-16 33 -26.5 72.5t-15.5 80.5t-6 82t-1 74zM412 1210q0 8 25.5 40t63.5 76t84 94t87 98 q23 27 52.5 37t63.5 10q27 0 52.5 -5.5t47 -14.5t35 -20.5t13.5 -21.5q0 -27 -31 -60.5t-77 -69.5t-100 -70.5t-102 -62.5t-84 -46t-42 -20q-16 -4 -23 -5q-23 0 -44 12.5t-21 28.5z" />
<glyph unicode="&#xfb;" d="M66 385q0 31 4 85t11 119.5t17.5 134.5t22.5 128t27.5 103t31.5 59q18 8 57 15t82 7t82 -9t58 -34q-8 -23 -20.5 -79t-27 -127.5t-25.5 -151.5t-17.5 -152.5t-5 -128t15.5 -78.5q16 -8 43 1.5t55.5 27t53 37.5t36.5 37q4 31 6 77t6.5 114.5t9.5 161.5t15 218 q0 23 13.5 38.5t34 25.5t43 14t40.5 4q20 0 44 -1t46.5 -7t40 -17.5t23.5 -29.5q4 -8 1 -57.5t-9.5 -120t-14.5 -153.5t-12 -159.5t-4 -138t10 -88.5q14 -39 27.5 -55.5t27.5 -20.5q18 -4 41 14.5t46.5 43t43 51t31.5 39.5q16 18 31.5 31.5t34.5 15.5q67 0 55 -86 q-6 -55 -42 -111.5t-82 -102.5t-95 -75t-82 -31q-86 -4 -143.5 17.5t-92 52.5t-52 65.5t-23.5 59.5q-25 -33 -59.5 -66.5t-74.5 -61.5t-82 -44t-79 -16q-45 2 -100.5 29.5t-75.5 66.5q-16 33 -26.5 72.5t-15.5 80.5t-6 82t-1 74zM240 1171q2 16 34.5 61.5t75.5 101t83 111.5 t59 97q14 14 47 14q10 0 18 -3t10 -7q4 0 27.5 -25.5t57.5 -63.5t72 -83t69.5 -84t52.5 -66l22 -26q0 -6 -13 -14t-32.5 -16.5t-39 -13.5t-31.5 -5t-45 29.5t-69 66.5t-64.5 70t-34.5 41q-31 -49 -50.5 -87t-37 -63.5t-35 -38t-41.5 -12.5q-23 0 -46.5 1t-44 2t-32.5 4 t-12 9z" />
<glyph unicode="&#xfc;" d="M66 385q0 31 4 85t11 119.5t17.5 134.5t22.5 128t27.5 103t31.5 59q18 8 57 15t82 7t82 -9t58 -34q-8 -23 -20.5 -79t-27 -127.5t-25.5 -151.5t-17.5 -152.5t-5 -128t15.5 -78.5q16 -8 43 1.5t55.5 27t53 37.5t36.5 37q4 31 6 77t6.5 114.5t9.5 161.5t15 218 q0 23 13.5 38.5t34 25.5t43 14t40.5 4q20 0 44 -1t46.5 -7t40 -17.5t23.5 -29.5q4 -8 1 -57.5t-9.5 -120t-14.5 -153.5t-12 -159.5t-4 -138t10 -88.5q14 -39 27.5 -55.5t27.5 -20.5q18 -4 41 14.5t46.5 43t43 51t31.5 39.5q16 18 31.5 31.5t34.5 15.5q67 0 55 -86 q-6 -55 -42 -111.5t-82 -102.5t-95 -75t-82 -31q-86 -4 -143.5 17.5t-92 52.5t-52 65.5t-23.5 59.5q-25 -33 -59.5 -66.5t-74.5 -61.5t-82 -44t-79 -16q-45 2 -100.5 29.5t-75.5 66.5q-16 33 -26.5 72.5t-15.5 80.5t-6 82t-1 74zM174 1335q0 76 45 116t111 40 q27 0 51.5 -13.5t42.5 -34t29.5 -45.5t11.5 -48q0 -53 -44 -96.5t-106 -43.5q-39 0 -65.5 12.5t-44 31t-24.5 41t-7 40.5zM604 1339q0 76 45 116t111 40q27 0 51.5 -13.5t42.5 -34t29.5 -45.5t11.5 -48q0 -53 -44 -96.5t-106 -43.5q-39 0 -65.5 12.5t-44 31t-24.5 41 t-7 40.5z" />
<glyph unicode="&#xff;" d="M2 -324q12 70 66.5 108t135.5 65.5t181 54t205 71.5q-4 63 -7 123t-1 107v10q-25 -43 -54.5 -84t-66.5 -73.5t-80 -52t-94 -21.5q-45 -2 -80 47t-59.5 118.5t-40 145.5t-19.5 129q-6 66 -5 156t9 175t24.5 152.5t41.5 89.5q18 8 54 15.5t75 7.5t74.5 -9.5t54.5 -33.5 q-8 -25 -16.5 -72t-14.5 -109.5t-10 -132t-2 -136t10 -126t25 -100.5q16 -8 30.5 -3t27.5 18.5t24.5 31t23.5 33.5q18 41 31.5 86t25 106.5t20.5 147.5t19 211q0 45 32 62.5t56 25.5q29 -2 58.5 -4t55.5 -8.5t44.5 -17.5t24.5 -29q4 -8 2 -53.5t-7.5 -114t-12.5 -154.5 t-13 -176t-10 -179t-4 -165q39 18 82 49t81 78q16 23 36 43t42 43q16 18 31.5 31.5t34.5 15.5q33 0 44 -20.5t11 -65.5q0 -41 -20.5 -84t-51 -81t-68.5 -70.5t-75 -53.5q-55 -41 -137 -78l6 -78q6 -78 -1 -150.5t-38 -131t-90 -97t-160 -51.5q-55 -6 -120.5 -3t-131 15.5 t-125 34t-103.5 52t-66.5 70.5t-14.5 89zM170 1321q0 76 45 116t111 40q27 0 51 -13.5t42.5 -34t30 -46t11.5 -48.5q0 -53 -44 -96t-106 -43q-39 0 -65.5 12.5t-44 30.5t-24.5 41t-7 41zM270 -328q2 -23 29 -36t61.5 -19t70.5 -6h58q49 2 84 42t31 111l-4 64 q-66 -25 -126 -46.5t-106 -41t-73 -36.5t-25 -32zM600 1325q0 76 45 116t111 40q27 0 51 -13.5t42.5 -34t30 -46t11.5 -48.5q0 -53 -44 -96t-106 -43q-39 0 -65.5 12.5t-44 31t-24.5 41t-7 40.5z" />
<glyph unicode="&#x178;" horiz-adv-x="1003" d="M52 1236q-1 62 1 117.5t6 97.5t11 60q4 10 42 22.5t84 13.5t84.5 -13t45.5 -55q-6 -80 -8.5 -163t-0.5 -162t10.5 -148.5t24.5 -124.5q18 -66 48 -107t75 -43q14 0 31.5 7t34 19.5t32 26t25.5 23.5q20 20 61 186t111 494q4 23 50 37t98.5 19t95.5 -2t43 -30 q-20 -84 -50 -184t-62 -203.5t-64.5 -204t-57.5 -182.5q-29 -92 -52 -173t-49 -169t-54.5 -195.5t-65.5 -254.5q-2 -31 -44 -33t-91 12.5t-88 38t-35 45.5q31 115 62.5 218.5t60.5 183.5q31 94 61 174q-72 -43 -123 -58.5t-79 -9.5q-61 12 -103.5 50t-72 91.5t-47 117 t-29.5 126.5q-6 39 -11.5 94.5t-7.5 117t-3 123.5zM195 1800q0 76 45 116t110 40q27 0 51.5 -13.5t43 -34t29.5 -45.5t11 -48q0 -53 -44 -96.5t-105 -43.5q-39 0 -65.5 12.5t-44 31t-24.5 41t-7 40.5zM625 1804q0 76 45 116t110 40q27 0 51.5 -13.5t43 -34t29.5 -45.5 t11 -48q0 -53 -44 -96.5t-105 -43.5q-39 0 -65.5 12.5t-44 31t-24.5 41t-7 40.5z" />
<glyph unicode="&#x2c6;" horiz-adv-x="919" d="M180 1161q2 16 35 61.5t76 100.5t83 111.5t58 97.5q14 14 47 14q10 0 18.5 -3t10.5 -7q4 0 27.5 -25.5t57.5 -63.5t71.5 -83t69.5 -84t54 -66l21 -26q0 -6 -13.5 -14.5t-33 -16.5t-38.5 -13t-32 -5q-12 0 -45 29.5t-68.5 66.5t-64.5 69.5t-35 41.5q-31 -49 -50 -87 t-36.5 -64t-35 -38t-42.5 -12q-23 0 -46 1t-43.5 2t-33 4t-12.5 9z" />
<glyph unicode="&#x2dc;" horiz-adv-x="989" d="M229 1237q0 35 13.5 75t34 74.5t47 61.5t55.5 33q31 8 63 8q55 0 98.5 -18.5t79 -40t64.5 -40t55 -18.5q61 0 125 90q18 25 51 25q23 0 39.5 -13.5t16.5 -41.5v-11q-8 -45 -28.5 -89t-52.5 -79.5t-75 -57t-94 -21.5q-55 0 -95 19t-72 43t-58.5 43t-53.5 19q-23 0 -50 -16 t-56 -57q-31 -35 -66 -35q-16 0 -28.5 12t-12.5 35z" />
<glyph unicode="&#x2000;" horiz-adv-x="1054" />
<glyph unicode="&#x2001;" horiz-adv-x="2109" />
<glyph unicode="&#x2002;" horiz-adv-x="1054" />
<glyph unicode="&#x2003;" horiz-adv-x="2109" />
<glyph unicode="&#x2004;" horiz-adv-x="703" />
<glyph unicode="&#x2005;" horiz-adv-x="527" />
<glyph unicode="&#x2006;" horiz-adv-x="351" />
<glyph unicode="&#x2007;" horiz-adv-x="351" />
<glyph unicode="&#x2008;" horiz-adv-x="263" />
<glyph unicode="&#x2009;" horiz-adv-x="421" />
<glyph unicode="&#x200a;" horiz-adv-x="117" />
<glyph unicode="&#x2010;" horiz-adv-x="847" d="M115 612q0 20 6 39t29 23q10 0 51 3t99 6t125 8t127 8t107.5 6.5t65.5 3.5q37 0 55.5 -12.5t26.5 -34.5q4 -14 5 -30t1 -32q0 -43 -41 -59q-45 -18 -129 -17.5t-201 0.5q-55 0 -107 1t-94 3t-69 5.5t-31 7.5q-14 10 -18 32.5t-8 38.5z" />
<glyph unicode="&#x2011;" horiz-adv-x="847" d="M115 612q0 20 6 39t29 23q10 0 51 3t99 6t125 8t127 8t107.5 6.5t65.5 3.5q37 0 55.5 -12.5t26.5 -34.5q4 -14 5 -30t1 -32q0 -43 -41 -59q-45 -18 -129 -17.5t-201 0.5q-55 0 -107 1t-94 3t-69 5.5t-31 7.5q-14 10 -18 32.5t-8 38.5z" />
<glyph unicode="&#x2012;" horiz-adv-x="847" d="M115 612q0 20 6 39t29 23q10 0 51 3t99 6t125 8t127 8t107.5 6.5t65.5 3.5q37 0 55.5 -12.5t26.5 -34.5q4 -14 5 -30t1 -32q0 -43 -41 -59q-45 -18 -129 -17.5t-201 0.5q-55 0 -107 1t-94 3t-69 5.5t-31 7.5q-14 10 -18 32.5t-8 38.5z" />
<glyph unicode="&#x2013;" horiz-adv-x="974" d="M74 571q0 20 6 39t29 23q10 0 63 3t129 6t164 8t167 8.5t138 6.5t78 3q37 0 55.5 -12.5t26.5 -34.5q4 -14 5 -30t1 -32q0 -43 -41 -59q-45 -18 -129 -17.5t-201 0.5q-55 0 -133 1t-150.5 3t-125 5.5t-56.5 7.5q-14 10 -18 32.5t-8 38.5z" />
<glyph unicode="&#x2014;" horiz-adv-x="1153" d="M53 571q0 20 6.5 39t28.5 23q10 0 80 3t171 6t218 8t220.5 8.5t179 6.5t94.5 3q37 0 55 -12.5t27 -34.5q4 -14 5 -30t1 -32q0 -23 -9.5 -39t-31.5 -20q-29 -4 -80 -5t-111.5 -1h-125h-122.5h-93t-119.5 -1t-128 -1t-116.5 1t-86 2t-36 5q-14 10 -18.5 32.5t-8.5 38.5z " />
<glyph unicode="&#x2018;" horiz-adv-x="489" d="M141 1067q0 68 16.5 137.5t44 129t62.5 106t74 71.5q39 27 72 27q20 0 39.5 -13.5t19.5 -37.5q0 -18 -17.5 -52t-40 -73t-42 -82t-21.5 -80q47 -14 67.5 -53t20.5 -70q0 -80 -43 -121t-102 -41q-25 0 -51.5 8.5t-48 27t-36 47t-14.5 69.5z" />
<glyph unicode="&#x2019;" horiz-adv-x="473" d="M113 934q0 18 17 52t40 73t41 82t22 80q-47 14 -67.5 53t-20.5 69q0 80 43 121t103 41q25 0 51.5 -9t48 -27.5t35.5 -47t14 -67.5q0 -68 -16 -137.5t-44 -129t-62.5 -106.5t-73.5 -72q-39 -27 -72 -26q-20 0 -39.5 13t-19.5 38z" />
<glyph unicode="&#x201c;" horiz-adv-x="806" d="M90 1044q0 68 16.5 137.5t44 129t62.5 106.5t74 72q39 27 71 27q20 0 40 -13.5t20 -38.5q0 -18 -17.5 -52t-40 -73t-42 -82t-21.5 -79q47 -14 67.5 -53.5t20.5 -69.5q0 -80 -43 -121t-102 -41q-25 0 -51.5 8t-48 26.5t-36 47.5t-14.5 69zM465 1075q0 68 16.5 137.5 t44 129t62.5 106.5t74 72q39 27 71 26q20 0 40 -13t20 -38q0 -18 -17.5 -52t-40 -73t-42 -82t-21.5 -80q47 -14 67.5 -53t20.5 -70q0 -80 -43 -120.5t-103 -40.5q-25 0 -51 8t-47.5 26.5t-36 47t-14.5 69.5z" />
<glyph unicode="&#x201d;" horiz-adv-x="876" d="M113 934q0 18 17 52t40 73t41 82t22 80q-47 14 -67.5 53t-20.5 69q0 80 43 121t103 41q25 0 51.5 -9t48 -27.5t35.5 -47t14 -67.5q0 -68 -16 -137.5t-44 -129t-62.5 -106.5t-73.5 -72q-39 -27 -72 -26q-20 0 -39.5 13t-19.5 38zM487 965q0 18 17.5 52t40 72.5t41 81.5 t22.5 80q-47 14 -67.5 53t-20.5 70q0 80 43 121t103 41q25 0 51 -9t47.5 -27.5t36 -47.5t14.5 -68q0 -68 -16.5 -137t-44 -128.5t-62.5 -106.5t-74 -72q-39 -27 -71 -27q-20 0 -40 13.5t-20 38.5z" />
<glyph unicode="&#x2026;" horiz-adv-x="1656" d="M268 111q0 76 45 115.5t111 39.5q27 0 51.5 -13t43 -33.5t29.5 -46t11 -48.5q0 -53 -44 -96t-105 -43q-39 0 -66 12t-44 30.5t-24.5 41t-7.5 41.5zM784 111q0 76 45 115.5t111 39.5q27 0 51.5 -13t43 -33.5t29.5 -46t11 -48.5q0 -53 -44 -96t-105 -43q-39 0 -65.5 12 t-44 30.5t-25 41t-7.5 41.5zM1300 111q0 76 45.5 115.5t110.5 39.5q27 0 51.5 -13t43 -33.5t29.5 -46t11 -48.5q0 -53 -44 -96t-105 -43q-39 0 -65.5 12t-44 30.5t-25 41t-7.5 41.5z" />
<glyph unicode="&#x202f;" horiz-adv-x="421" />
<glyph unicode="&#x205f;" horiz-adv-x="527" />
<glyph unicode="&#x20ac;" horiz-adv-x="1355" d="M68 530q0 27 14 59t47 36q10 0 56 1t112 5q-6 61 -6 129v28q-86 4 -142.5 7.5t-58.5 7.5q-12 8 -12 26q0 23 13 51.5t48 30.5q10 0 54.5 2t107.5 7q20 131 73.5 236.5t133.5 179t182.5 113.5t222.5 40q70 0 130.5 -23.5t106.5 -66.5t72.5 -103.5t26.5 -134.5 q0 -18 -4 -46t-16 -53.5t-37 -44t-66 -18.5q-78 6 -103.5 56.5t-25.5 126.5v37q-6 33 -19 62.5t-46 29.5q-164 0 -246 -99.5t-104 -279.5q96 4 176 8t102 4q31 0 41 -12t10 -35v-28.5t-4 -22.5q-8 -37 -49 -47q-35 -10 -101.5 -11.5t-185.5 -1.5v-49v-47t2 -45q96 4 174 7 t101 3q31 0 42 -12t11 -35q0 -18 -5 -37.5t-11 -35.5q-6 -31 -79 -36t-208 -5q35 -152 110.5 -231t170.5 -79q51 0 89 6.5t72.5 22.5t69.5 48t78 85q20 18 35.5 33.5t36.5 17.5q35 0 45 -21.5t4 -51.5q-8 -41 -28.5 -83t-49.5 -81t-66 -73t-75 -56q-49 -35 -125 -50.5 t-150 -15.5q-92 0 -171 39t-143.5 108.5t-111.5 167t-72 214.5q-100 2 -168.5 6t-72.5 10q-8 6 -8 20z" />
<glyph unicode="&#x2122;" horiz-adv-x="1511" d="M49 1313q14 33 53 55.5t90.5 37.5t110.5 22.5t112.5 11.5t96.5 4h63q35 0 63 -6t48 -6l14 -23q12 -20 22.5 -39.5t14.5 -60.5q-18 -14 -31.5 -18.5t-52.5 -4.5q-25 16 -90 17h-42t-44 -3q0 -16 1 -29.5t1 -27.5t-1 -26.5t-1 -24.5q0 -18 -1 -49t-2 -65t-2 -64.5t-1 -46.5 v-47q0 -25 1 -51.5t1 -55.5q0 -23 -2 -50.5t-4 -49.5l-12 -4q-10 -8 -26.5 -11.5t-27.5 -3.5q-20 0 -46.5 18.5t-39.5 61.5v-2q-6 16 -8 36.5t-2 43.5q0 39 9.5 131t9.5 252v43q-29 -4 -66 -9t-53 -5l-41 6q-25 4 -53.5 9t-61.5 34zM762 827q0 82 1 177.5t4 179.5t7 143 t10 72q4 6 19.5 15t35 16.5t39 12.5t33.5 5q10 0 17 -2q4 -2 22.5 -44t43 -100.5t49 -123t40.5 -111.5q27 68 53.5 137.5t50 125.5t41 92t23.5 36q16 0 38 -7t41.5 -16.5t33.5 -18.5t18 -13q4 -8 7.5 -54t6.5 -112t4 -141.5t2 -144t2 -119t3 -64.5q0 -25 -23.5 -31t-54.5 -6 q-20 0 -50 6t-30 41q0 33 1 98.5t5 131.5q2 78 7 166q-10 -25 -18.5 -54.5t-18.5 -64.5v2q-20 -68 -44 -139.5t-40 -112.5q0 -4 -1 -11.5t-6.5 -13.5t-16.5 -11t-34 -5q-10 0 -22 1t-19 5q-6 6 -17 35t-25.5 71t-31 90t-29.5 89t-22.5 68.5t-9.5 31.5q2 -39 5 -94 t5.5 -109.5t3.5 -101.5t1 -72q0 -31 -25 -39t-59 -8q-29 0 -44.5 4t-22.5 14.5t-8 30t-1 47.5z" />
<glyph unicode="&#x25fc;" horiz-adv-x="1054" d="M0 0v1055h1055v-1055h-1055z" />
</font>
</defs>
</svg>
