<svg xmlns="http://www.w3.org/2000/svg" xmlns:xlink="http://www.w3.org/1999/xlink"><symbol viewBox="0 0 50 50" id="email" xmlns="http://www.w3.org/2000/svg"><path d="M2.7 6.9h44.2c1.6 0 1.6 1.2 1.2 2L25.8 29.6c-.6.6-1.4.6-2 0L1.5 8.9c-.8-1 0-2 1.2-2zm45.9 32.5c0 2.2-1.8 3.9-3.9 3.9H5.1c-2.2 0-3.9-1.8-3.9-3.9V16.9c0-1 1.2-1.6 2-.8l17.4 16.2c1.2 1 2.6 1.6 4.3 1.6 1.6 0 3-.6 4.3-1.6l17.4-16c.8-.6 2 0 2 .8z"/></symbol><symbol viewBox="0 0 50 50" id="facebook" xmlns="http://www.w3.org/2000/svg"><path d="M38.5 9.1c0 .4-.4 1.1-1.1 1.1h-4.2c-2.9 0-3.5 1.1-3.5 3.3v4.6h7.5c.4 0 1.1.4 1.1 1.1v7.9c0 .4-.4 1.1-1.1 1.1h-7.3v20c0 .4-.4 1.1-1.1 1.1h-8.4c-.4 0-1.1-.4-1.1-1.1v-20h-6.4c-.4 0-1.1-.4-1.1-1.1v-7.9c0-.4.4-1.1 1.1-1.1h6.4v-5.5c-.4-6.2 4-11.5 10.1-11.9h7.9c.4 0 1.1.4 1.1 1.1.1 0 .1 7.3.1 7.3z"/></symbol><symbol viewBox="0 0 50 50" id="google" xmlns="http://www.w3.org/2000/svg"><path d="M25.2 48.6C12.1 48.6 1.6 38.1 1.6 25S12.1 1.4 25.2 1.4c6 0 11.3 2.2 15.5 6l-7 7c-2.4-2-5.4-3.2-8.7-3.2-7.7 0-13.9 6.2-13.9 13.9S17.3 38.9 25 38.9c6.6 0 11.5-3.4 12.7-9.1H25.2v-9.1h22c.4 1.4.6 3 .6 4.4.1 14.8-10.6 23.5-22.6 23.5z"/></symbol><symbol viewBox="0 0 50 50" id="link" xmlns="http://www.w3.org/2000/svg"><path d="M27 42.1l-2.6 2.6c-5.5 5.5-14.2 5.3-19.6-.4-5.1-5.3-4.7-13.8.6-19.1l7.2-7.2c.9-.9 1.9-1.7 3-2.3 2.8-1.5 6.2-1.9 9.1-1.3 1.7.2 3.2.9 4.7 1.7.9.4 1.7 1.3 2.3 1.9.4.4 1.1 1.1 1.3 1.5s.2 1.1 0 1.5l-2.8 2.8c-.4.6-1.3.4-1.7-.2-.2-.4-.6-.9-1.1-1.3-.9-.9-1.7-1.3-2.6-1.7-1.5-.6-3.2-.6-4.7-.2-1.3.4-2.3 1.1-3.4 1.9l-7.4 7.4c-3 3-3 8.3.4 11.1 3 2.6 7.7 2.3 10.4-.6l.4-.4c.2-.2.9-.4 1.3-.2.6.2 2.1.6 2.1.6l2.1.2c1.2 0 1.6 1.3 1 1.7zm17.6-17.7l-7.4 7.4c-.9.9-1.9 1.7-3 2.3-2.8 1.5-6.2 1.9-9.1 1.3-1.5-.2-3.2-.9-4.5-1.7-.9-.4-1.7-1.3-2.3-1.9-.4-.4-1.1-1.1-1.3-1.5s-.2-1.1 0-1.5l2.8-2.8c.4-.6 1.3-.4 1.7.2.2.4.6.9 1.1 1.3.9.9 1.7 1.3 2.6 1.7 1.5.6 3.2.6 4.7.2 1.3-.4 2.3-1.1 3.4-1.9l7.4-7.4c3-3 3-8.3-.4-11.1-3-2.6-7.7-2.3-10.4.6l-.4.4c-.2.2-.9.4-1.3.2-1.3-.4-2.8-.6-4-.9-.9 0-1.3-1.3-.6-1.9l2.3-2.1C30.8.2 39.3 0 44.8 4.9c5.2 5.3 5.4 14.2-.2 19.5z"/></symbol><symbol viewBox="0 0 50 50" id="linkedin" xmlns="http://www.w3.org/2000/svg"><path d="M11.6 47H2.3V17h9.3zM6.7 13.2c-3.5 0-5.6-2.3-5.6-5.1 0-3 2.3-5.1 5.8-5.1s5.6 2.3 5.6 5.1c-.2 2.8-2.3 5.1-5.8 5.1zM48.9 47H38.4V31.6c0-4-1.6-6.8-5.4-6.8-2.8 0-4.4 1.9-5.1 3.7-.2.7-.2 1.6-.2 2.3V47H17.2s.2-27.5 0-29.8h10.5v4.7c.7-2.1 4-4.9 9.3-4.9 6.5 0 11.9 4.2 11.9 13.5z"/></symbol><symbol viewBox="0 0 50 50" id="medium" xmlns="http://www.w3.org/2000/svg"><path d="M49.3 6.6l-3.9 3.6c-.2.2-.5.7-.5 1.1v27.3c0 .5 0 .9.5 1.1l3.9 3.6v.9H30.2v-.9l3.9-3.9c.5-.5.5-.5.5-1.1V16.4l-11 27.7h-1.4L9.5 16.4V35c0 .7.2 1.6.7 2l5 6.1v.9H.7v-.9l5-6.1c.5-.5.7-1.4.7-2V13.6c0-.7-.2-1.1-.7-1.6L1.1 6.6v-.9h14.1l11.1 23.9 9.6-23.9h13.4z"/></symbol><symbol viewBox="0 0 50 50" id="radio" xmlns="http://www.w3.org/2000/svg"><path d="M49.9 35v2.8c0 1.3-1.1 2.4-2.4 2.4h-1.3c-.4 0-.8-.1-1.1-.3-1.4 4.3-4.6 7.2-8 6.8H37c-.9-.1-1.6-1.3-1.4-2.6l2-16c.2-1.3 1.1-2.3 2-2.2h.1c3 .4 5.2 3.2 5.9 7 .2-.1.4-.1.6-.1h.8v-7.3c-.1-.6-.1-1.2-.2-1.7 0-.1-.1-.3-.1-.4-.1-.5-.2-1-.4-1.5v-.2c-.2-.5-.3-1.1-.6-1.6-.1-.1-.1-.3-.2-.4l-.6-1.2c0-.1-.1-.2-.1-.3-.3-.5-.5-.9-.8-1.4-.1-.1-.2-.3-.3-.4-.2-.3-.5-.7-.8-1l-.3-.3c-.1-.1-.2-.3-.4-.4.2.3.5.6.7.9-.3.4-.7.7-1.2 1l-.8.3c-1.2.3-2.5 0-3.5-.8l-.5-.5c-3.2-3-7.4-4.7-11.8-4.8-4.4 0-8.7 1.8-11.8 4.8-.2.2-.4.3-.5.5-.9.8-2.2 1.1-3.5.8l-.8-.3c-.5-.2-.9-.6-1.2-1 .1-.2.3-.4.4-.6-2.5 2.9-4 6.5-4.4 10.6v7.3h.5c.4 0 .7.1 1.1.3.7-3.9 2.9-6.8 6-7.2h.1c.9-.1 1.8.9 2 2.2l2 16c.2 1.3-.5 2.5-1.4 2.6h-.1C10 47 6.7 44 5.3 39.5c-.4.3-.9.6-1.5.6H2.5C1.2 40.1.1 39 .1 37.7V35c0-.9.5-1.7 1.3-2.1v-7.6C2.4 13 12.8 3.4 25.1 3.4c4.6 0 8.9 1.3 12.5 3.6.1.1.2.1.3.2.4.3.9.6 1.3.9.1.1.3.2.4.3.5.4.9.8 1.4 1.2l.3.3c.4.4.8.7 1.1 1.1l.3.3c.4.5.8.9 1.2 1.4.1.1.2.3.3.4.4.5.7 1 1.1 1.6 0 .1.1.1.1.2.3.5.6 1 .9 1.6.1.1.1.3.2.4.3.6.5 1.1.8 1.7 0 .1.1.2.1.3.2.5.4 1.1.6 1.7 0 .1.1.2.1.3.2.6.3 1.3.4 1.9 0 .1.1.3.1.4.1.7.2 1.3.3 2V33c.6.4 1 1.1 1 2z"/></symbol><symbol viewBox="0 0 50 50" id="salesforce" xmlns="http://www.w3.org/2000/svg"><path d="M49.1 23c0 5.8-4.5 10.5-10.3 10.5-.7 0-1.5 0-2.2-.2-1.9 3.6-6.4 4.9-9.9 3.2-1.9 4.5-6.9 6.6-11.2 4.7-2.2-.9-3.9-2.8-4.9-5.1H8.9C4.3 36 .8 32.2 1 27.7c.2-2.6 1.5-5.1 3.7-6.6-2.1-4.6.2-10.2 5.1-12.1 3.9-1.7 8.4-.4 11.1 2.8 1.5-1.7 3.7-2.6 6.2-2.6 3.2 0 6 1.7 7.5 4.5 1.3-.6 2.8-.9 4.1-.9 5.8-.1 10.3 4.6 10.4 10.2z"/></symbol><symbol viewBox="0 0 50 50" id="twitter" xmlns="http://www.w3.org/2000/svg"><path d="M43.9 15.3v1.3c0 15.3-12.3 27.9-27.9 28.1-5.4 0-10.6-1.5-15.1-4.3h2.4c4.3 0 8.6-1.5 12.1-4.1-4.1 0-8-2.8-9.1-6.9h1.9c.9 0 1.7-.2 2.6-.4-4.5-.9-7.8-5-7.8-9.7V19c1.3.9 2.8 1.1 4.5 1.3-4.3-2.8-5.6-8.6-3-13.2 5 6 12.3 9.9 20.3 10.4-1.3-5.2 2.2-10.6 7.3-11.9 3.5-.9 6.9.2 9.3 2.8 2.3-.4 4.5-1.3 6.4-2.4-.6 2.4-2.4 4.1-4.3 5.4 1.9-.2 3.9-.9 5.6-1.5-1.5 2.2-3.2 3.9-5.2 5.4z"/></symbol></svg>
