<svg xmlns="http://www.w3.org/2000/svg" xmlns:xlink="http://www.w3.org/1999/xlink"><symbol viewBox="0 0 50 50" id="email" xmlns="http://www.w3.org/2000/svg"><path d="M25 0C11.2 0 0 11.2 0 25s11.2 25 25 25 25-11.2 25-25S38.8 0 25 0zM14 16.1h21.8c.8 0 .8.6.6 1l-11 10.2c-.3.3-.7.3-1 0l-11-10.2c-.4-.5 0-1 .6-1zm22.6 16c0 1.1-.9 1.9-1.9 1.9H15.2c-1.1 0-1.9-.9-1.9-1.9V21c0-.5.6-.8 1-.4l8.6 8c.6.5 1.3.8 2.1.8s1.5-.3 2.1-.8l8.6-7.9c.4-.3 1 0 1 .4v11z"/></symbol><symbol viewBox="0 0 50 50" id="facebook" xmlns="http://www.w3.org/2000/svg"><path d="M25 0C11.2 0 0 11.2 0 25s11.2 25 25 25 25-11.2 25-25S38.8 0 25 0zm6 17.8c0 .2-.2.5-.5.5h-1.9c-1.3 0-1.6.5-1.6 1.5v2.1h3.4c.2 0 .5.2.5.5V26c0 .2-.2.5-.5.5h-3.3v9.1c0 .2-.2.5-.5.5h-3.8c-.2 0-.5-.2-.5-.5v-9.1h-2.9c-.2 0-.5-.2-.5-.5v-3.6c0-.2.2-.5.5-.5h2.9v-2.5c-.2-2.8 1.8-5.2 4.6-5.4H30.5c.2 0 .5.2.5.5v3.3z"/></symbol><symbol viewBox="0 0 50 50" id="google" xmlns="http://www.w3.org/2000/svg"><path d="M25 0C11.2 0 0 11.2 0 25s11.2 25 25 25 25-11.2 25-25S38.8 0 25 0zm0 36.2c-6.6 0-11.9-5.3-11.9-11.9S18.4 12.4 25 12.4c3 0 5.7 1.1 7.8 3l-3.5 3.5c-1.2-1-2.7-1.6-4.4-1.6-3.9 0-7 3.1-7 7s3.1 7 7 7c3.3 0 5.8-1.7 6.4-4.6H25v-4.6h11.1c.2.7.3 1.5.3 2.2 0 7.5-5.4 11.9-11.4 11.9z"/></symbol><symbol viewBox="0 0 50 50" id="link" xmlns="http://www.w3.org/2000/svg"><path d="M25 0C11.2 0 0 11.2 0 25s11.2 25 25 25 25-11.2 25-25S38.8 0 25 0zm.9 32.5l-1.2 1.2c-2.6 2.6-6.7 2.5-9.2-.2-2.4-2.5-2.2-6.5.3-9l3.4-3.4c.4-.4.9-.8 1.4-1.1 1.3-.7 2.9-.9 4.3-.6.8.1 1.5.4 2.2.8.4.2.8.6 1.1.9.2.2.5.5.6.7s.1.5 0 .7l-1.3 1.3c-.2.3-.6.2-.8-.1-.1-.2-.3-.4-.5-.6-.4-.4-.8-.6-1.2-.8-.7-.3-1.5-.3-2.2-.1-.6.2-1.1.5-1.6.9l-3.5 3.5c-1.4 1.4-1.4 3.9.2 5.2 1.4 1.2 3.6 1.1 4.9-.3l.2-.2c.1-.1.4-.2.6-.1.3.1 1 .3 1 .3l1 .1c.4.1.6.7.3.9zm8.3-8.3l-3.5 3.5c-.4.4-.9.8-1.4 1.1-1.3.7-2.9.9-4.3.6-.7-.1-1.5-.4-2.1-.8-.4-.2-.8-.6-1.1-.9-.2-.2-.5-.5-.6-.7s-.1-.5 0-.7l1.3-1.3c.2-.3.6-.2.8.1.1.2.3.4.5.6.4.4.8.6 1.2.8.7.3 1.5.3 2.2.1.6-.2 1.1-.5 1.6-.9l3.5-3.5c1.4-1.4 1.4-3.9-.2-5.2-1.4-1.2-3.6-1.1-4.9.3l-.2.2c-.1.1-.4.2-.6.1-.6-.2-1.3-.3-1.9-.4-.4 0-.6-.6-.3-.9l1.1-1c2.4-2.5 6.4-2.6 9-.3 2.4 2.5 2.5 6.7-.1 9.2z"/></symbol><symbol viewBox="0 0 50 50" id="linkedin" xmlns="http://www.w3.org/2000/svg"><path d="M25 0C11.2 0 0 11.2 0 25s11.2 25 25 25 25-11.2 25-25S38.8 0 25 0zm-5.2 32.8h-4V19.9h4zm-2.1-14.5c-1.5 0-2.4-1-2.4-2.2 0-1.3 1-2.2 2.5-2.2s2.4 1 2.4 2.2c-.1 1.2-1 2.2-2.5 2.2zm18.1 14.5h-4.5v-6.6c0-1.7-.7-2.9-2.3-2.9-1.2 0-1.9.8-2.2 1.6-.1.3-.1.7-.1 1v6.9h-4.5s.1-11.8 0-12.8h4.5v2c.3-.9 1.7-2.1 4-2.1 2.8 0 5.1 1.8 5.1 5.8z"/></symbol><symbol viewBox="0 0 50 50" id="medium" xmlns="http://www.w3.org/2000/svg"><path d="M25 0a25 25 0 1025 25A25 25 0 0025 0zm10.71 16.86L34 18.5a.5.5 0 00-.19.48V31a.5.5 0 00.19.48l1.67 1.64v.36h-8.4v-.36L29 31.46c.17-.17.17-.22.17-.48v-9.73l-4.81 12.21h-.65l-5.6-12.21v8.19a1.13 1.13 0 00.31.94l2.25 2.73v.36h-6.38v-.37l2.25-2.73a1.09 1.09 0 00.29-.94V20a.83.83 0 00-.27-.7l-2-2.41v-.39h6.21l4.8 10.5 4.22-10.5h5.92z"/></symbol><symbol viewBox="0 0 50 50" id="radio" xmlns="http://www.w3.org/2000/svg"><path d="M25 0C11.2 0 0 11.2 0 25s11.2 25 25 25 25-11.2 25-25S38.8 0 25 0zm14.1 31.2c0 .7-.6 1.3-1.3 1.3H37c-.2 0-.5-.1-.6-.2-.8 2.4-2.6 4.1-4.5 3.8h-.1c-.5-.1-.9-.7-.8-1.5l1.1-9.1c.1-.8.6-1.3 1.1-1.3h.1c1.7.2 3 1.8 3.4 4 .1 0 .2-.1.4-.1h.4V24c0-.3-.1-.7-.1-1v-.3c-.1-.3-.1-.6-.2-.8v-.1l-.3-.9c0-.1-.1-.2-.1-.2-.1-.2-.2-.5-.3-.7 0-.1-.1-.1-.1-.2-.1-.3-.3-.5-.5-.8-.1-.1-.1-.2-.2-.2-.1-.2-.3-.4-.4-.6-.1-.1-.1-.1-.1-.2l-.2-.2c.1.2.3.3.4.5-.2.2-.4.4-.7.5l-.7.4c-.7.2-1.4 0-2-.4l-.3-.3c-1.8-1.7-4.2-2.7-6.7-2.7s-4.9 1-6.7 2.7l-.3.3c-.5.4-1.3.6-2 .4l-.4-.2c-.3-.1-.5-.3-.7-.5.1-.1.2-.2.2-.3-1.4 1.7-2.3 3.7-2.5 6v4.1h.4c.2 0 .4.1.6.1.4-2.2 1.7-3.9 3.4-4.1h.1c.5-.1 1 .5 1.1 1.3l1.1 9.1c.1.8-.3 1.4-.8 1.5h-.1c-1.9.2-3.8-1.5-4.6-4-.2.2-.5.3-.9.3h-.7c-.7 0-1.3-.6-1.3-1.3v-1.6c0-.5.3-1 .7-1.2v-4.3c.6-7 6.5-12.4 13.4-12.4 2.6 0 5 .8 7.1 2.1.1 0 .1.1.2.1.3.2.5.3.7.5.1.1.2.1.2.2.3.2.5.4.8.7l.2.2.6.6c0 .1.1.1.1.2.2.3.5.5.7.8.1.1.1.2.2.2l.6.9s0 .1.1.1c.2.3.3.6.5.9 0 .1.1.2.1.2.2.3.3.6.4 1 0 .1 0 .1.1.2l.3.9c0 .1 0 .1.1.2.1.4.2.7.2 1.1v.2c.1.4.1.8.1 1.1v4.3c.4.2.6.7.6 1.1v1.7z"/></symbol><symbol viewBox="0 0 50 50" id="salesforce" xmlns="http://www.w3.org/2000/svg"><path d="M25 0C11.2 0 0 11.2 0 25s11.2 25 25 25 25-11.2 25-25S38.8 0 25 0zm12.9 24c0 3.1-2.4 5.6-5.5 5.6-.4 0-.8 0-1.2-.1-1 1.9-3.4 2.6-5.3 1.7-1 2.4-3.7 3.5-6 2.5-1.2-.5-2.1-1.5-2.6-2.7h-.9c-2.4-.1-4.3-2.1-4.2-4.5.1-1.4.8-2.7 2-3.5-1.1-2.5.1-5.5 2.7-6.5 2.1-.9 4.5-.2 5.9 1.5.8-.9 2-1.4 3.3-1.4 1.7 0 3.2.9 4 2.4.7-.3 1.5-.5 2.2-.5 3.1 0 5.5 2.5 5.6 5.5z"/></symbol><symbol viewBox="0 0 50 50" id="twitter" xmlns="http://www.w3.org/2000/svg"><path d="M25 0a25 25 0 1025 25A25 25 0 0025 0zm8.81 20.48v.59A12.92 12.92 0 0113.92 32 9.66 9.66 0 0015 32a9.12 9.12 0 005.65-1.94 4.55 4.55 0 01-4.25-3.16 4.36 4.36 0 00.86.08 4.6 4.6 0 001.2-.16 4.55 4.55 0 01-3.65-4.46v-.06a4.55 4.55 0 002.06.57 4.55 4.55 0 01-1.41-6.07 12.91 12.91 0 009.37 4.75 4.55 4.55 0 017.75-4.14 9.17 9.17 0 002.89-1.1 4.56 4.56 0 01-2 2.51 9.08 9.08 0 002.61-.72 9.08 9.08 0 01-2.27 2.38z"/></symbol></svg>
